<ttFont>
    <TTGlyph name="A" xMin="-1" yMin="-118" xMax="1090" yMax="804">
      <contour>
        <pt x="369" y="-14" on="1"/>
        <pt x="320" y="33" on="0"/>
        <pt x="320" y="127" on="1"/>
        <pt x="320" y="232" on="0"/>
        <pt x="389" y="344" on="1"/>
        <pt x="427" y="406" on="0"/>
        <pt x="557" y="486" on="0"/>
        <pt x="634" y="486" on="1"/>
        <pt x="668" y="486" on="0"/>
        <pt x="707" y="474" on="1"/>
        <pt x="783" y="599" on="0"/>
        <pt x="879" y="711" on="0"/>
        <pt x="914" y="740" on="1"/>
        <pt x="993" y="804" on="0"/>
        <pt x="1074" y="804" on="1"/>
        <pt x="1090" y="804" on="0"/>
        <pt x="1090" y="788" on="1"/>
        <pt x="1024" y="643" on="0"/>
        <pt x="953" y="348" on="0"/>
        <pt x="914" y="69" on="0"/>
        <pt x="914" y="-28" on="1"/>
        <pt x="914" y="-42" on="0"/>
        <pt x="900" y="-42" on="1"/>
        <pt x="865" y="-42" on="0"/>
        <pt x="865" y="38" on="1"/>
        <pt x="865" y="139" on="0"/>
        <pt x="846" y="221" on="1"/>
        <pt x="811" y="377" on="0"/>
        <pt x="724" y="427" on="1"/>
        <pt x="713" y="406" on="0"/>
        <pt x="652" y="288" on="0"/>
        <pt x="623" y="233" on="0"/>
        <pt x="566" y="134" on="0"/>
        <pt x="546" y="104" on="1"/>
        <pt x="498" y="32" on="0"/>
        <pt x="442" y="-22" on="1"/>
        <pt x="452" y="-25" on="0"/>
        <pt x="466" y="-25" on="1"/>
        <pt x="550" y="-25" on="0"/>
        <pt x="660" y="86" on="0"/>
        <pt x="681" y="162" on="1"/>
        <pt x="684" y="173" on="0"/>
        <pt x="697" y="172" on="1"/>
        <pt x="705" y="171" on="0"/>
        <pt x="703" y="164" on="1"/>
        <pt x="681" y="78" on="0"/>
        <pt x="558" y="-51" on="0"/>
        <pt x="465" y="-51" on="1"/>
        <pt x="444" y="-51" on="0"/>
        <pt x="418" y="-44" on="1"/>
        <pt x="326" y="-118" on="0"/>
        <pt x="222" y="-118" on="1"/>
        <pt x="87" y="-118" on="0"/>
        <pt x="30" y="-12" on="1"/>
        <pt x="-1" y="45" on="0"/>
        <pt x="-1" y="111" on="1"/>
        <pt x="-1" y="146" on="0"/>
        <pt x="8" y="184" on="1"/>
        <pt x="32" y="287" on="0"/>
        <pt x="106" y="331" on="1"/>
        <pt x="143" y="353" on="0"/>
        <pt x="187" y="353" on="1"/>
        <pt x="201" y="353" on="0"/>
        <pt x="219" y="336" on="0"/>
        <pt x="223" y="318" on="1"/>
        <pt x="164" y="318" on="0"/>
        <pt x="117" y="276" on="1"/>
        <pt x="38" y="207" on="0"/>
        <pt x="38" y="80" on="1"/>
        <pt x="38" y="3" on="0"/>
        <pt x="131" y="-84" on="0"/>
        <pt x="288" y="-84" on="0"/>
      </contour>
      <contour>
        <pt x="633" y="450" on="1"/>
        <pt x="549" y="450" on="0"/>
        <pt x="415" y="340" on="0"/>
        <pt x="353" y="193" on="0"/>
        <pt x="353" y="43" on="0"/>
        <pt x="391" y="4" on="1"/>
        <pt x="429" y="40" on="0"/>
        <pt x="515" y="157" on="0"/>
        <pt x="565" y="237" on="0"/>
        <pt x="671" y="417" on="0"/>
        <pt x="687" y="443" on="1"/>
        <pt x="663" y="450" on="0"/>
      </contour>
      <contour>
        <pt x="1022" y="765" on="1"/>
        <pt x="942" y="744" on="0"/>
        <pt x="810" y="588" on="0"/>
        <pt x="741" y="459" on="1"/>
        <pt x="838" y="406" on="0"/>
        <pt x="877" y="247" on="1"/>
        <pt x="895" y="417" on="0"/>
        <pt x="976" y="702" on="0"/>
      </contour>
    </TTGlyph>
    <TTGlyph name="AE" xMin="-1" yMin="-152" xMax="1483" yMax="804">
      <contour>
        <pt x="826" y="80" on="1"/>
        <pt x="828" y="145" on="1"/>
        <pt x="828" y="358" on="0"/>
        <pt x="724" y="425" on="1"/>
        <pt x="636" y="258" on="0"/>
        <pt x="601" y="194" on="0"/>
        <pt x="568" y="139" on="1"/>
        <pt x="509" y="43" on="0"/>
        <pt x="442" y="-22" on="1"/>
        <pt x="463" y="-25" on="0"/>
        <pt x="466" y="-25" on="1"/>
        <pt x="550" y="-25" on="0"/>
        <pt x="660" y="86" on="0"/>
        <pt x="681" y="162" on="1"/>
        <pt x="684" y="173" on="0"/>
        <pt x="697" y="172" on="1"/>
        <pt x="705" y="171" on="0"/>
        <pt x="703" y="164" on="1"/>
        <pt x="681" y="78" on="0"/>
        <pt x="558" y="-51" on="0"/>
        <pt x="465" y="-51" on="1"/>
        <pt x="444" y="-51" on="0"/>
        <pt x="418" y="-44" on="1"/>
        <pt x="326" y="-118" on="0"/>
        <pt x="222" y="-118" on="1"/>
        <pt x="87" y="-118" on="0"/>
        <pt x="30" y="-12" on="1"/>
        <pt x="-1" y="45" on="0"/>
        <pt x="-1" y="111" on="1"/>
        <pt x="-1" y="146" on="0"/>
        <pt x="8" y="184" on="1"/>
        <pt x="32" y="287" on="0"/>
        <pt x="106" y="331" on="1"/>
        <pt x="143" y="353" on="0"/>
        <pt x="187" y="353" on="1"/>
        <pt x="201" y="353" on="0"/>
        <pt x="219" y="336" on="0"/>
        <pt x="223" y="318" on="1"/>
        <pt x="164" y="318" on="0"/>
        <pt x="117" y="276" on="1"/>
        <pt x="38" y="207" on="0"/>
        <pt x="38" y="80" on="1"/>
        <pt x="38" y="3" on="0"/>
        <pt x="131" y="-84" on="0"/>
        <pt x="288" y="-84" on="0"/>
        <pt x="369" y="-14" on="1"/>
        <pt x="320" y="33" on="0"/>
        <pt x="320" y="127" on="1"/>
        <pt x="320" y="232" on="0"/>
        <pt x="389" y="344" on="1"/>
        <pt x="427" y="406" on="0"/>
        <pt x="557" y="486" on="0"/>
        <pt x="634" y="486" on="1"/>
        <pt x="668" y="486" on="0"/>
        <pt x="706" y="474" on="1"/>
        <pt x="794" y="618" on="0"/>
        <pt x="876" y="704" on="1"/>
        <pt x="969" y="804" on="0"/>
        <pt x="1074" y="804" on="1"/>
        <pt x="1076" y="804" on="0"/>
        <pt x="1076" y="788" on="0"/>
        <pt x="1075" y="772" on="1"/>
        <pt x="971" y="772" on="0"/>
        <pt x="887" y="678" on="1"/>
        <pt x="845" y="631" on="0"/>
        <pt x="780" y="531" on="0"/>
        <pt x="740" y="458" on="1"/>
        <pt x="838" y="399" on="0"/>
        <pt x="855" y="211" on="1"/>
        <pt x="895" y="306" on="0"/>
        <pt x="1059" y="452" on="0"/>
        <pt x="1169" y="476" on="1"/>
        <pt x="1089" y="505" on="0"/>
        <pt x="1089" y="647" on="0"/>
        <pt x="1155" y="706" on="1"/>
        <pt x="1231" y="774" on="0"/>
        <pt x="1339" y="774" on="1"/>
        <pt x="1358" y="774" on="0"/>
        <pt x="1376" y="746" on="0"/>
        <pt x="1376" y="732" on="1"/>
        <pt x="1375" y="719" on="1"/>
        <pt x="1367" y="723" on="0"/>
        <pt x="1340" y="723" on="1"/>
        <pt x="1250" y="723" on="0"/>
        <pt x="1187" y="659" on="1"/>
        <pt x="1144" y="614" on="0"/>
        <pt x="1144" y="571" on="1"/>
        <pt x="1144" y="487" on="0"/>
        <pt x="1269" y="487" on="1"/>
        <pt x="1280" y="487" on="0"/>
        <pt x="1295" y="474" on="0"/>
        <pt x="1299" y="461" on="1"/>
        <pt x="1127" y="461" on="0"/>
        <pt x="1010" y="328" on="1"/>
        <pt x="900" y="204" on="0"/>
        <pt x="900" y="53" on="1"/>
        <pt x="900" y="-34" on="0"/>
        <pt x="950" y="-81" on="1"/>
        <pt x="989" y="-119" on="0"/>
        <pt x="1052" y="-119" on="1"/>
        <pt x="1194" y="-119" on="0"/>
        <pt x="1270" y="1" on="1"/>
        <pt x="1320" y="79" on="0"/>
        <pt x="1320" y="165" on="1"/>
        <pt x="1320" y="259" on="0"/>
        <pt x="1273" y="276" on="1"/>
        <pt x="1265" y="279" on="0"/>
        <pt x="1256" y="279" on="1"/>
        <pt x="1269" y="302" on="0"/>
        <pt x="1304" y="302" on="1"/>
        <pt x="1353" y="302" on="0"/>
        <pt x="1368" y="237" on="1"/>
        <pt x="1373" y="213" on="0"/>
        <pt x="1373" y="187" on="1"/>
        <pt x="1373" y="126" on="0"/>
        <pt x="1343" y="53" on="1"/>
        <pt x="1289" y="-73" on="0"/>
        <pt x="1180" y="-124" on="1"/>
        <pt x="1120" y="-152" on="0"/>
        <pt x="1051" y="-152" on="1"/>
        <pt x="930" y="-152" on="0"/>
        <pt x="826" y="-16" on="0"/>
      </contour>
      <contour>
        <pt x="633" y="450" on="1"/>
        <pt x="549" y="450" on="0"/>
        <pt x="415" y="340" on="0"/>
        <pt x="353" y="193" on="0"/>
        <pt x="353" y="43" on="0"/>
        <pt x="391" y="4" on="1"/>
        <pt x="454" y="64" on="0"/>
        <pt x="540" y="196" on="1"/>
        <pt x="581" y="261" on="0"/>
        <pt x="687" y="442" on="1"/>
        <pt x="666" y="450" on="0"/>
      </contour>
      <contour>
        <pt x="1410" y="548" on="1"/>
        <pt x="1410" y="543" on="0"/>
        <pt x="1401" y="543" on="1"/>
        <pt x="1375" y="543" on="0"/>
        <pt x="1375" y="558" on="1"/>
        <pt x="1375" y="660" on="0"/>
        <pt x="1421" y="785" on="0"/>
        <pt x="1459" y="785" on="1"/>
        <pt x="1468" y="785" on="0"/>
        <pt x="1483" y="770" on="0"/>
        <pt x="1483" y="759" on="1"/>
        <pt x="1437" y="713" on="0"/>
        <pt x="1418" y="625" on="1"/>
        <pt x="1410" y="588" on="0"/>
      </contour>
    </TTGlyph>
    <TTGlyph name="Aacute" xMin="-1" yMin="-118" xMax="1150" yMax="998">
      <contour>
        <pt x="1143" y="958" on="1"/>
        <pt x="1113" y="922" on="0"/>
        <pt x="1039" y="855" on="0"/>
        <pt x="1020" y="855" on="0"/>
        <pt x="1020" y="874" on="0"/>
        <pt x="1065" y="947" on="0"/>
        <pt x="1097" y="983" on="1"/>
        <pt x="1111" y="997" on="0"/>
        <pt x="1131" y="997" on="0"/>
        <pt x="1150" y="987" on="0"/>
        <pt x="1150" y="969" on="0"/>
      </contour>
      <contour>
        <pt x="369" y="-14" on="1"/>
        <pt x="320" y="33" on="0"/>
        <pt x="320" y="127" on="1"/>
        <pt x="320" y="232" on="0"/>
        <pt x="389" y="344" on="1"/>
        <pt x="427" y="406" on="0"/>
        <pt x="557" y="486" on="0"/>
        <pt x="634" y="486" on="1"/>
        <pt x="668" y="486" on="0"/>
        <pt x="707" y="474" on="1"/>
        <pt x="783" y="599" on="0"/>
        <pt x="879" y="711" on="0"/>
        <pt x="914" y="740" on="1"/>
        <pt x="993" y="804" on="0"/>
        <pt x="1074" y="804" on="1"/>
        <pt x="1090" y="804" on="0"/>
        <pt x="1090" y="788" on="1"/>
        <pt x="1024" y="643" on="0"/>
        <pt x="953" y="348" on="0"/>
        <pt x="914" y="69" on="0"/>
        <pt x="914" y="-28" on="1"/>
        <pt x="914" y="-42" on="0"/>
        <pt x="900" y="-42" on="1"/>
        <pt x="865" y="-42" on="0"/>
        <pt x="865" y="38" on="1"/>
        <pt x="865" y="139" on="0"/>
        <pt x="846" y="221" on="1"/>
        <pt x="811" y="377" on="0"/>
        <pt x="724" y="427" on="1"/>
        <pt x="713" y="406" on="0"/>
        <pt x="652" y="288" on="0"/>
        <pt x="623" y="233" on="0"/>
        <pt x="566" y="134" on="0"/>
        <pt x="546" y="104" on="1"/>
        <pt x="498" y="32" on="0"/>
        <pt x="442" y="-22" on="1"/>
        <pt x="452" y="-25" on="0"/>
        <pt x="466" y="-25" on="1"/>
        <pt x="550" y="-25" on="0"/>
        <pt x="660" y="86" on="0"/>
        <pt x="681" y="162" on="1"/>
        <pt x="684" y="173" on="0"/>
        <pt x="697" y="172" on="1"/>
        <pt x="705" y="171" on="0"/>
        <pt x="703" y="164" on="1"/>
        <pt x="681" y="78" on="0"/>
        <pt x="558" y="-51" on="0"/>
        <pt x="465" y="-51" on="1"/>
        <pt x="444" y="-51" on="0"/>
        <pt x="418" y="-44" on="1"/>
        <pt x="326" y="-118" on="0"/>
        <pt x="222" y="-118" on="1"/>
        <pt x="87" y="-118" on="0"/>
        <pt x="30" y="-12" on="1"/>
        <pt x="-1" y="45" on="0"/>
        <pt x="-1" y="111" on="1"/>
        <pt x="-1" y="146" on="0"/>
        <pt x="8" y="184" on="1"/>
        <pt x="32" y="287" on="0"/>
        <pt x="106" y="331" on="1"/>
        <pt x="143" y="353" on="0"/>
        <pt x="187" y="353" on="1"/>
        <pt x="201" y="353" on="0"/>
        <pt x="219" y="336" on="0"/>
        <pt x="223" y="318" on="1"/>
        <pt x="164" y="318" on="0"/>
        <pt x="117" y="276" on="1"/>
        <pt x="38" y="207" on="0"/>
        <pt x="38" y="80" on="1"/>
        <pt x="38" y="3" on="0"/>
        <pt x="131" y="-84" on="0"/>
        <pt x="288" y="-84" on="0"/>
      </contour>
      <contour>
        <pt x="633" y="450" on="1"/>
        <pt x="549" y="450" on="0"/>
        <pt x="415" y="340" on="0"/>
        <pt x="353" y="193" on="0"/>
        <pt x="353" y="43" on="0"/>
        <pt x="391" y="4" on="1"/>
        <pt x="429" y="40" on="0"/>
        <pt x="515" y="157" on="0"/>
        <pt x="565" y="237" on="0"/>
        <pt x="671" y="417" on="0"/>
        <pt x="687" y="443" on="1"/>
        <pt x="663" y="450" on="0"/>
      </contour>
      <contour>
        <pt x="1022" y="765" on="1"/>
        <pt x="942" y="744" on="0"/>
        <pt x="810" y="588" on="0"/>
        <pt x="741" y="459" on="1"/>
        <pt x="838" y="406" on="0"/>
        <pt x="877" y="247" on="1"/>
        <pt x="895" y="417" on="0"/>
        <pt x="976" y="702" on="0"/>
      </contour>
    </TTGlyph>
    <TTGlyph name="Acircumflex" xMin="-1" yMin="-118" xMax="1131" yMax="975">
      <contour>
        <pt x="1052" y="975" on="0"/>
        <pt x="1068" y="975" on="0"/>
        <pt x="1072" y="967" on="1"/>
        <pt x="1131" y="849" on="1"/>
        <pt x="1103" y="849" on="1"/>
        <pt x="1057" y="926" on="1"/>
        <pt x="927" y="849" on="1"/>
        <pt x="898" y="849" on="1"/>
        <pt x="994" y="929" on="0"/>
        <pt x="1042" y="967" on="1"/>
      </contour>
      <contour>
        <pt x="369" y="-14" on="1"/>
        <pt x="320" y="33" on="0"/>
        <pt x="320" y="127" on="1"/>
        <pt x="320" y="232" on="0"/>
        <pt x="389" y="344" on="1"/>
        <pt x="427" y="406" on="0"/>
        <pt x="557" y="486" on="0"/>
        <pt x="634" y="486" on="1"/>
        <pt x="668" y="486" on="0"/>
        <pt x="707" y="474" on="1"/>
        <pt x="783" y="599" on="0"/>
        <pt x="879" y="711" on="0"/>
        <pt x="914" y="740" on="1"/>
        <pt x="993" y="804" on="0"/>
        <pt x="1074" y="804" on="1"/>
        <pt x="1090" y="804" on="0"/>
        <pt x="1090" y="788" on="1"/>
        <pt x="1024" y="643" on="0"/>
        <pt x="953" y="348" on="0"/>
        <pt x="914" y="69" on="0"/>
        <pt x="914" y="-28" on="1"/>
        <pt x="914" y="-42" on="0"/>
        <pt x="900" y="-42" on="1"/>
        <pt x="865" y="-42" on="0"/>
        <pt x="865" y="38" on="1"/>
        <pt x="865" y="139" on="0"/>
        <pt x="846" y="221" on="1"/>
        <pt x="811" y="377" on="0"/>
        <pt x="724" y="427" on="1"/>
        <pt x="713" y="406" on="0"/>
        <pt x="652" y="288" on="0"/>
        <pt x="623" y="233" on="0"/>
        <pt x="566" y="134" on="0"/>
        <pt x="546" y="104" on="1"/>
        <pt x="498" y="32" on="0"/>
        <pt x="442" y="-22" on="1"/>
        <pt x="452" y="-25" on="0"/>
        <pt x="466" y="-25" on="1"/>
        <pt x="550" y="-25" on="0"/>
        <pt x="660" y="86" on="0"/>
        <pt x="681" y="162" on="1"/>
        <pt x="684" y="173" on="0"/>
        <pt x="697" y="172" on="1"/>
        <pt x="705" y="171" on="0"/>
        <pt x="703" y="164" on="1"/>
        <pt x="681" y="78" on="0"/>
        <pt x="558" y="-51" on="0"/>
        <pt x="465" y="-51" on="1"/>
        <pt x="444" y="-51" on="0"/>
        <pt x="418" y="-44" on="1"/>
        <pt x="326" y="-118" on="0"/>
        <pt x="222" y="-118" on="1"/>
        <pt x="87" y="-118" on="0"/>
        <pt x="30" y="-12" on="1"/>
        <pt x="-1" y="45" on="0"/>
        <pt x="-1" y="111" on="1"/>
        <pt x="-1" y="146" on="0"/>
        <pt x="8" y="184" on="1"/>
        <pt x="32" y="287" on="0"/>
        <pt x="106" y="331" on="1"/>
        <pt x="143" y="353" on="0"/>
        <pt x="187" y="353" on="1"/>
        <pt x="201" y="353" on="0"/>
        <pt x="219" y="336" on="0"/>
        <pt x="223" y="318" on="1"/>
        <pt x="164" y="318" on="0"/>
        <pt x="117" y="276" on="1"/>
        <pt x="38" y="207" on="0"/>
        <pt x="38" y="80" on="1"/>
        <pt x="38" y="3" on="0"/>
        <pt x="131" y="-84" on="0"/>
        <pt x="288" y="-84" on="0"/>
      </contour>
      <contour>
        <pt x="633" y="450" on="1"/>
        <pt x="549" y="450" on="0"/>
        <pt x="415" y="340" on="0"/>
        <pt x="353" y="193" on="0"/>
        <pt x="353" y="43" on="0"/>
        <pt x="391" y="4" on="1"/>
        <pt x="429" y="40" on="0"/>
        <pt x="515" y="157" on="0"/>
        <pt x="565" y="237" on="0"/>
        <pt x="671" y="417" on="0"/>
        <pt x="687" y="443" on="1"/>
        <pt x="663" y="450" on="0"/>
      </contour>
      <contour>
        <pt x="1022" y="765" on="1"/>
        <pt x="942" y="744" on="0"/>
        <pt x="810" y="588" on="0"/>
        <pt x="741" y="459" on="1"/>
        <pt x="838" y="406" on="0"/>
        <pt x="877" y="247" on="1"/>
        <pt x="895" y="417" on="0"/>
        <pt x="976" y="702" on="0"/>
      </contour>
    </TTGlyph>
    <TTGlyph name="Adieresis" xMin="-1" yMin="-118" xMax="1161" yMax="974">
      <contour>
        <pt x="969" y="856" on="1"/>
        <pt x="948" y="856" on="0"/>
        <pt x="948" y="896" on="1"/>
        <pt x="948" y="920" on="0"/>
        <pt x="974" y="974" on="0"/>
        <pt x="998" y="974" on="1"/>
        <pt x="1018" y="974" on="0"/>
        <pt x="1018" y="951" on="1"/>
        <pt x="1018" y="927" on="0"/>
        <pt x="982" y="874" on="1"/>
      </contour>
      <contour>
        <pt x="1112" y="856" on="1"/>
        <pt x="1091" y="856" on="0"/>
        <pt x="1091" y="897" on="1"/>
        <pt x="1091" y="921" on="0"/>
        <pt x="1116" y="974" on="0"/>
        <pt x="1140" y="974" on="1"/>
        <pt x="1161" y="974" on="0"/>
        <pt x="1161" y="951" on="1"/>
        <pt x="1161" y="930" on="0"/>
        <pt x="1124" y="874" on="1"/>
      </contour>
      <contour>
        <pt x="369" y="-14" on="1"/>
        <pt x="320" y="33" on="0"/>
        <pt x="320" y="127" on="1"/>
        <pt x="320" y="232" on="0"/>
        <pt x="389" y="344" on="1"/>
        <pt x="427" y="406" on="0"/>
        <pt x="557" y="486" on="0"/>
        <pt x="634" y="486" on="1"/>
        <pt x="668" y="486" on="0"/>
        <pt x="707" y="474" on="1"/>
        <pt x="783" y="599" on="0"/>
        <pt x="879" y="711" on="0"/>
        <pt x="914" y="740" on="1"/>
        <pt x="993" y="804" on="0"/>
        <pt x="1074" y="804" on="1"/>
        <pt x="1090" y="804" on="0"/>
        <pt x="1090" y="788" on="1"/>
        <pt x="1024" y="643" on="0"/>
        <pt x="953" y="348" on="0"/>
        <pt x="914" y="69" on="0"/>
        <pt x="914" y="-28" on="1"/>
        <pt x="914" y="-42" on="0"/>
        <pt x="900" y="-42" on="1"/>
        <pt x="865" y="-42" on="0"/>
        <pt x="865" y="38" on="1"/>
        <pt x="865" y="139" on="0"/>
        <pt x="846" y="221" on="1"/>
        <pt x="811" y="377" on="0"/>
        <pt x="724" y="427" on="1"/>
        <pt x="713" y="406" on="0"/>
        <pt x="652" y="288" on="0"/>
        <pt x="623" y="233" on="0"/>
        <pt x="566" y="134" on="0"/>
        <pt x="546" y="104" on="1"/>
        <pt x="498" y="32" on="0"/>
        <pt x="442" y="-22" on="1"/>
        <pt x="452" y="-25" on="0"/>
        <pt x="466" y="-25" on="1"/>
        <pt x="550" y="-25" on="0"/>
        <pt x="660" y="86" on="0"/>
        <pt x="681" y="162" on="1"/>
        <pt x="684" y="173" on="0"/>
        <pt x="697" y="172" on="1"/>
        <pt x="705" y="171" on="0"/>
        <pt x="703" y="164" on="1"/>
        <pt x="681" y="78" on="0"/>
        <pt x="558" y="-51" on="0"/>
        <pt x="465" y="-51" on="1"/>
        <pt x="444" y="-51" on="0"/>
        <pt x="418" y="-44" on="1"/>
        <pt x="326" y="-118" on="0"/>
        <pt x="222" y="-118" on="1"/>
        <pt x="87" y="-118" on="0"/>
        <pt x="30" y="-12" on="1"/>
        <pt x="-1" y="45" on="0"/>
        <pt x="-1" y="111" on="1"/>
        <pt x="-1" y="146" on="0"/>
        <pt x="8" y="184" on="1"/>
        <pt x="32" y="287" on="0"/>
        <pt x="106" y="331" on="1"/>
        <pt x="143" y="353" on="0"/>
        <pt x="187" y="353" on="1"/>
        <pt x="201" y="353" on="0"/>
        <pt x="219" y="336" on="0"/>
        <pt x="223" y="318" on="1"/>
        <pt x="164" y="318" on="0"/>
        <pt x="117" y="276" on="1"/>
        <pt x="38" y="207" on="0"/>
        <pt x="38" y="80" on="1"/>
        <pt x="38" y="3" on="0"/>
        <pt x="131" y="-84" on="0"/>
        <pt x="288" y="-84" on="0"/>
      </contour>
      <contour>
        <pt x="633" y="450" on="1"/>
        <pt x="549" y="450" on="0"/>
        <pt x="415" y="340" on="0"/>
        <pt x="353" y="193" on="0"/>
        <pt x="353" y="43" on="0"/>
        <pt x="391" y="4" on="1"/>
        <pt x="429" y="40" on="0"/>
        <pt x="515" y="157" on="0"/>
        <pt x="565" y="237" on="0"/>
        <pt x="671" y="417" on="0"/>
        <pt x="687" y="443" on="1"/>
        <pt x="663" y="450" on="0"/>
      </contour>
      <contour>
        <pt x="1022" y="765" on="1"/>
        <pt x="942" y="744" on="0"/>
        <pt x="810" y="588" on="0"/>
        <pt x="741" y="459" on="1"/>
        <pt x="838" y="406" on="0"/>
        <pt x="877" y="247" on="1"/>
        <pt x="895" y="417" on="0"/>
        <pt x="976" y="702" on="0"/>
      </contour>
    </TTGlyph>
    <TTGlyph name="Agrave" xMin="-1" yMin="-118" xMax="1090" yMax="1014">
      <contour>
        <pt x="961" y="1005" on="1"/>
        <pt x="997" y="971" on="0"/>
        <pt x="1065" y="889" on="0"/>
        <pt x="1065" y="869" on="0"/>
        <pt x="1043" y="869" on="0"/>
        <pt x="972" y="921" on="0"/>
        <pt x="934" y="959" on="1"/>
        <pt x="918" y="973" on="0"/>
        <pt x="918" y="993" on="0"/>
        <pt x="931" y="1013" on="0"/>
        <pt x="951" y="1013" on="0"/>
      </contour>
      <contour>
        <pt x="369" y="-14" on="1"/>
        <pt x="320" y="33" on="0"/>
        <pt x="320" y="127" on="1"/>
        <pt x="320" y="232" on="0"/>
        <pt x="389" y="344" on="1"/>
        <pt x="427" y="406" on="0"/>
        <pt x="557" y="486" on="0"/>
        <pt x="634" y="486" on="1"/>
        <pt x="668" y="486" on="0"/>
        <pt x="707" y="474" on="1"/>
        <pt x="783" y="599" on="0"/>
        <pt x="879" y="711" on="0"/>
        <pt x="914" y="740" on="1"/>
        <pt x="993" y="804" on="0"/>
        <pt x="1074" y="804" on="1"/>
        <pt x="1090" y="804" on="0"/>
        <pt x="1090" y="788" on="1"/>
        <pt x="1024" y="643" on="0"/>
        <pt x="953" y="348" on="0"/>
        <pt x="914" y="69" on="0"/>
        <pt x="914" y="-28" on="1"/>
        <pt x="914" y="-42" on="0"/>
        <pt x="900" y="-42" on="1"/>
        <pt x="865" y="-42" on="0"/>
        <pt x="865" y="38" on="1"/>
        <pt x="865" y="139" on="0"/>
        <pt x="846" y="221" on="1"/>
        <pt x="811" y="377" on="0"/>
        <pt x="724" y="427" on="1"/>
        <pt x="713" y="406" on="0"/>
        <pt x="652" y="288" on="0"/>
        <pt x="623" y="233" on="0"/>
        <pt x="566" y="134" on="0"/>
        <pt x="546" y="104" on="1"/>
        <pt x="498" y="32" on="0"/>
        <pt x="442" y="-22" on="1"/>
        <pt x="452" y="-25" on="0"/>
        <pt x="466" y="-25" on="1"/>
        <pt x="550" y="-25" on="0"/>
        <pt x="660" y="86" on="0"/>
        <pt x="681" y="162" on="1"/>
        <pt x="684" y="173" on="0"/>
        <pt x="697" y="172" on="1"/>
        <pt x="705" y="171" on="0"/>
        <pt x="703" y="164" on="1"/>
        <pt x="681" y="78" on="0"/>
        <pt x="558" y="-51" on="0"/>
        <pt x="465" y="-51" on="1"/>
        <pt x="444" y="-51" on="0"/>
        <pt x="418" y="-44" on="1"/>
        <pt x="326" y="-118" on="0"/>
        <pt x="222" y="-118" on="1"/>
        <pt x="87" y="-118" on="0"/>
        <pt x="30" y="-12" on="1"/>
        <pt x="-1" y="45" on="0"/>
        <pt x="-1" y="111" on="1"/>
        <pt x="-1" y="146" on="0"/>
        <pt x="8" y="184" on="1"/>
        <pt x="32" y="287" on="0"/>
        <pt x="106" y="331" on="1"/>
        <pt x="143" y="353" on="0"/>
        <pt x="187" y="353" on="1"/>
        <pt x="201" y="353" on="0"/>
        <pt x="219" y="336" on="0"/>
        <pt x="223" y="318" on="1"/>
        <pt x="164" y="318" on="0"/>
        <pt x="117" y="276" on="1"/>
        <pt x="38" y="207" on="0"/>
        <pt x="38" y="80" on="1"/>
        <pt x="38" y="3" on="0"/>
        <pt x="131" y="-84" on="0"/>
        <pt x="288" y="-84" on="0"/>
      </contour>
      <contour>
        <pt x="633" y="450" on="1"/>
        <pt x="549" y="450" on="0"/>
        <pt x="415" y="340" on="0"/>
        <pt x="353" y="193" on="0"/>
        <pt x="353" y="43" on="0"/>
        <pt x="391" y="4" on="1"/>
        <pt x="429" y="40" on="0"/>
        <pt x="515" y="157" on="0"/>
        <pt x="565" y="237" on="0"/>
        <pt x="671" y="417" on="0"/>
        <pt x="687" y="443" on="1"/>
        <pt x="663" y="450" on="0"/>
      </contour>
      <contour>
        <pt x="1022" y="765" on="1"/>
        <pt x="942" y="744" on="0"/>
        <pt x="810" y="588" on="0"/>
        <pt x="741" y="459" on="1"/>
        <pt x="838" y="406" on="0"/>
        <pt x="877" y="247" on="1"/>
        <pt x="895" y="417" on="0"/>
        <pt x="976" y="702" on="0"/>
      </contour>
    </TTGlyph>
    <TTGlyph name="Aring" xMin="-1" yMin="-118" xMax="1103" yMax="1003">
      <contour>
        <pt x="959" y="961" on="0"/>
        <pt x="1000" y="1003" on="0"/>
        <pt x="1061" y="1003" on="0"/>
        <pt x="1103" y="961" on="0"/>
        <pt x="1103" y="901" on="0"/>
        <pt x="1061" y="859" on="0"/>
        <pt x="1000" y="859" on="0"/>
        <pt x="959" y="902" on="0"/>
      </contour>
      <contour>
        <pt x="1012" y="891" on="0"/>
        <pt x="1046" y="891" on="0"/>
        <pt x="1071" y="915" on="0"/>
        <pt x="1071" y="949" on="0"/>
        <pt x="1046" y="973" on="0"/>
        <pt x="1012" y="973" on="0"/>
        <pt x="988" y="949" on="0"/>
        <pt x="988" y="915" on="0"/>
      </contour>
      <contour>
        <pt x="369" y="-14" on="1"/>
        <pt x="320" y="33" on="0"/>
        <pt x="320" y="127" on="1"/>
        <pt x="320" y="232" on="0"/>
        <pt x="389" y="344" on="1"/>
        <pt x="427" y="406" on="0"/>
        <pt x="557" y="486" on="0"/>
        <pt x="634" y="486" on="1"/>
        <pt x="668" y="486" on="0"/>
        <pt x="707" y="474" on="1"/>
        <pt x="783" y="599" on="0"/>
        <pt x="879" y="711" on="0"/>
        <pt x="914" y="740" on="1"/>
        <pt x="993" y="804" on="0"/>
        <pt x="1074" y="804" on="1"/>
        <pt x="1090" y="804" on="0"/>
        <pt x="1090" y="788" on="1"/>
        <pt x="1024" y="643" on="0"/>
        <pt x="953" y="348" on="0"/>
        <pt x="914" y="69" on="0"/>
        <pt x="914" y="-28" on="1"/>
        <pt x="914" y="-42" on="0"/>
        <pt x="900" y="-42" on="1"/>
        <pt x="865" y="-42" on="0"/>
        <pt x="865" y="38" on="1"/>
        <pt x="865" y="139" on="0"/>
        <pt x="846" y="221" on="1"/>
        <pt x="811" y="377" on="0"/>
        <pt x="724" y="427" on="1"/>
        <pt x="713" y="406" on="0"/>
        <pt x="652" y="288" on="0"/>
        <pt x="623" y="233" on="0"/>
        <pt x="566" y="134" on="0"/>
        <pt x="546" y="104" on="1"/>
        <pt x="498" y="32" on="0"/>
        <pt x="442" y="-22" on="1"/>
        <pt x="452" y="-25" on="0"/>
        <pt x="466" y="-25" on="1"/>
        <pt x="550" y="-25" on="0"/>
        <pt x="660" y="86" on="0"/>
        <pt x="681" y="162" on="1"/>
        <pt x="684" y="173" on="0"/>
        <pt x="697" y="172" on="1"/>
        <pt x="705" y="171" on="0"/>
        <pt x="703" y="164" on="1"/>
        <pt x="681" y="78" on="0"/>
        <pt x="558" y="-51" on="0"/>
        <pt x="465" y="-51" on="1"/>
        <pt x="444" y="-51" on="0"/>
        <pt x="418" y="-44" on="1"/>
        <pt x="326" y="-118" on="0"/>
        <pt x="222" y="-118" on="1"/>
        <pt x="87" y="-118" on="0"/>
        <pt x="30" y="-12" on="1"/>
        <pt x="-1" y="45" on="0"/>
        <pt x="-1" y="111" on="1"/>
        <pt x="-1" y="146" on="0"/>
        <pt x="8" y="184" on="1"/>
        <pt x="32" y="287" on="0"/>
        <pt x="106" y="331" on="1"/>
        <pt x="143" y="353" on="0"/>
        <pt x="187" y="353" on="1"/>
        <pt x="201" y="353" on="0"/>
        <pt x="219" y="336" on="0"/>
        <pt x="223" y="318" on="1"/>
        <pt x="164" y="318" on="0"/>
        <pt x="117" y="276" on="1"/>
        <pt x="38" y="207" on="0"/>
        <pt x="38" y="80" on="1"/>
        <pt x="38" y="3" on="0"/>
        <pt x="131" y="-84" on="0"/>
        <pt x="288" y="-84" on="0"/>
      </contour>
      <contour>
        <pt x="633" y="450" on="1"/>
        <pt x="549" y="450" on="0"/>
        <pt x="415" y="340" on="0"/>
        <pt x="353" y="193" on="0"/>
        <pt x="353" y="43" on="0"/>
        <pt x="391" y="4" on="1"/>
        <pt x="429" y="40" on="0"/>
        <pt x="515" y="157" on="0"/>
        <pt x="565" y="237" on="0"/>
        <pt x="671" y="417" on="0"/>
        <pt x="687" y="443" on="1"/>
        <pt x="663" y="450" on="0"/>
      </contour>
      <contour>
        <pt x="1022" y="765" on="1"/>
        <pt x="942" y="744" on="0"/>
        <pt x="810" y="588" on="0"/>
        <pt x="741" y="459" on="1"/>
        <pt x="838" y="406" on="0"/>
        <pt x="877" y="247" on="1"/>
        <pt x="895" y="417" on="0"/>
        <pt x="976" y="702" on="0"/>
      </contour>
    </TTGlyph>
    <TTGlyph name="Atilde" xMin="-1" yMin="-118" xMax="1155" yMax="946">
      <contour>
        <pt x="966" y="909" on="1"/>
        <pt x="941" y="909" on="0"/>
        <pt x="918" y="868" on="1"/>
        <pt x="886" y="868" on="1"/>
        <pt x="894" y="893" on="0"/>
        <pt x="913" y="911" on="1"/>
        <pt x="950" y="946" on="0"/>
        <pt x="987" y="946" on="1"/>
        <pt x="1005" y="946" on="0"/>
        <pt x="1060" y="899" on="0"/>
        <pt x="1105" y="899" on="0"/>
        <pt x="1125" y="935" on="1"/>
        <pt x="1155" y="935" on="1"/>
        <pt x="1153" y="932" on="0"/>
        <pt x="1148" y="921" on="0"/>
        <pt x="1129" y="894" on="0"/>
        <pt x="1118" y="884" on="1"/>
        <pt x="1091" y="856" on="0"/>
        <pt x="1039" y="856" on="0"/>
        <pt x="980" y="909" on="0"/>
      </contour>
      <contour>
        <pt x="369" y="-14" on="1"/>
        <pt x="320" y="33" on="0"/>
        <pt x="320" y="127" on="1"/>
        <pt x="320" y="232" on="0"/>
        <pt x="389" y="344" on="1"/>
        <pt x="427" y="406" on="0"/>
        <pt x="557" y="486" on="0"/>
        <pt x="634" y="486" on="1"/>
        <pt x="668" y="486" on="0"/>
        <pt x="707" y="474" on="1"/>
        <pt x="783" y="599" on="0"/>
        <pt x="879" y="711" on="0"/>
        <pt x="914" y="740" on="1"/>
        <pt x="993" y="804" on="0"/>
        <pt x="1074" y="804" on="1"/>
        <pt x="1090" y="804" on="0"/>
        <pt x="1090" y="788" on="1"/>
        <pt x="1024" y="643" on="0"/>
        <pt x="953" y="348" on="0"/>
        <pt x="914" y="69" on="0"/>
        <pt x="914" y="-28" on="1"/>
        <pt x="914" y="-42" on="0"/>
        <pt x="900" y="-42" on="1"/>
        <pt x="865" y="-42" on="0"/>
        <pt x="865" y="38" on="1"/>
        <pt x="865" y="139" on="0"/>
        <pt x="846" y="221" on="1"/>
        <pt x="811" y="377" on="0"/>
        <pt x="724" y="427" on="1"/>
        <pt x="713" y="406" on="0"/>
        <pt x="652" y="288" on="0"/>
        <pt x="623" y="233" on="0"/>
        <pt x="566" y="134" on="0"/>
        <pt x="546" y="104" on="1"/>
        <pt x="498" y="32" on="0"/>
        <pt x="442" y="-22" on="1"/>
        <pt x="452" y="-25" on="0"/>
        <pt x="466" y="-25" on="1"/>
        <pt x="550" y="-25" on="0"/>
        <pt x="660" y="86" on="0"/>
        <pt x="681" y="162" on="1"/>
        <pt x="684" y="173" on="0"/>
        <pt x="697" y="172" on="1"/>
        <pt x="705" y="171" on="0"/>
        <pt x="703" y="164" on="1"/>
        <pt x="681" y="78" on="0"/>
        <pt x="558" y="-51" on="0"/>
        <pt x="465" y="-51" on="1"/>
        <pt x="444" y="-51" on="0"/>
        <pt x="418" y="-44" on="1"/>
        <pt x="326" y="-118" on="0"/>
        <pt x="222" y="-118" on="1"/>
        <pt x="87" y="-118" on="0"/>
        <pt x="30" y="-12" on="1"/>
        <pt x="-1" y="45" on="0"/>
        <pt x="-1" y="111" on="1"/>
        <pt x="-1" y="146" on="0"/>
        <pt x="8" y="184" on="1"/>
        <pt x="32" y="287" on="0"/>
        <pt x="106" y="331" on="1"/>
        <pt x="143" y="353" on="0"/>
        <pt x="187" y="353" on="1"/>
        <pt x="201" y="353" on="0"/>
        <pt x="219" y="336" on="0"/>
        <pt x="223" y="318" on="1"/>
        <pt x="164" y="318" on="0"/>
        <pt x="117" y="276" on="1"/>
        <pt x="38" y="207" on="0"/>
        <pt x="38" y="80" on="1"/>
        <pt x="38" y="3" on="0"/>
        <pt x="131" y="-84" on="0"/>
        <pt x="288" y="-84" on="0"/>
      </contour>
      <contour>
        <pt x="633" y="450" on="1"/>
        <pt x="549" y="450" on="0"/>
        <pt x="415" y="340" on="0"/>
        <pt x="353" y="193" on="0"/>
        <pt x="353" y="43" on="0"/>
        <pt x="391" y="4" on="1"/>
        <pt x="429" y="40" on="0"/>
        <pt x="515" y="157" on="0"/>
        <pt x="565" y="237" on="0"/>
        <pt x="671" y="417" on="0"/>
        <pt x="687" y="443" on="1"/>
        <pt x="663" y="450" on="0"/>
      </contour>
      <contour>
        <pt x="1022" y="765" on="1"/>
        <pt x="942" y="744" on="0"/>
        <pt x="810" y="588" on="0"/>
        <pt x="741" y="459" on="1"/>
        <pt x="838" y="406" on="0"/>
        <pt x="877" y="247" on="1"/>
        <pt x="895" y="417" on="0"/>
        <pt x="976" y="702" on="0"/>
      </contour>
    </TTGlyph>
    <TTGlyph name="B" xMin="-2" yMin="-116" xMax="709" yMax="773">
      <contour>
        <pt x="562" y="461" on="1"/>
        <pt x="681" y="423" on="0"/>
        <pt x="681" y="266" on="1"/>
        <pt x="681" y="135" on="0"/>
        <pt x="458" y="-116" on="0"/>
        <pt x="263" y="-116" on="1"/>
        <pt x="110" y="-116" on="0"/>
        <pt x="64" y="-27" on="1"/>
        <pt x="48" y="3" on="0"/>
        <pt x="48" y="66" on="0"/>
        <pt x="64" y="99" on="1"/>
        <pt x="94" y="163" on="0"/>
        <pt x="151" y="163" on="1"/>
        <pt x="156" y="163" on="0"/>
        <pt x="160" y="152" on="0"/>
        <pt x="155" y="140" on="0"/>
        <pt x="150" y="140" on="1"/>
        <pt x="116" y="140" on="0"/>
        <pt x="93" y="96" on="1"/>
        <pt x="77" y="67" on="0"/>
        <pt x="77" y="15" on="0"/>
        <pt x="89" y="-9" on="1"/>
        <pt x="124" y="-77" on="0"/>
        <pt x="245" y="-77" on="1"/>
        <pt x="397" y="-77" on="0"/>
        <pt x="509" y="51" on="1"/>
        <pt x="596" y="149" on="0"/>
        <pt x="616" y="266" on="1"/>
        <pt x="621" y="294" on="0"/>
        <pt x="621" y="318" on="1"/>
        <pt x="621" y="387" on="0"/>
        <pt x="580" y="421" on="1"/>
        <pt x="558" y="439" on="0"/>
        <pt x="526" y="442" on="1"/>
        <pt x="472" y="419" on="0"/>
        <pt x="410" y="419" on="1"/>
        <pt x="403" y="419" on="0"/>
        <pt x="403" y="446" on="0"/>
        <pt x="410" y="446" on="1"/>
        <pt x="511" y="446" on="0"/>
        <pt x="587" y="541" on="1"/>
        <pt x="643" y="612" on="0"/>
        <pt x="647" y="680" on="1"/>
        <pt x="645" y="740" on="0"/>
        <pt x="600" y="743" on="1"/>
        <pt x="551" y="743" on="0"/>
        <pt x="439" y="603" on="0"/>
        <pt x="349" y="403" on="0"/>
        <pt x="274" y="194" on="0"/>
        <pt x="232" y="45" on="0"/>
        <pt x="232" y="19" on="0"/>
        <pt x="218" y="19" on="1"/>
        <pt x="188" y="19" on="0"/>
        <pt x="188" y="99" on="1"/>
        <pt x="188" y="292" on="0"/>
        <pt x="275" y="656" on="0"/>
        <pt x="328" y="717" on="1"/>
        <pt x="185" y="697" on="0"/>
        <pt x="96" y="616" on="1"/>
        <pt x="45" y="571" on="0"/>
        <pt x="45" y="518" on="1"/>
        <pt x="45" y="492" on="0"/>
        <pt x="65" y="492" on="1"/>
        <pt x="61" y="478" on="0"/>
        <pt x="25" y="478" on="0"/>
        <pt x="-2" y="506" on="0"/>
        <pt x="-2" y="531" on="1"/>
        <pt x="-2" y="590" on="0"/>
        <pt x="141" y="691" on="0"/>
        <pt x="307" y="740" on="0"/>
        <pt x="365" y="740" on="1"/>
        <pt x="381" y="740" on="0"/>
        <pt x="381" y="724" on="1"/>
        <pt x="316" y="573" on="0"/>
        <pt x="263" y="283" on="1"/>
        <pt x="271" y="283" on="1"/>
        <pt x="329" y="464" on="0"/>
        <pt x="408" y="607" on="1"/>
        <pt x="450" y="684" on="0"/>
        <pt x="552" y="773" on="0"/>
        <pt x="605" y="773" on="1"/>
        <pt x="689" y="773" on="0"/>
        <pt x="705" y="705" on="1"/>
        <pt x="708" y="691" on="0"/>
        <pt x="708" y="675" on="1"/>
        <pt x="708" y="621" on="0"/>
        <pt x="625" y="498" on="0"/>
      </contour>
    </TTGlyph>
    <TTGlyph name="C" xMin="60" yMin="-122" xMax="652" yMax="774">
      <contour>
        <pt x="579" y="514" on="1"/>
        <pt x="579" y="510" on="0"/>
        <pt x="562" y="508" on="0"/>
        <pt x="545" y="516" on="0"/>
        <pt x="545" y="523" on="1"/>
        <pt x="545" y="625" on="0"/>
        <pt x="591" y="750" on="0"/>
        <pt x="628" y="750" on="1"/>
        <pt x="638" y="750" on="0"/>
        <pt x="652" y="736" on="0"/>
        <pt x="652" y="724" on="1"/>
        <pt x="606" y="678" on="0"/>
        <pt x="587" y="590" on="1"/>
        <pt x="579" y="554" on="0"/>
      </contour>
      <contour>
        <pt x="519" y="726" on="1"/>
        <pt x="381" y="726" on="0"/>
        <pt x="272" y="565" on="1"/>
        <pt x="178" y="426" on="0"/>
        <pt x="149" y="241" on="1"/>
        <pt x="139" y="180" on="0"/>
        <pt x="139" y="129" on="1"/>
        <pt x="139" y="31" on="0"/>
        <pt x="211" y="-88" on="0"/>
        <pt x="276" y="-88" on="1"/>
        <pt x="364" y="-88" on="0"/>
        <pt x="426" y="13" on="1"/>
        <pt x="468" y="81" on="0"/>
        <pt x="468" y="133" on="1"/>
        <pt x="468" y="156" on="0"/>
        <pt x="456" y="156" on="1"/>
        <pt x="462" y="179" on="0"/>
        <pt x="486" y="179" on="1"/>
        <pt x="514" y="179" on="0"/>
        <pt x="514" y="139" on="1"/>
        <pt x="514" y="64" on="0"/>
        <pt x="448" y="-21" on="1"/>
        <pt x="369" y="-122" on="0"/>
        <pt x="263" y="-122" on="1"/>
        <pt x="130" y="-122" on="0"/>
        <pt x="83" y="11" on="1"/>
        <pt x="60" y="73" on="0"/>
        <pt x="60" y="230" on="0"/>
        <pt x="86" y="327" on="1"/>
        <pt x="136" y="519" on="0"/>
        <pt x="373" y="773" on="0"/>
        <pt x="517" y="774" on="1"/>
        <pt x="537" y="774" on="0"/>
        <pt x="555" y="748" on="0"/>
        <pt x="554" y="736" on="1"/>
        <pt x="554" y="723" on="1"/>
        <pt x="546" y="726" on="0"/>
      </contour>
    </TTGlyph>
    <TTGlyph name="Ccedilla" xMin="59" yMin="-316" xMax="652" yMax="774">
      <contour>
        <pt x="519" y="726" on="1"/>
        <pt x="381" y="726" on="0"/>
        <pt x="272" y="565" on="1"/>
        <pt x="178" y="426" on="0"/>
        <pt x="149" y="241" on="1"/>
        <pt x="139" y="180" on="0"/>
        <pt x="139" y="129" on="1"/>
        <pt x="139" y="31" on="0"/>
        <pt x="211" y="-88" on="0"/>
        <pt x="276" y="-88" on="1"/>
        <pt x="364" y="-88" on="0"/>
        <pt x="426" y="13" on="1"/>
        <pt x="468" y="81" on="0"/>
        <pt x="468" y="133" on="1"/>
        <pt x="468" y="156" on="0"/>
        <pt x="456" y="156" on="1"/>
        <pt x="462" y="179" on="0"/>
        <pt x="486" y="179" on="1"/>
        <pt x="514" y="179" on="0"/>
        <pt x="514" y="139" on="1"/>
        <pt x="514" y="64" on="0"/>
        <pt x="448" y="-21" on="1"/>
        <pt x="369" y="-122" on="0"/>
        <pt x="263" y="-122" on="1"/>
        <pt x="245" y="-122" on="0"/>
        <pt x="223" y="-117" on="1"/>
        <pt x="185" y="-186" on="1"/>
        <pt x="211" y="-173" on="0"/>
        <pt x="244" y="-173" on="1"/>
        <pt x="294" y="-173" on="0"/>
        <pt x="304" y="-211" on="1"/>
        <pt x="305" y="-218" on="0"/>
        <pt x="305" y="-226" on="1"/>
        <pt x="305" y="-255" on="0"/>
        <pt x="238" y="-316" on="0"/>
        <pt x="123" y="-316" on="0"/>
        <pt x="117" y="-285" on="1"/>
        <pt x="113" y="-264" on="0"/>
        <pt x="130" y="-255" on="1"/>
        <pt x="134" y="-253" on="0"/>
        <pt x="140" y="-253" on="1"/>
        <pt x="150" y="-253" on="0"/>
        <pt x="154" y="-265" on="1"/>
        <pt x="140" y="-265" on="0"/>
        <pt x="138" y="-280" on="1"/>
        <pt x="136" y="-303" on="0"/>
        <pt x="173" y="-303" on="1"/>
        <pt x="232" y="-303" on="0"/>
        <pt x="260" y="-259" on="1"/>
        <pt x="271" y="-241" on="0"/>
        <pt x="271" y="-213" on="0"/>
        <pt x="252" y="-191" on="0"/>
        <pt x="216" y="-191" on="0"/>
        <pt x="190" y="-198" on="0"/>
        <pt x="172" y="-207" on="0"/>
        <pt x="169" y="-208" on="1"/>
        <pt x="167" y="-208" on="1"/>
        <pt x="157" y="-208" on="0"/>
        <pt x="157" y="-191" on="0"/>
        <pt x="181" y="-143" on="0"/>
        <pt x="203" y="-113" on="1"/>
        <pt x="117" y="-87" on="0"/>
        <pt x="82" y="13" on="1"/>
        <pt x="60" y="74" on="0"/>
        <pt x="60" y="132" on="1"/>
        <pt x="60" y="295" on="0"/>
        <pt x="146" y="487" on="1"/>
        <pt x="200" y="609" on="0"/>
        <pt x="402" y="774" on="0"/>
        <pt x="517" y="774" on="1"/>
        <pt x="537" y="774" on="0"/>
        <pt x="555" y="748" on="0"/>
        <pt x="554" y="736" on="1"/>
        <pt x="554" y="723" on="1"/>
        <pt x="546" y="726" on="0"/>
      </contour>
      <contour>
        <pt x="579" y="514" on="1"/>
        <pt x="579" y="509" on="0"/>
        <pt x="567" y="509" on="1"/>
        <pt x="554" y="512" on="1"/>
        <pt x="545" y="516" on="0"/>
        <pt x="545" y="523" on="1"/>
        <pt x="545" y="625" on="0"/>
        <pt x="591" y="750" on="0"/>
        <pt x="628" y="750" on="1"/>
        <pt x="638" y="750" on="0"/>
        <pt x="652" y="736" on="0"/>
        <pt x="652" y="724" on="1"/>
        <pt x="606" y="678" on="0"/>
        <pt x="587" y="590" on="1"/>
        <pt x="579" y="554" on="0"/>
      </contour>
    </TTGlyph>
    <TTGlyph name="D" xMin="7" yMin="-116" xMax="680" yMax="774">
      <contour>
        <pt x="44" y="478" on="1"/>
        <pt x="7" y="478" on="0"/>
        <pt x="7" y="582" on="0"/>
        <pt x="61" y="646" on="1"/>
        <pt x="151" y="754" on="0"/>
        <pt x="311" y="771" on="1"/>
        <pt x="366" y="774" on="1"/>
        <pt x="548" y="774" on="0"/>
        <pt x="630" y="629" on="1"/>
        <pt x="679" y="540" on="0"/>
        <pt x="679" y="424" on="1"/>
        <pt x="679" y="376" on="0"/>
        <pt x="671" y="323" on="1"/>
        <pt x="642" y="145" on="0"/>
        <pt x="533" y="21" on="1"/>
        <pt x="413" y="-116" on="0"/>
        <pt x="94" y="-116" on="0"/>
        <pt x="51" y="-27" on="1"/>
        <pt x="38" y="1" on="0"/>
        <pt x="38" y="64" on="0"/>
        <pt x="55" y="99" on="1"/>
        <pt x="88" y="163" on="0"/>
        <pt x="145" y="163" on="1"/>
        <pt x="150" y="163" on="0"/>
        <pt x="153" y="152" on="0"/>
        <pt x="148" y="140" on="0"/>
        <pt x="143" y="140" on="1"/>
        <pt x="109" y="140" on="0"/>
        <pt x="84" y="96" on="1"/>
        <pt x="68" y="65" on="0"/>
        <pt x="68" y="13" on="0"/>
        <pt x="78" y="-9" on="1"/>
        <pt x="110" y="-77" on="0"/>
        <pt x="231" y="-77" on="1"/>
        <pt x="368" y="-77" on="0"/>
        <pt x="479" y="63" on="1"/>
        <pt x="579" y="189" on="0"/>
        <pt x="608" y="359" on="1"/>
        <pt x="618" y="414" on="0"/>
        <pt x="618" y="463" on="1"/>
        <pt x="618" y="572" on="0"/>
        <pt x="569" y="647" on="1"/>
        <pt x="504" y="748" on="0"/>
        <pt x="365" y="748" on="1"/>
        <pt x="191" y="748" on="0"/>
        <pt x="104" y="631" on="1"/>
        <pt x="60" y="571" on="0"/>
        <pt x="60" y="519" on="1"/>
        <pt x="60" y="498" on="0"/>
        <pt x="69" y="498" on="1"/>
        <pt x="63" y="478" on="0"/>
      </contour>
      <contour>
        <pt x="188" y="99" on="1"/>
        <pt x="188" y="251" on="0"/>
        <pt x="242" y="538" on="0"/>
        <pt x="321" y="705" on="0"/>
        <pt x="358" y="705" on="1"/>
        <pt x="374" y="705" on="0"/>
        <pt x="374" y="689" on="1"/>
        <pt x="329" y="596" on="0"/>
        <pt x="295" y="441" on="1"/>
        <pt x="232" y="158" on="0"/>
        <pt x="232" y="32" on="1"/>
        <pt x="232" y="19" on="0"/>
        <pt x="218" y="19" on="1"/>
        <pt x="188" y="19" on="0"/>
      </contour>
    </TTGlyph>
    <TTGlyph name="E" xMin="-4" yMin="-152" xMax="656" yMax="785">
      <contour>
        <pt x="477" y="302" on="1"/>
        <pt x="526" y="302" on="0"/>
        <pt x="541" y="237" on="1"/>
        <pt x="547" y="213" on="0"/>
        <pt x="547" y="187" on="1"/>
        <pt x="547" y="126" on="0"/>
        <pt x="516" y="53" on="1"/>
        <pt x="462" y="-73" on="0"/>
        <pt x="353" y="-124" on="1"/>
        <pt x="293" y="-152" on="0"/>
        <pt x="224" y="-152" on="1"/>
        <pt x="76" y="-152" on="0"/>
        <pt x="22" y="-44" on="1"/>
        <pt x="-3" y="6" on="0"/>
        <pt x="-3" y="120" on="0"/>
        <pt x="18" y="182" on="1"/>
        <pt x="64" y="318" on="0"/>
        <pt x="182" y="404" on="1"/>
        <pt x="255" y="456" on="0"/>
        <pt x="343" y="476" on="1"/>
        <pt x="263" y="505" on="0"/>
        <pt x="263" y="647" on="0"/>
        <pt x="405" y="774" on="0"/>
        <pt x="513" y="774" on="1"/>
        <pt x="531" y="774" on="0"/>
        <pt x="549" y="746" on="0"/>
        <pt x="548" y="732" on="1"/>
        <pt x="548" y="719" on="1"/>
        <pt x="540" y="723" on="0"/>
        <pt x="514" y="723" on="1"/>
        <pt x="423" y="723" on="0"/>
        <pt x="361" y="659" on="1"/>
        <pt x="317" y="614" on="0"/>
        <pt x="317" y="570" on="1"/>
        <pt x="317" y="487" on="0"/>
        <pt x="442" y="487" on="1"/>
        <pt x="453" y="487" on="0"/>
        <pt x="468" y="474" on="0"/>
        <pt x="473" y="461" on="1"/>
        <pt x="300" y="461" on="0"/>
        <pt x="183" y="328" on="1"/>
        <pt x="73" y="204" on="0"/>
        <pt x="73" y="52" on="1"/>
        <pt x="73" y="-34" on="0"/>
        <pt x="123" y="-81" on="1"/>
        <pt x="162" y="-119" on="0"/>
        <pt x="225" y="-119" on="1"/>
        <pt x="367" y="-119" on="0"/>
        <pt x="443" y="1" on="1"/>
        <pt x="493" y="79" on="0"/>
        <pt x="493" y="165" on="1"/>
        <pt x="493" y="259" on="0"/>
        <pt x="446" y="276" on="1"/>
        <pt x="438" y="279" on="0"/>
        <pt x="429" y="279" on="1"/>
        <pt x="442" y="302" on="0"/>
      </contour>
      <contour>
        <pt x="583" y="548" on="1"/>
        <pt x="583" y="543" on="0"/>
        <pt x="565" y="543" on="0"/>
        <pt x="548" y="551" on="0"/>
        <pt x="548" y="558" on="1"/>
        <pt x="548" y="660" on="0"/>
        <pt x="594" y="785" on="0"/>
        <pt x="632" y="785" on="1"/>
        <pt x="642" y="785" on="0"/>
        <pt x="656" y="770" on="0"/>
        <pt x="656" y="759" on="1"/>
        <pt x="610" y="713" on="0"/>
        <pt x="591" y="625" on="1"/>
        <pt x="583" y="588" on="0"/>
      </contour>
    </TTGlyph>
    <TTGlyph name="Eacute" xMin="-4" yMin="-152" xMax="656" yMax="965">
      <contour>
        <pt x="620" y="925" on="1"/>
        <pt x="592" y="890" on="0"/>
        <pt x="518" y="822" on="0"/>
        <pt x="498" y="822" on="0"/>
        <pt x="498" y="830" on="1"/>
        <pt x="498" y="842" on="0"/>
        <pt x="543" y="914" on="0"/>
        <pt x="575" y="950" on="1"/>
        <pt x="587" y="964" on="0"/>
        <pt x="608" y="964" on="0"/>
        <pt x="627" y="954" on="0"/>
        <pt x="627" y="936" on="0"/>
      </contour>
      <contour>
        <pt x="477" y="302" on="1"/>
        <pt x="526" y="302" on="0"/>
        <pt x="541" y="237" on="1"/>
        <pt x="547" y="213" on="0"/>
        <pt x="547" y="187" on="1"/>
        <pt x="547" y="126" on="0"/>
        <pt x="516" y="53" on="1"/>
        <pt x="462" y="-73" on="0"/>
        <pt x="353" y="-124" on="1"/>
        <pt x="293" y="-152" on="0"/>
        <pt x="224" y="-152" on="1"/>
        <pt x="76" y="-152" on="0"/>
        <pt x="22" y="-44" on="1"/>
        <pt x="-3" y="6" on="0"/>
        <pt x="-3" y="120" on="0"/>
        <pt x="18" y="182" on="1"/>
        <pt x="64" y="318" on="0"/>
        <pt x="182" y="404" on="1"/>
        <pt x="255" y="456" on="0"/>
        <pt x="343" y="476" on="1"/>
        <pt x="263" y="505" on="0"/>
        <pt x="263" y="647" on="0"/>
        <pt x="405" y="774" on="0"/>
        <pt x="513" y="774" on="1"/>
        <pt x="531" y="774" on="0"/>
        <pt x="549" y="746" on="0"/>
        <pt x="548" y="732" on="1"/>
        <pt x="548" y="719" on="1"/>
        <pt x="540" y="723" on="0"/>
        <pt x="514" y="723" on="1"/>
        <pt x="423" y="723" on="0"/>
        <pt x="361" y="659" on="1"/>
        <pt x="317" y="614" on="0"/>
        <pt x="317" y="570" on="1"/>
        <pt x="317" y="487" on="0"/>
        <pt x="442" y="487" on="1"/>
        <pt x="453" y="487" on="0"/>
        <pt x="468" y="474" on="0"/>
        <pt x="473" y="461" on="1"/>
        <pt x="300" y="461" on="0"/>
        <pt x="183" y="328" on="1"/>
        <pt x="73" y="204" on="0"/>
        <pt x="73" y="52" on="1"/>
        <pt x="73" y="-34" on="0"/>
        <pt x="123" y="-81" on="1"/>
        <pt x="162" y="-119" on="0"/>
        <pt x="225" y="-119" on="1"/>
        <pt x="367" y="-119" on="0"/>
        <pt x="443" y="1" on="1"/>
        <pt x="493" y="79" on="0"/>
        <pt x="493" y="165" on="1"/>
        <pt x="493" y="259" on="0"/>
        <pt x="446" y="276" on="1"/>
        <pt x="438" y="279" on="0"/>
        <pt x="429" y="279" on="1"/>
        <pt x="442" y="302" on="0"/>
      </contour>
      <contour>
        <pt x="583" y="548" on="1"/>
        <pt x="583" y="543" on="0"/>
        <pt x="565" y="543" on="0"/>
        <pt x="548" y="551" on="0"/>
        <pt x="548" y="558" on="1"/>
        <pt x="548" y="660" on="0"/>
        <pt x="594" y="785" on="0"/>
        <pt x="632" y="785" on="1"/>
        <pt x="642" y="785" on="0"/>
        <pt x="656" y="770" on="0"/>
        <pt x="656" y="759" on="1"/>
        <pt x="610" y="713" on="0"/>
        <pt x="591" y="625" on="1"/>
        <pt x="583" y="588" on="0"/>
      </contour>
    </TTGlyph>
    <TTGlyph name="Ecircumflex" xMin="-4" yMin="-152" xMax="656" yMax="950">
      <contour>
        <pt x="528" y="950" on="0"/>
        <pt x="542" y="950" on="0"/>
        <pt x="546" y="942" on="1"/>
        <pt x="606" y="824" on="1"/>
        <pt x="578" y="824" on="1"/>
        <pt x="532" y="901" on="1"/>
        <pt x="402" y="824" on="1"/>
        <pt x="373" y="824" on="1"/>
        <pt x="469" y="904" on="0"/>
        <pt x="517" y="942" on="1"/>
      </contour>
      <contour>
        <pt x="477" y="302" on="1"/>
        <pt x="526" y="302" on="0"/>
        <pt x="541" y="237" on="1"/>
        <pt x="547" y="213" on="0"/>
        <pt x="547" y="187" on="1"/>
        <pt x="547" y="126" on="0"/>
        <pt x="516" y="53" on="1"/>
        <pt x="462" y="-73" on="0"/>
        <pt x="353" y="-124" on="1"/>
        <pt x="293" y="-152" on="0"/>
        <pt x="224" y="-152" on="1"/>
        <pt x="76" y="-152" on="0"/>
        <pt x="22" y="-44" on="1"/>
        <pt x="-3" y="6" on="0"/>
        <pt x="-3" y="120" on="0"/>
        <pt x="18" y="182" on="1"/>
        <pt x="64" y="318" on="0"/>
        <pt x="182" y="404" on="1"/>
        <pt x="255" y="456" on="0"/>
        <pt x="343" y="476" on="1"/>
        <pt x="263" y="505" on="0"/>
        <pt x="263" y="647" on="0"/>
        <pt x="405" y="774" on="0"/>
        <pt x="513" y="774" on="1"/>
        <pt x="531" y="774" on="0"/>
        <pt x="549" y="746" on="0"/>
        <pt x="548" y="732" on="1"/>
        <pt x="548" y="719" on="1"/>
        <pt x="540" y="723" on="0"/>
        <pt x="514" y="723" on="1"/>
        <pt x="423" y="723" on="0"/>
        <pt x="361" y="659" on="1"/>
        <pt x="317" y="614" on="0"/>
        <pt x="317" y="570" on="1"/>
        <pt x="317" y="487" on="0"/>
        <pt x="442" y="487" on="1"/>
        <pt x="453" y="487" on="0"/>
        <pt x="468" y="474" on="0"/>
        <pt x="473" y="461" on="1"/>
        <pt x="300" y="461" on="0"/>
        <pt x="183" y="328" on="1"/>
        <pt x="73" y="204" on="0"/>
        <pt x="73" y="52" on="1"/>
        <pt x="73" y="-34" on="0"/>
        <pt x="123" y="-81" on="1"/>
        <pt x="162" y="-119" on="0"/>
        <pt x="225" y="-119" on="1"/>
        <pt x="367" y="-119" on="0"/>
        <pt x="443" y="1" on="1"/>
        <pt x="493" y="79" on="0"/>
        <pt x="493" y="165" on="1"/>
        <pt x="493" y="259" on="0"/>
        <pt x="446" y="276" on="1"/>
        <pt x="438" y="279" on="0"/>
        <pt x="429" y="279" on="1"/>
        <pt x="442" y="302" on="0"/>
      </contour>
      <contour>
        <pt x="583" y="548" on="1"/>
        <pt x="583" y="543" on="0"/>
        <pt x="565" y="543" on="0"/>
        <pt x="548" y="551" on="0"/>
        <pt x="548" y="558" on="1"/>
        <pt x="548" y="660" on="0"/>
        <pt x="594" y="785" on="0"/>
        <pt x="632" y="785" on="1"/>
        <pt x="642" y="785" on="0"/>
        <pt x="656" y="770" on="0"/>
        <pt x="656" y="759" on="1"/>
        <pt x="610" y="713" on="0"/>
        <pt x="591" y="625" on="1"/>
        <pt x="583" y="588" on="0"/>
      </contour>
    </TTGlyph>
    <TTGlyph name="Edieresis" xMin="-4" yMin="-152" xMax="656" yMax="936">
      <contour>
        <pt x="413" y="819" on="1"/>
        <pt x="392" y="819" on="0"/>
        <pt x="392" y="859" on="1"/>
        <pt x="392" y="883" on="0"/>
        <pt x="417" y="936" on="0"/>
        <pt x="441" y="936" on="1"/>
        <pt x="462" y="936" on="0"/>
        <pt x="462" y="913" on="1"/>
        <pt x="462" y="901" on="0"/>
        <pt x="438" y="854" on="0"/>
        <pt x="426" y="836" on="1"/>
      </contour>
      <contour>
        <pt x="555" y="819" on="1"/>
        <pt x="534" y="819" on="0"/>
        <pt x="534" y="859" on="1"/>
        <pt x="534" y="883" on="0"/>
        <pt x="560" y="936" on="0"/>
        <pt x="584" y="936" on="1"/>
        <pt x="604" y="936" on="0"/>
        <pt x="604" y="913" on="1"/>
        <pt x="604" y="901" on="0"/>
        <pt x="580" y="854" on="0"/>
        <pt x="568" y="836" on="1"/>
      </contour>
      <contour>
        <pt x="477" y="302" on="1"/>
        <pt x="526" y="302" on="0"/>
        <pt x="541" y="237" on="1"/>
        <pt x="547" y="213" on="0"/>
        <pt x="547" y="187" on="1"/>
        <pt x="547" y="126" on="0"/>
        <pt x="516" y="53" on="1"/>
        <pt x="462" y="-73" on="0"/>
        <pt x="353" y="-124" on="1"/>
        <pt x="293" y="-152" on="0"/>
        <pt x="224" y="-152" on="1"/>
        <pt x="76" y="-152" on="0"/>
        <pt x="22" y="-44" on="1"/>
        <pt x="-3" y="6" on="0"/>
        <pt x="-3" y="120" on="0"/>
        <pt x="18" y="182" on="1"/>
        <pt x="64" y="318" on="0"/>
        <pt x="182" y="404" on="1"/>
        <pt x="255" y="456" on="0"/>
        <pt x="343" y="476" on="1"/>
        <pt x="263" y="505" on="0"/>
        <pt x="263" y="647" on="0"/>
        <pt x="405" y="774" on="0"/>
        <pt x="513" y="774" on="1"/>
        <pt x="531" y="774" on="0"/>
        <pt x="549" y="746" on="0"/>
        <pt x="548" y="732" on="1"/>
        <pt x="548" y="719" on="1"/>
        <pt x="540" y="723" on="0"/>
        <pt x="514" y="723" on="1"/>
        <pt x="423" y="723" on="0"/>
        <pt x="361" y="659" on="1"/>
        <pt x="317" y="614" on="0"/>
        <pt x="317" y="570" on="1"/>
        <pt x="317" y="487" on="0"/>
        <pt x="442" y="487" on="1"/>
        <pt x="453" y="487" on="0"/>
        <pt x="468" y="474" on="0"/>
        <pt x="473" y="461" on="1"/>
        <pt x="300" y="461" on="0"/>
        <pt x="183" y="328" on="1"/>
        <pt x="73" y="204" on="0"/>
        <pt x="73" y="52" on="1"/>
        <pt x="73" y="-34" on="0"/>
        <pt x="123" y="-81" on="1"/>
        <pt x="162" y="-119" on="0"/>
        <pt x="225" y="-119" on="1"/>
        <pt x="367" y="-119" on="0"/>
        <pt x="443" y="1" on="1"/>
        <pt x="493" y="79" on="0"/>
        <pt x="493" y="165" on="1"/>
        <pt x="493" y="259" on="0"/>
        <pt x="446" y="276" on="1"/>
        <pt x="438" y="279" on="0"/>
        <pt x="429" y="279" on="1"/>
        <pt x="442" y="302" on="0"/>
      </contour>
      <contour>
        <pt x="583" y="548" on="1"/>
        <pt x="583" y="543" on="0"/>
        <pt x="565" y="543" on="0"/>
        <pt x="548" y="551" on="0"/>
        <pt x="548" y="558" on="1"/>
        <pt x="548" y="660" on="0"/>
        <pt x="594" y="785" on="0"/>
        <pt x="632" y="785" on="1"/>
        <pt x="642" y="785" on="0"/>
        <pt x="656" y="770" on="0"/>
        <pt x="656" y="759" on="1"/>
        <pt x="610" y="713" on="0"/>
        <pt x="591" y="625" on="1"/>
        <pt x="583" y="588" on="0"/>
      </contour>
    </TTGlyph>
    <TTGlyph name="Egrave" xMin="-4" yMin="-152" xMax="656" yMax="980">
      <contour>
        <pt x="453" y="970" on="1"/>
        <pt x="490" y="936" on="0"/>
        <pt x="557" y="853" on="0"/>
        <pt x="557" y="835" on="0"/>
        <pt x="536" y="835" on="0"/>
        <pt x="463" y="887" on="0"/>
        <pt x="425" y="924" on="1"/>
        <pt x="411" y="938" on="0"/>
        <pt x="411" y="959" on="0"/>
        <pt x="423" y="980" on="0"/>
        <pt x="443" y="980" on="0"/>
      </contour>
      <contour>
        <pt x="477" y="302" on="1"/>
        <pt x="526" y="302" on="0"/>
        <pt x="541" y="237" on="1"/>
        <pt x="547" y="213" on="0"/>
        <pt x="547" y="187" on="1"/>
        <pt x="547" y="126" on="0"/>
        <pt x="516" y="53" on="1"/>
        <pt x="462" y="-73" on="0"/>
        <pt x="353" y="-124" on="1"/>
        <pt x="293" y="-152" on="0"/>
        <pt x="224" y="-152" on="1"/>
        <pt x="76" y="-152" on="0"/>
        <pt x="22" y="-44" on="1"/>
        <pt x="-3" y="6" on="0"/>
        <pt x="-3" y="120" on="0"/>
        <pt x="18" y="182" on="1"/>
        <pt x="64" y="318" on="0"/>
        <pt x="182" y="404" on="1"/>
        <pt x="255" y="456" on="0"/>
        <pt x="343" y="476" on="1"/>
        <pt x="263" y="505" on="0"/>
        <pt x="263" y="647" on="0"/>
        <pt x="405" y="774" on="0"/>
        <pt x="513" y="774" on="1"/>
        <pt x="531" y="774" on="0"/>
        <pt x="549" y="746" on="0"/>
        <pt x="548" y="732" on="1"/>
        <pt x="548" y="719" on="1"/>
        <pt x="540" y="723" on="0"/>
        <pt x="514" y="723" on="1"/>
        <pt x="423" y="723" on="0"/>
        <pt x="361" y="659" on="1"/>
        <pt x="317" y="614" on="0"/>
        <pt x="317" y="570" on="1"/>
        <pt x="317" y="487" on="0"/>
        <pt x="442" y="487" on="1"/>
        <pt x="453" y="487" on="0"/>
        <pt x="468" y="474" on="0"/>
        <pt x="473" y="461" on="1"/>
        <pt x="300" y="461" on="0"/>
        <pt x="183" y="328" on="1"/>
        <pt x="73" y="204" on="0"/>
        <pt x="73" y="52" on="1"/>
        <pt x="73" y="-34" on="0"/>
        <pt x="123" y="-81" on="1"/>
        <pt x="162" y="-119" on="0"/>
        <pt x="225" y="-119" on="1"/>
        <pt x="367" y="-119" on="0"/>
        <pt x="443" y="1" on="1"/>
        <pt x="493" y="79" on="0"/>
        <pt x="493" y="165" on="1"/>
        <pt x="493" y="259" on="0"/>
        <pt x="446" y="276" on="1"/>
        <pt x="438" y="279" on="0"/>
        <pt x="429" y="279" on="1"/>
        <pt x="442" y="302" on="0"/>
      </contour>
      <contour>
        <pt x="583" y="548" on="1"/>
        <pt x="583" y="543" on="0"/>
        <pt x="565" y="543" on="0"/>
        <pt x="548" y="551" on="0"/>
        <pt x="548" y="558" on="1"/>
        <pt x="548" y="660" on="0"/>
        <pt x="594" y="785" on="0"/>
        <pt x="632" y="785" on="1"/>
        <pt x="642" y="785" on="0"/>
        <pt x="656" y="770" on="0"/>
        <pt x="656" y="759" on="1"/>
        <pt x="610" y="713" on="0"/>
        <pt x="591" y="625" on="1"/>
        <pt x="583" y="588" on="0"/>
      </contour>
    </TTGlyph>
    <TTGlyph name="Eth" xMin="7" yMin="-116" xMax="680" yMax="774">
      <contour>
        <pt x="44" y="478" on="1"/>
        <pt x="7" y="478" on="0"/>
        <pt x="7" y="582" on="0"/>
        <pt x="61" y="646" on="1"/>
        <pt x="151" y="754" on="0"/>
        <pt x="311" y="771" on="1"/>
        <pt x="366" y="774" on="1"/>
        <pt x="548" y="774" on="0"/>
        <pt x="630" y="629" on="1"/>
        <pt x="679" y="540" on="0"/>
        <pt x="679" y="424" on="1"/>
        <pt x="679" y="376" on="0"/>
        <pt x="671" y="323" on="1"/>
        <pt x="642" y="145" on="0"/>
        <pt x="533" y="21" on="1"/>
        <pt x="413" y="-116" on="0"/>
        <pt x="94" y="-116" on="0"/>
        <pt x="51" y="-27" on="1"/>
        <pt x="38" y="1" on="0"/>
        <pt x="38" y="64" on="0"/>
        <pt x="55" y="99" on="1"/>
        <pt x="88" y="163" on="0"/>
        <pt x="145" y="163" on="1"/>
        <pt x="150" y="163" on="0"/>
        <pt x="153" y="152" on="0"/>
        <pt x="148" y="140" on="0"/>
        <pt x="143" y="140" on="1"/>
        <pt x="109" y="140" on="0"/>
        <pt x="84" y="96" on="1"/>
        <pt x="68" y="65" on="0"/>
        <pt x="68" y="13" on="0"/>
        <pt x="78" y="-9" on="1"/>
        <pt x="110" y="-77" on="0"/>
        <pt x="231" y="-77" on="1"/>
        <pt x="368" y="-77" on="0"/>
        <pt x="479" y="63" on="1"/>
        <pt x="579" y="189" on="0"/>
        <pt x="608" y="359" on="1"/>
        <pt x="618" y="414" on="0"/>
        <pt x="618" y="463" on="1"/>
        <pt x="618" y="572" on="0"/>
        <pt x="569" y="647" on="1"/>
        <pt x="504" y="748" on="0"/>
        <pt x="365" y="748" on="1"/>
        <pt x="191" y="748" on="0"/>
        <pt x="104" y="631" on="1"/>
        <pt x="60" y="571" on="0"/>
        <pt x="60" y="519" on="1"/>
        <pt x="60" y="498" on="0"/>
        <pt x="69" y="498" on="1"/>
        <pt x="63" y="478" on="0"/>
      </contour>
      <contour>
        <pt x="409" y="374" on="1"/>
        <pt x="406" y="374" on="0"/>
        <pt x="279" y="369" on="1"/>
        <pt x="232" y="137" on="0"/>
        <pt x="232" y="32" on="1"/>
        <pt x="232" y="19" on="0"/>
        <pt x="218" y="19" on="1"/>
        <pt x="188" y="19" on="0"/>
        <pt x="188" y="99" on="1"/>
        <pt x="188" y="234" on="0"/>
        <pt x="209" y="366" on="1"/>
        <pt x="145" y="364" on="0"/>
        <pt x="129" y="364" on="1"/>
        <pt x="100" y="364" on="0"/>
        <pt x="96" y="384" on="1"/>
        <pt x="97" y="399" on="0"/>
        <pt x="108" y="402" on="1"/>
        <pt x="112" y="396" on="0"/>
        <pt x="129" y="396" on="1"/>
        <pt x="214" y="396" on="1"/>
        <pt x="239" y="532" on="0"/>
        <pt x="320" y="705" on="0"/>
        <pt x="358" y="705" on="1"/>
        <pt x="374" y="705" on="0"/>
        <pt x="374" y="689" on="1"/>
        <pt x="326" y="589" on="0"/>
        <pt x="285" y="397" on="1"/>
        <pt x="338" y="398" on="0"/>
        <pt x="421" y="398" on="1"/>
        <pt x="429" y="398" on="0"/>
        <pt x="429" y="390" on="1"/>
        <pt x="429" y="374" on="0"/>
      </contour>
    </TTGlyph>
    <TTGlyph name="Euro" xMin="3" yMin="-1" xMax="525" yMax="654">
      <contour>
        <pt x="377" y="243" on="1"/>
        <pt x="376" y="243" on="0"/>
        <pt x="189" y="238" on="1"/>
        <pt x="187" y="215" on="0"/>
        <pt x="187" y="131" on="0"/>
        <pt x="203" y="87" on="1"/>
        <pt x="224" y="28" on="0"/>
        <pt x="274" y="28" on="1"/>
        <pt x="355" y="28" on="0"/>
        <pt x="417" y="129" on="1"/>
        <pt x="428" y="146" on="0"/>
        <pt x="460" y="138" on="0"/>
        <pt x="453" y="128" on="1"/>
        <pt x="372" y="-1" on="0"/>
        <pt x="273" y="-1" on="1"/>
        <pt x="189" y="-1" on="0"/>
        <pt x="114" y="125" on="0"/>
        <pt x="114" y="213" on="1"/>
        <pt x="114" y="224" on="0"/>
        <pt x="115" y="236" on="1"/>
        <pt x="82" y="235" on="0"/>
        <pt x="36" y="235" on="1"/>
        <pt x="7" y="235" on="0"/>
        <pt x="3" y="255" on="1"/>
        <pt x="4" y="270" on="0"/>
        <pt x="15" y="273" on="1"/>
        <pt x="20" y="267" on="0"/>
        <pt x="36" y="267" on="1"/>
        <pt x="117" y="267" on="1"/>
        <pt x="124" y="324" on="0"/>
        <pt x="143" y="385" on="1"/>
        <pt x="106" y="384" on="0"/>
        <pt x="55" y="384" on="1"/>
        <pt x="25" y="384" on="0"/>
        <pt x="22" y="406" on="1"/>
        <pt x="21" y="422" on="0"/>
        <pt x="34" y="423" on="1"/>
        <pt x="38" y="417" on="0"/>
        <pt x="55" y="417" on="1"/>
        <pt x="155" y="417" on="1"/>
        <pt x="195" y="521" on="0"/>
        <pt x="334" y="654" on="0"/>
        <pt x="419" y="654" on="1"/>
        <pt x="473" y="654" on="0"/>
        <pt x="525" y="592" on="0"/>
        <pt x="525" y="534" on="0"/>
        <pt x="504" y="526" on="1"/>
        <pt x="486" y="523" on="0"/>
        <pt x="483" y="540" on="1"/>
        <pt x="483" y="559" on="0"/>
        <pt x="474" y="594" on="0"/>
        <pt x="437" y="628" on="0"/>
        <pt x="406" y="628" on="1"/>
        <pt x="350" y="628" on="0"/>
        <pt x="256" y="510" on="0"/>
        <pt x="225" y="417" on="1"/>
        <pt x="409" y="417" on="1"/>
        <pt x="419" y="417" on="0"/>
        <pt x="414" y="392" on="0"/>
        <pt x="396" y="392" on="1"/>
        <pt x="362" y="392" on="0"/>
        <pt x="216" y="388" on="1"/>
        <pt x="202" y="335" on="0"/>
        <pt x="191" y="267" on="1"/>
        <pt x="390" y="267" on="1"/>
        <pt x="399" y="267" on="0"/>
        <pt x="396" y="243" on="0"/>
      </contour>
    </TTGlyph>
    <TTGlyph name="F" xMin="-3" yMin="-116" xMax="727" yMax="834">
      <contour>
        <pt x="175" y="512" on="1"/>
        <pt x="175" y="438" on="0"/>
        <pt x="217" y="433" on="1"/>
        <pt x="214" y="419" on="0"/>
        <pt x="194" y="419" on="1"/>
        <pt x="153" y="419" on="0"/>
        <pt x="136" y="469" on="1"/>
        <pt x="128" y="492" on="0"/>
        <pt x="128" y="559" on="0"/>
        <pt x="154" y="606" on="1"/>
        <pt x="213" y="715" on="0"/>
        <pt x="368" y="746" on="1"/>
        <pt x="421" y="756" on="0"/>
        <pt x="542" y="756" on="0"/>
        <pt x="628" y="780" on="0"/>
        <pt x="644" y="795" on="1"/>
        <pt x="686" y="834" on="0"/>
        <pt x="726" y="834" on="0"/>
        <pt x="726" y="822" on="1"/>
        <pt x="726" y="819" on="0"/>
        <pt x="726" y="816" on="1"/>
        <pt x="719" y="788" on="0"/>
        <pt x="666" y="763" on="1"/>
        <pt x="634" y="749" on="0"/>
        <pt x="594" y="741" on="1"/>
        <pt x="561" y="727" on="0"/>
        <pt x="517" y="602" on="0"/>
        <pt x="493" y="484" on="1"/>
        <pt x="545" y="489" on="0"/>
        <pt x="579" y="489" on="1"/>
        <pt x="588" y="489" on="0"/>
        <pt x="587" y="478" on="1"/>
        <pt x="583" y="466" on="0"/>
        <pt x="549" y="465" on="0"/>
        <pt x="487" y="455" on="1"/>
        <pt x="440" y="223" on="0"/>
        <pt x="405" y="127" on="1"/>
        <pt x="317" y="-116" on="0"/>
        <pt x="154" y="-116" on="1"/>
        <pt x="37" y="-116" on="0"/>
        <pt x="8" y="-9" on="1"/>
        <pt x="-3" y="28" on="0"/>
        <pt x="-3" y="65" on="1"/>
        <pt x="-3" y="135" on="0"/>
        <pt x="34" y="205" on="1"/>
        <pt x="90" y="312" on="0"/>
        <pt x="181" y="312" on="1"/>
        <pt x="194" y="312" on="0"/>
        <pt x="211" y="300" on="0"/>
        <pt x="214" y="288" on="1"/>
        <pt x="128" y="288" on="0"/>
        <pt x="72" y="199" on="1"/>
        <pt x="28" y="130" on="0"/>
        <pt x="28" y="56" on="1"/>
        <pt x="28" y="-52" on="0"/>
        <pt x="104" y="-76" on="1"/>
        <pt x="122" y="-81" on="0"/>
        <pt x="180" y="-81" on="0"/>
        <pt x="245" y="-48" on="0"/>
        <pt x="298" y="39" on="0"/>
        <pt x="332" y="98" on="0"/>
        <pt x="354" y="174" on="1"/>
        <pt x="380" y="267" on="0"/>
        <pt x="416" y="426" on="0"/>
        <pt x="420" y="442" on="1"/>
        <pt x="364" y="433" on="0"/>
        <pt x="307" y="433" on="0"/>
        <pt x="303" y="458" on="1"/>
        <pt x="302" y="478" on="0"/>
        <pt x="314" y="481" on="1"/>
        <pt x="319" y="475" on="0"/>
        <pt x="372" y="475" on="0"/>
        <pt x="429" y="480" on="1"/>
        <pt x="454" y="578" on="0"/>
        <pt x="500" y="701" on="0"/>
        <pt x="531" y="733" on="1"/>
        <pt x="515" y="732" on="0"/>
        <pt x="481" y="732" on="1"/>
        <pt x="289" y="732" on="0"/>
        <pt x="212" y="619" on="1"/>
        <pt x="175" y="566" on="0"/>
      </contour>
      <contour>
        <pt x="615" y="307" on="1"/>
        <pt x="615" y="302" on="0"/>
        <pt x="597" y="302" on="0"/>
        <pt x="580" y="310" on="0"/>
        <pt x="580" y="317" on="1"/>
        <pt x="580" y="419" on="0"/>
        <pt x="626" y="544" on="0"/>
        <pt x="664" y="544" on="1"/>
        <pt x="674" y="544" on="0"/>
        <pt x="688" y="530" on="0"/>
        <pt x="688" y="518" on="1"/>
        <pt x="643" y="473" on="0"/>
        <pt x="623" y="384" on="1"/>
        <pt x="615" y="347" on="0"/>
      </contour>
    </TTGlyph>
    <TTGlyph name="G" xMin="-22" yMin="-326" xMax="705" yMax="774">
      <contour>
        <pt x="234" y="444" on="1"/>
        <pt x="179" y="457" on="0"/>
        <pt x="146" y="490" on="1"/>
        <pt x="110" y="528" on="0"/>
        <pt x="110" y="579" on="1"/>
        <pt x="110" y="662" on="0"/>
        <pt x="165" y="706" on="1"/>
        <pt x="197" y="731" on="0"/>
        <pt x="237" y="731" on="1"/>
        <pt x="246" y="731" on="0"/>
        <pt x="256" y="720" on="0"/>
        <pt x="257" y="709" on="1"/>
        <pt x="216" y="709" on="0"/>
        <pt x="186" y="677" on="1"/>
        <pt x="148" y="636" on="0"/>
        <pt x="148" y="585" on="1"/>
        <pt x="148" y="554" on="0"/>
        <pt x="190" y="483" on="0"/>
        <pt x="244" y="470" on="1"/>
        <pt x="296" y="600" on="0"/>
        <pt x="455" y="774" on="0"/>
        <pt x="540" y="774" on="1"/>
        <pt x="613" y="774" on="0"/>
        <pt x="625" y="714" on="1"/>
        <pt x="628" y="702" on="0"/>
        <pt x="628" y="690" on="1"/>
        <pt x="628" y="638" on="0"/>
        <pt x="582" y="576" on="1"/>
        <pt x="512" y="480" on="0"/>
        <pt x="389" y="449" on="1"/>
        <pt x="352" y="440" on="0"/>
        <pt x="312" y="438" on="1"/>
        <pt x="268" y="302" on="0"/>
        <pt x="268" y="62" on="0"/>
        <pt x="323" y="62" on="1"/>
        <pt x="361" y="62" on="0"/>
        <pt x="459" y="168" on="0"/>
        <pt x="502" y="246" on="1"/>
        <pt x="586" y="400" on="0"/>
        <pt x="619" y="488" on="1"/>
        <pt x="634" y="525" on="0"/>
        <pt x="663" y="561" on="0"/>
        <pt x="705" y="561" on="0"/>
        <pt x="705" y="538" on="1"/>
        <pt x="669" y="453" on="0"/>
        <pt x="635" y="253" on="1"/>
        <pt x="600" y="65" on="0"/>
        <pt x="564" y="-45" on="0"/>
        <pt x="526" y="-138" on="0"/>
        <pt x="484" y="-199" on="0"/>
        <pt x="425" y="-264" on="0"/>
        <pt x="392" y="-283" on="1"/>
        <pt x="316" y="-326" on="0"/>
        <pt x="222" y="-326" on="1"/>
        <pt x="66" y="-326" on="0"/>
        <pt x="7" y="-222" on="1"/>
        <pt x="-21" y="-175" on="0"/>
        <pt x="-21" y="-90" on="0"/>
        <pt x="-11" y="-56" on="1"/>
        <pt x="13" y="22" on="0"/>
        <pt x="74" y="49" on="1"/>
        <pt x="97" y="58" on="0"/>
        <pt x="115" y="58" on="1"/>
        <pt x="147" y="58" on="0"/>
        <pt x="152" y="38" on="1"/>
        <pt x="153" y="32" on="1"/>
        <pt x="91" y="32" on="0"/>
        <pt x="56" y="-36" on="1"/>
        <pt x="33" y="-80" on="0"/>
        <pt x="33" y="-117" on="1"/>
        <pt x="33" y="-262" on="0"/>
        <pt x="156" y="-295" on="1"/>
        <pt x="186" y="-303" on="0"/>
        <pt x="221" y="-303" on="1"/>
        <pt x="290" y="-303" on="0"/>
        <pt x="399" y="-231" on="0"/>
        <pt x="463" y="-147" on="0"/>
        <pt x="521" y="29" on="0"/>
        <pt x="542" y="123" on="0"/>
        <pt x="563" y="233" on="0"/>
        <pt x="565" y="241" on="0"/>
        <pt x="567" y="252" on="0"/>
        <pt x="570" y="273" on="0"/>
        <pt x="576" y="296" on="1"/>
        <pt x="566" y="296" on="1"/>
        <pt x="506" y="182" on="0"/>
        <pt x="372" y="28" on="0"/>
        <pt x="256" y="28" on="0"/>
        <pt x="225" y="65" on="1"/>
        <pt x="186" y="112" on="0"/>
        <pt x="186" y="314" on="0"/>
      </contour>
      <contour>
        <pt x="540" y="745" on="1"/>
        <pt x="477" y="745" on="0"/>
        <pt x="362" y="586" on="0"/>
        <pt x="321" y="465" on="1"/>
        <pt x="449" y="474" on="0"/>
        <pt x="532" y="568" on="1"/>
        <pt x="590" y="633" on="0"/>
        <pt x="590" y="693" on="1"/>
        <pt x="584" y="742" on="0"/>
      </contour>
    </TTGlyph>
    <TTGlyph name="H" xMin="1" yMin="-116" xMax="935" yMax="804">
      <contour>
        <pt x="445" y="710" on="0"/>
        <pt x="567" y="741" on="0"/>
        <pt x="592" y="741" on="1"/>
        <pt x="625" y="741" on="0"/>
        <pt x="626" y="729" on="1"/>
        <pt x="627" y="725" on="1"/>
        <pt x="606" y="725" on="0"/>
        <pt x="576" y="692" on="0"/>
        <pt x="562" y="643" on="1"/>
        <pt x="546" y="582" on="0"/>
        <pt x="522" y="445" on="0"/>
        <pt x="519" y="431" on="0"/>
        <pt x="516" y="410" on="0"/>
        <pt x="514" y="401" on="1"/>
        <pt x="690" y="416" on="0"/>
        <pt x="748" y="419" on="1"/>
        <pt x="780" y="585" on="0"/>
        <pt x="876" y="804" on="0"/>
        <pt x="919" y="804" on="1"/>
        <pt x="935" y="804" on="0"/>
        <pt x="935" y="788" on="1"/>
        <pt x="869" y="643" on="0"/>
        <pt x="798" y="348" on="0"/>
        <pt x="759" y="69" on="0"/>
        <pt x="759" y="-28" on="1"/>
        <pt x="759" y="-42" on="0"/>
        <pt x="745" y="-42" on="1"/>
        <pt x="710" y="-42" on="0"/>
        <pt x="710" y="38" on="1"/>
        <pt x="710" y="207" on="0"/>
        <pt x="742" y="394" on="1"/>
        <pt x="645" y="383" on="0"/>
        <pt x="536" y="368" on="0"/>
        <pt x="508" y="365" on="1"/>
        <pt x="465" y="129" on="0"/>
        <pt x="412" y="38" on="1"/>
        <pt x="387" y="-5" on="0"/>
        <pt x="355" y="-42" on="1"/>
        <pt x="290" y="-116" on="0"/>
        <pt x="184" y="-116" on="1"/>
        <pt x="106" y="-116" on="0"/>
        <pt x="11" y="-28" on="0"/>
        <pt x="4" y="35" on="1"/>
        <pt x="2" y="56" on="0"/>
        <pt x="2" y="119" on="0"/>
        <pt x="25" y="224" on="0"/>
        <pt x="112" y="312" on="0"/>
        <pt x="168" y="312" on="1"/>
        <pt x="183" y="312" on="0"/>
        <pt x="201" y="294" on="0"/>
        <pt x="204" y="276" on="1"/>
        <pt x="113" y="276" on="0"/>
        <pt x="62" y="187" on="1"/>
        <pt x="28" y="129" on="0"/>
        <pt x="28" y="71" on="1"/>
        <pt x="28" y="40" on="0"/>
        <pt x="38" y="8" on="1"/>
        <pt x="66" y="-81" on="0"/>
        <pt x="169" y="-81" on="1"/>
        <pt x="269" y="-81" on="0"/>
        <pt x="328" y="24" on="1"/>
        <pt x="365" y="91" on="0"/>
        <pt x="385" y="158" on="1"/>
        <pt x="413" y="254" on="0"/>
        <pt x="434" y="356" on="1"/>
        <pt x="402" y="352" on="0"/>
        <pt x="352" y="352" on="0"/>
        <pt x="348" y="377" on="1"/>
        <pt x="344" y="396" on="0"/>
        <pt x="356" y="400" on="1"/>
        <pt x="357" y="401" on="0"/>
        <pt x="359" y="401" on="1"/>
        <pt x="363" y="394" on="0"/>
        <pt x="402" y="394" on="0"/>
        <pt x="443" y="397" on="1"/>
        <pt x="462" y="488" on="0"/>
        <pt x="484" y="581" on="0"/>
        <pt x="528" y="692" on="0"/>
        <pt x="553" y="716" on="1"/>
        <pt x="461" y="699" on="0"/>
        <pt x="381" y="652" on="1"/>
        <pt x="340" y="628" on="0"/>
        <pt x="288" y="558" on="0"/>
        <pt x="288" y="520" on="1"/>
        <pt x="288" y="494" on="0"/>
        <pt x="308" y="494" on="1"/>
        <pt x="304" y="480" on="0"/>
        <pt x="268" y="480" on="0"/>
        <pt x="241" y="508" on="0"/>
        <pt x="241" y="533" on="1"/>
        <pt x="241" y="577" on="0"/>
        <pt x="325" y="659" on="0"/>
      </contour>
    </TTGlyph>
    <TTGlyph name="I" xMin="6" yMin="-116" xMax="609" yMax="762">
      <contour>
        <pt x="589" y="762" on="1"/>
        <pt x="605" y="762" on="0"/>
        <pt x="608" y="750" on="1"/>
        <pt x="609" y="746" on="1"/>
        <pt x="580" y="746" on="0"/>
        <pt x="539" y="672" on="0"/>
        <pt x="519" y="551" on="0"/>
        <pt x="495" y="396" on="0"/>
        <pt x="474" y="234" on="0"/>
        <pt x="428" y="79" on="0"/>
        <pt x="367" y="-42" on="0"/>
        <pt x="259" y="-116" on="0"/>
        <pt x="111" y="-116" on="0"/>
        <pt x="16" y="-28" on="0"/>
        <pt x="9" y="35" on="1"/>
        <pt x="7" y="56" on="0"/>
        <pt x="7" y="119" on="0"/>
        <pt x="30" y="224" on="0"/>
        <pt x="117" y="312" on="0"/>
        <pt x="173" y="312" on="1"/>
        <pt x="188" y="312" on="0"/>
        <pt x="205" y="294" on="0"/>
        <pt x="208" y="276" on="1"/>
        <pt x="118" y="276" on="0"/>
        <pt x="66" y="187" on="1"/>
        <pt x="33" y="129" on="0"/>
        <pt x="33" y="71" on="1"/>
        <pt x="33" y="40" on="0"/>
        <pt x="43" y="8" on="1"/>
        <pt x="71" y="-81" on="0"/>
        <pt x="174" y="-81" on="1"/>
        <pt x="230" y="-81" on="0"/>
        <pt x="315" y="-8" on="0"/>
        <pt x="367" y="115" on="0"/>
        <pt x="405" y="266" on="0"/>
        <pt x="433" y="430" on="0"/>
        <pt x="446" y="503" on="1"/>
        <pt x="479" y="677" on="0"/>
        <pt x="527" y="731" on="1"/>
        <pt x="449" y="704" on="0"/>
        <pt x="322" y="587" on="0"/>
        <pt x="322" y="518" on="1"/>
        <pt x="322" y="487" on="0"/>
        <pt x="343" y="487" on="1"/>
        <pt x="341" y="473" on="0"/>
        <pt x="304" y="473" on="0"/>
        <pt x="275" y="503" on="0"/>
        <pt x="275" y="531" on="1"/>
        <pt x="275" y="590" on="0"/>
        <pt x="392" y="701" on="0"/>
        <pt x="537" y="762" on="0"/>
      </contour>
    </TTGlyph>
    <TTGlyph name="Iacute" xMin="6" yMin="-116" xMax="627" yMax="937">
      <contour>
        <pt x="620" y="896" on="1"/>
        <pt x="592" y="861" on="0"/>
        <pt x="518" y="794" on="0"/>
        <pt x="498" y="794" on="0"/>
        <pt x="498" y="802" on="1"/>
        <pt x="498" y="814" on="0"/>
        <pt x="544" y="887" on="0"/>
        <pt x="587" y="936" on="0"/>
        <pt x="598" y="936" on="1"/>
        <pt x="627" y="936" on="0"/>
        <pt x="627" y="916" on="1"/>
        <pt x="627" y="907" on="0"/>
      </contour>
      <contour>
        <pt x="589" y="762" on="1"/>
        <pt x="605" y="762" on="0"/>
        <pt x="608" y="750" on="1"/>
        <pt x="609" y="746" on="1"/>
        <pt x="580" y="746" on="0"/>
        <pt x="539" y="672" on="0"/>
        <pt x="519" y="551" on="0"/>
        <pt x="495" y="396" on="0"/>
        <pt x="474" y="234" on="0"/>
        <pt x="428" y="79" on="0"/>
        <pt x="367" y="-42" on="0"/>
        <pt x="259" y="-116" on="0"/>
        <pt x="111" y="-116" on="0"/>
        <pt x="16" y="-28" on="0"/>
        <pt x="9" y="35" on="1"/>
        <pt x="7" y="56" on="0"/>
        <pt x="7" y="119" on="0"/>
        <pt x="30" y="224" on="0"/>
        <pt x="117" y="312" on="0"/>
        <pt x="173" y="312" on="1"/>
        <pt x="188" y="312" on="0"/>
        <pt x="205" y="294" on="0"/>
        <pt x="208" y="276" on="1"/>
        <pt x="118" y="276" on="0"/>
        <pt x="66" y="187" on="1"/>
        <pt x="33" y="129" on="0"/>
        <pt x="33" y="71" on="1"/>
        <pt x="33" y="40" on="0"/>
        <pt x="43" y="8" on="1"/>
        <pt x="71" y="-81" on="0"/>
        <pt x="174" y="-81" on="1"/>
        <pt x="230" y="-81" on="0"/>
        <pt x="315" y="-8" on="0"/>
        <pt x="367" y="115" on="0"/>
        <pt x="405" y="266" on="0"/>
        <pt x="433" y="430" on="0"/>
        <pt x="446" y="503" on="1"/>
        <pt x="479" y="677" on="0"/>
        <pt x="527" y="731" on="1"/>
        <pt x="449" y="704" on="0"/>
        <pt x="322" y="587" on="0"/>
        <pt x="322" y="518" on="1"/>
        <pt x="322" y="487" on="0"/>
        <pt x="343" y="487" on="1"/>
        <pt x="341" y="473" on="0"/>
        <pt x="304" y="473" on="0"/>
        <pt x="275" y="503" on="0"/>
        <pt x="275" y="531" on="1"/>
        <pt x="275" y="590" on="0"/>
        <pt x="392" y="701" on="0"/>
        <pt x="537" y="762" on="0"/>
      </contour>
    </TTGlyph>
    <TTGlyph name="Icircumflex" xMin="6" yMin="-116" xMax="635" yMax="922">
      <contour>
        <pt x="554" y="922" on="0"/>
        <pt x="571" y="922" on="0"/>
        <pt x="575" y="914" on="1"/>
        <pt x="635" y="797" on="1"/>
        <pt x="606" y="797" on="1"/>
        <pt x="561" y="873" on="1"/>
        <pt x="431" y="797" on="1"/>
        <pt x="401" y="797" on="1"/>
        <pt x="498" y="877" on="0"/>
        <pt x="546" y="914" on="1"/>
      </contour>
      <contour>
        <pt x="589" y="762" on="1"/>
        <pt x="605" y="762" on="0"/>
        <pt x="608" y="750" on="1"/>
        <pt x="609" y="746" on="1"/>
        <pt x="580" y="746" on="0"/>
        <pt x="539" y="672" on="0"/>
        <pt x="519" y="551" on="0"/>
        <pt x="495" y="396" on="0"/>
        <pt x="474" y="234" on="0"/>
        <pt x="428" y="79" on="0"/>
        <pt x="367" y="-42" on="0"/>
        <pt x="259" y="-116" on="0"/>
        <pt x="111" y="-116" on="0"/>
        <pt x="16" y="-28" on="0"/>
        <pt x="9" y="35" on="1"/>
        <pt x="7" y="56" on="0"/>
        <pt x="7" y="119" on="0"/>
        <pt x="30" y="224" on="0"/>
        <pt x="117" y="312" on="0"/>
        <pt x="173" y="312" on="1"/>
        <pt x="188" y="312" on="0"/>
        <pt x="205" y="294" on="0"/>
        <pt x="208" y="276" on="1"/>
        <pt x="118" y="276" on="0"/>
        <pt x="66" y="187" on="1"/>
        <pt x="33" y="129" on="0"/>
        <pt x="33" y="71" on="1"/>
        <pt x="33" y="40" on="0"/>
        <pt x="43" y="8" on="1"/>
        <pt x="71" y="-81" on="0"/>
        <pt x="174" y="-81" on="1"/>
        <pt x="230" y="-81" on="0"/>
        <pt x="315" y="-8" on="0"/>
        <pt x="367" y="115" on="0"/>
        <pt x="405" y="266" on="0"/>
        <pt x="433" y="430" on="0"/>
        <pt x="446" y="503" on="1"/>
        <pt x="479" y="677" on="0"/>
        <pt x="527" y="731" on="1"/>
        <pt x="449" y="704" on="0"/>
        <pt x="322" y="587" on="0"/>
        <pt x="322" y="518" on="1"/>
        <pt x="322" y="487" on="0"/>
        <pt x="343" y="487" on="1"/>
        <pt x="341" y="473" on="0"/>
        <pt x="304" y="473" on="0"/>
        <pt x="275" y="503" on="0"/>
        <pt x="275" y="531" on="1"/>
        <pt x="275" y="590" on="0"/>
        <pt x="392" y="701" on="0"/>
        <pt x="537" y="762" on="0"/>
      </contour>
    </TTGlyph>
    <TTGlyph name="Idieresis" xMin="6" yMin="-116" xMax="642" yMax="932">
      <contour>
        <pt x="450" y="814" on="1"/>
        <pt x="429" y="814" on="0"/>
        <pt x="429" y="854" on="1"/>
        <pt x="429" y="878" on="0"/>
        <pt x="455" y="932" on="0"/>
        <pt x="479" y="932" on="1"/>
        <pt x="499" y="932" on="0"/>
        <pt x="499" y="909" on="1"/>
        <pt x="499" y="888" on="0"/>
        <pt x="462" y="832" on="1"/>
      </contour>
      <contour>
        <pt x="593" y="814" on="1"/>
        <pt x="572" y="814" on="0"/>
        <pt x="572" y="854" on="1"/>
        <pt x="572" y="878" on="0"/>
        <pt x="597" y="932" on="0"/>
        <pt x="621" y="932" on="1"/>
        <pt x="642" y="932" on="0"/>
        <pt x="642" y="909" on="1"/>
        <pt x="642" y="885" on="0"/>
        <pt x="606" y="832" on="1"/>
      </contour>
      <contour>
        <pt x="589" y="762" on="1"/>
        <pt x="605" y="762" on="0"/>
        <pt x="608" y="750" on="1"/>
        <pt x="609" y="746" on="1"/>
        <pt x="580" y="746" on="0"/>
        <pt x="539" y="672" on="0"/>
        <pt x="519" y="551" on="0"/>
        <pt x="495" y="396" on="0"/>
        <pt x="474" y="234" on="0"/>
        <pt x="428" y="79" on="0"/>
        <pt x="367" y="-42" on="0"/>
        <pt x="259" y="-116" on="0"/>
        <pt x="111" y="-116" on="0"/>
        <pt x="16" y="-28" on="0"/>
        <pt x="9" y="35" on="1"/>
        <pt x="7" y="56" on="0"/>
        <pt x="7" y="119" on="0"/>
        <pt x="30" y="224" on="0"/>
        <pt x="117" y="312" on="0"/>
        <pt x="173" y="312" on="1"/>
        <pt x="188" y="312" on="0"/>
        <pt x="205" y="294" on="0"/>
        <pt x="208" y="276" on="1"/>
        <pt x="118" y="276" on="0"/>
        <pt x="66" y="187" on="1"/>
        <pt x="33" y="129" on="0"/>
        <pt x="33" y="71" on="1"/>
        <pt x="33" y="40" on="0"/>
        <pt x="43" y="8" on="1"/>
        <pt x="71" y="-81" on="0"/>
        <pt x="174" y="-81" on="1"/>
        <pt x="230" y="-81" on="0"/>
        <pt x="315" y="-8" on="0"/>
        <pt x="367" y="115" on="0"/>
        <pt x="405" y="266" on="0"/>
        <pt x="433" y="430" on="0"/>
        <pt x="446" y="503" on="1"/>
        <pt x="479" y="677" on="0"/>
        <pt x="527" y="731" on="1"/>
        <pt x="449" y="704" on="0"/>
        <pt x="322" y="587" on="0"/>
        <pt x="322" y="518" on="1"/>
        <pt x="322" y="487" on="0"/>
        <pt x="343" y="487" on="1"/>
        <pt x="341" y="473" on="0"/>
        <pt x="304" y="473" on="0"/>
        <pt x="275" y="503" on="0"/>
        <pt x="275" y="531" on="1"/>
        <pt x="275" y="590" on="0"/>
        <pt x="392" y="701" on="0"/>
        <pt x="537" y="762" on="0"/>
      </contour>
    </TTGlyph>
    <TTGlyph name="Igrave" xMin="6" yMin="-116" xMax="609" yMax="953">
      <contour>
        <pt x="472" y="943" on="1"/>
        <pt x="509" y="909" on="0"/>
        <pt x="576" y="828" on="0"/>
        <pt x="576" y="808" on="0"/>
        <pt x="553" y="808" on="0"/>
        <pt x="483" y="859" on="0"/>
        <pt x="444" y="897" on="1"/>
        <pt x="429" y="911" on="0"/>
        <pt x="429" y="932" on="0"/>
        <pt x="441" y="952" on="0"/>
        <pt x="461" y="952" on="0"/>
      </contour>
      <contour>
        <pt x="589" y="762" on="1"/>
        <pt x="605" y="762" on="0"/>
        <pt x="608" y="750" on="1"/>
        <pt x="609" y="746" on="1"/>
        <pt x="580" y="746" on="0"/>
        <pt x="539" y="672" on="0"/>
        <pt x="519" y="551" on="0"/>
        <pt x="495" y="396" on="0"/>
        <pt x="474" y="234" on="0"/>
        <pt x="428" y="79" on="0"/>
        <pt x="367" y="-42" on="0"/>
        <pt x="259" y="-116" on="0"/>
        <pt x="111" y="-116" on="0"/>
        <pt x="16" y="-28" on="0"/>
        <pt x="9" y="35" on="1"/>
        <pt x="7" y="56" on="0"/>
        <pt x="7" y="119" on="0"/>
        <pt x="30" y="224" on="0"/>
        <pt x="117" y="312" on="0"/>
        <pt x="173" y="312" on="1"/>
        <pt x="188" y="312" on="0"/>
        <pt x="205" y="294" on="0"/>
        <pt x="208" y="276" on="1"/>
        <pt x="118" y="276" on="0"/>
        <pt x="66" y="187" on="1"/>
        <pt x="33" y="129" on="0"/>
        <pt x="33" y="71" on="1"/>
        <pt x="33" y="40" on="0"/>
        <pt x="43" y="8" on="1"/>
        <pt x="71" y="-81" on="0"/>
        <pt x="174" y="-81" on="1"/>
        <pt x="230" y="-81" on="0"/>
        <pt x="315" y="-8" on="0"/>
        <pt x="367" y="115" on="0"/>
        <pt x="405" y="266" on="0"/>
        <pt x="433" y="430" on="0"/>
        <pt x="446" y="503" on="1"/>
        <pt x="479" y="677" on="0"/>
        <pt x="527" y="731" on="1"/>
        <pt x="449" y="704" on="0"/>
        <pt x="322" y="587" on="0"/>
        <pt x="322" y="518" on="1"/>
        <pt x="322" y="487" on="0"/>
        <pt x="343" y="487" on="1"/>
        <pt x="341" y="473" on="0"/>
        <pt x="304" y="473" on="0"/>
        <pt x="275" y="503" on="0"/>
        <pt x="275" y="531" on="1"/>
        <pt x="275" y="590" on="0"/>
        <pt x="392" y="701" on="0"/>
        <pt x="537" y="762" on="0"/>
      </contour>
    </TTGlyph>
    <TTGlyph name="J" xMin="3" yMin="-228" xMax="755" yMax="762">
      <contour>
        <pt x="226" y="-205" on="1"/>
        <pt x="301" y="-205" on="0"/>
        <pt x="413" y="-116" on="0"/>
        <pt x="479" y="30" on="0"/>
        <pt x="527" y="210" on="0"/>
        <pt x="560" y="403" on="0"/>
        <pt x="576" y="488" on="1"/>
        <pt x="612" y="685" on="0"/>
        <pt x="673" y="739" on="1"/>
        <pt x="532" y="717" on="0"/>
        <pt x="458" y="601" on="1"/>
        <pt x="412" y="530" on="0"/>
        <pt x="412" y="462" on="1"/>
        <pt x="412" y="379" on="0"/>
        <pt x="463" y="372" on="1"/>
        <pt x="467" y="371" on="0"/>
        <pt x="471" y="371" on="1"/>
        <pt x="471" y="364" on="0"/>
        <pt x="465" y="358" on="1"/>
        <pt x="454" y="347" on="0"/>
        <pt x="435" y="347" on="1"/>
        <pt x="376" y="347" on="0"/>
        <pt x="360" y="410" on="1"/>
        <pt x="354" y="431" on="0"/>
        <pt x="354" y="454" on="1"/>
        <pt x="354" y="509" on="0"/>
        <pt x="387" y="572" on="1"/>
        <pt x="447" y="687" on="0"/>
        <pt x="574" y="735" on="1"/>
        <pt x="646" y="762" on="0"/>
        <pt x="731" y="762" on="1"/>
        <pt x="742" y="762" on="0"/>
        <pt x="754" y="752" on="0"/>
        <pt x="755" y="742" on="1"/>
        <pt x="700" y="742" on="0"/>
        <pt x="672" y="620" on="1"/>
        <pt x="660" y="563" on="0"/>
        <pt x="638" y="418" on="0"/>
        <pt x="612" y="257" on="0"/>
        <pt x="578" y="96" on="0"/>
        <pt x="517" y="-49" on="0"/>
        <pt x="436" y="-162" on="0"/>
        <pt x="308" y="-228" on="0"/>
        <pt x="172" y="-228" on="0"/>
        <pt x="86" y="-194" on="0"/>
        <pt x="60" y="-165" on="1"/>
        <pt x="3" y="-100" on="0"/>
        <pt x="3" y="-15" on="1"/>
        <pt x="3" y="78" on="0"/>
        <pt x="39" y="141" on="1"/>
        <pt x="112" y="270" on="0"/>
        <pt x="230" y="270" on="1"/>
        <pt x="251" y="270" on="0"/>
        <pt x="276" y="248" on="0"/>
        <pt x="278" y="238" on="1"/>
        <pt x="280" y="227" on="1"/>
        <pt x="262" y="229" on="0"/>
        <pt x="255" y="229" on="1"/>
        <pt x="147" y="229" on="0"/>
        <pt x="88" y="120" on="1"/>
        <pt x="51" y="53" on="0"/>
        <pt x="51" y="-14" on="1"/>
        <pt x="51" y="-55" on="0"/>
        <pt x="64" y="-96" on="1"/>
        <pt x="101" y="-205" on="0"/>
      </contour>
    </TTGlyph>
    <TTGlyph name="K" xMin="0" yMin="-211" xMax="770" yMax="773">
      <contour>
        <pt x="723" y="-177" on="1"/>
        <pt x="750" y="-177" on="0"/>
        <pt x="763" y="-158" on="1"/>
        <pt x="769" y="-158" on="0"/>
        <pt x="769" y="-168" on="0"/>
        <pt x="764" y="-178" on="1"/>
        <pt x="742" y="-208" on="0"/>
        <pt x="710" y="-211" on="1"/>
        <pt x="660" y="-211" on="0"/>
        <pt x="557" y="-104" on="0"/>
        <pt x="476" y="48" on="0"/>
        <pt x="406" y="201" on="0"/>
        <pt x="350" y="308" on="0"/>
        <pt x="334" y="308" on="1"/>
        <pt x="327" y="315" on="0"/>
        <pt x="344" y="338" on="1"/>
        <pt x="615" y="773" on="0"/>
        <pt x="722" y="773" on="1"/>
        <pt x="736" y="773" on="0"/>
        <pt x="752" y="748" on="0"/>
        <pt x="754" y="724" on="1"/>
        <pt x="711" y="724" on="0"/>
        <pt x="650" y="666" on="1"/>
        <pt x="618" y="634" on="0"/>
        <pt x="569" y="581" on="0"/>
        <pt x="528" y="528" on="1"/>
        <pt x="476" y="461" on="0"/>
        <pt x="398" y="356" on="1"/>
        <pt x="438" y="329" on="0"/>
        <pt x="548" y="71" on="1"/>
        <pt x="588" y="-23" on="0"/>
        <pt x="686" y="-177" on="0"/>
      </contour>
      <contour>
        <pt x="367" y="740" on="1"/>
        <pt x="383" y="740" on="0"/>
        <pt x="383" y="724" on="1"/>
        <pt x="305" y="544" on="0"/>
        <pt x="254" y="221" on="1"/>
        <pt x="234" y="90" on="0"/>
        <pt x="234" y="32" on="1"/>
        <pt x="234" y="19" on="0"/>
        <pt x="220" y="19" on="1"/>
        <pt x="190" y="19" on="0"/>
        <pt x="190" y="99" on="1"/>
        <pt x="190" y="292" on="0"/>
        <pt x="277" y="656" on="0"/>
        <pt x="330" y="717" on="1"/>
        <pt x="187" y="697" on="0"/>
        <pt x="98" y="616" on="1"/>
        <pt x="47" y="571" on="0"/>
        <pt x="47" y="518" on="1"/>
        <pt x="47" y="492" on="0"/>
        <pt x="67" y="492" on="1"/>
        <pt x="63" y="478" on="0"/>
        <pt x="27" y="478" on="0"/>
        <pt x="0" y="506" on="0"/>
        <pt x="0" y="531" on="1"/>
        <pt x="0" y="590" on="0"/>
        <pt x="143" y="691" on="0"/>
        <pt x="309" y="740" on="0"/>
      </contour>
    </TTGlyph>
    <TTGlyph name="L" xMin="-60" yMin="-240" xMax="717" yMax="774">
      <contour>
        <pt x="537" y="728" on="1"/>
        <pt x="492" y="728" on="0"/>
        <pt x="433" y="607" on="0"/>
        <pt x="396" y="414" on="0"/>
        <pt x="357" y="208" on="0"/>
        <pt x="279" y="5" on="0"/>
        <pt x="223" y="-50" on="1"/>
        <pt x="258" y="-64" on="0"/>
        <pt x="396" y="-121" on="0"/>
        <pt x="437" y="-137" on="1"/>
        <pt x="550" y="-181" on="0"/>
        <pt x="606" y="-181" on="1"/>
        <pt x="661" y="-181" on="0"/>
        <pt x="690" y="-146" on="1"/>
        <pt x="697" y="-137" on="0"/>
        <pt x="701" y="-126" on="1"/>
        <pt x="717" y="-126" on="0"/>
        <pt x="717" y="-150" on="1"/>
        <pt x="717" y="-191" on="0"/>
        <pt x="642" y="-240" on="0"/>
        <pt x="548" y="-240" on="0"/>
        <pt x="430" y="-203" on="0"/>
        <pt x="358" y="-171" on="0"/>
        <pt x="203" y="-90" on="0"/>
        <pt x="184" y="-81" on="1"/>
        <pt x="129" y="-117" on="0"/>
        <pt x="-28" y="-117" on="0"/>
        <pt x="-52" y="-73" on="1"/>
        <pt x="-59" y="-61" on="0"/>
        <pt x="-59" y="-32" on="0"/>
        <pt x="-21" y="3" on="0"/>
        <pt x="75" y="3" on="0"/>
        <pt x="178" y="-34" on="1"/>
        <pt x="258" y="56" on="0"/>
        <pt x="306" y="334" on="1"/>
        <pt x="324" y="442" on="0"/>
        <pt x="368" y="645" on="0"/>
        <pt x="451" y="774" on="0"/>
        <pt x="515" y="774" on="1"/>
        <pt x="543" y="774" on="0"/>
        <pt x="572" y="746" on="0"/>
        <pt x="572" y="732" on="1"/>
        <pt x="573" y="718" on="1"/>
        <pt x="563" y="728" on="0"/>
      </contour>
      <contour>
        <pt x="597" y="514" on="1"/>
        <pt x="597" y="510" on="0"/>
        <pt x="580" y="508" on="0"/>
        <pt x="562" y="516" on="0"/>
        <pt x="562" y="523" on="1"/>
        <pt x="562" y="625" on="0"/>
        <pt x="608" y="750" on="0"/>
        <pt x="646" y="750" on="1"/>
        <pt x="656" y="750" on="0"/>
        <pt x="670" y="736" on="0"/>
        <pt x="670" y="724" on="1"/>
        <pt x="624" y="678" on="0"/>
        <pt x="605" y="590" on="1"/>
        <pt x="597" y="554" on="0"/>
      </contour>
      <contour>
        <pt x="-31" y="-52" on="1"/>
        <pt x="-31" y="-70" on="0"/>
        <pt x="20" y="-91" on="0"/>
        <pt x="104" y="-91" on="0"/>
        <pt x="146" y="-62" on="1"/>
        <pt x="58" y="-22" on="0"/>
        <pt x="8" y="-22" on="1"/>
        <pt x="-23" y="-22" on="0"/>
        <pt x="-30" y="-44" on="1"/>
        <pt x="-31" y="-48" on="0"/>
      </contour>
    </TTGlyph>
    <TTGlyph name="M" xMin="-1" yMin="-146" xMax="955" yMax="776">
      <contour>
        <pt x="790" y="23" on="1"/>
        <pt x="790" y="-113" on="0"/>
        <pt x="852" y="-113" on="1"/>
        <pt x="892" y="-113" on="0"/>
        <pt x="919" y="-54" on="1"/>
        <pt x="925" y="-44" on="0"/>
        <pt x="937" y="-48" on="1"/>
        <pt x="942" y="-50" on="0"/>
        <pt x="937" y="-63" on="0"/>
        <pt x="927" y="-82" on="0"/>
        <pt x="914" y="-102" on="1"/>
        <pt x="884" y="-146" on="0"/>
        <pt x="845" y="-146" on="1"/>
        <pt x="724" y="-146" on="0"/>
        <pt x="724" y="46" on="1"/>
        <pt x="724" y="262" on="0"/>
        <pt x="877" y="721" on="1"/>
        <pt x="881" y="733" on="0"/>
        <pt x="864" y="733" on="0"/>
        <pt x="854" y="724" on="1"/>
        <pt x="801" y="674" on="0"/>
        <pt x="690" y="506" on="0"/>
        <pt x="648" y="420" on="1"/>
        <pt x="574" y="271" on="0"/>
        <pt x="539" y="172" on="1"/>
        <pt x="492" y="33" on="0"/>
        <pt x="456" y="33" on="1"/>
        <pt x="435" y="33" on="0"/>
        <pt x="435" y="54" on="1"/>
        <pt x="435" y="55" on="0"/>
        <pt x="436" y="56" on="1"/>
        <pt x="561" y="509" on="0"/>
        <pt x="561" y="625" on="1"/>
        <pt x="561" y="677" on="0"/>
        <pt x="538" y="677" on="1"/>
        <pt x="492" y="677" on="0"/>
        <pt x="294" y="334" on="0"/>
        <pt x="244" y="162" on="1"/>
        <pt x="184" y="-45" on="0"/>
        <pt x="138" y="-45" on="1"/>
        <pt x="117" y="-45" on="0"/>
        <pt x="117" y="-23" on="1"/>
        <pt x="118" y="-20" on="0"/>
        <pt x="128" y="8" on="0"/>
        <pt x="144" y="63" on="0"/>
        <pt x="179" y="182" on="0"/>
        <pt x="191" y="238" on="1"/>
        <pt x="231" y="424" on="0"/>
        <pt x="231" y="506" on="1"/>
        <pt x="231" y="550" on="0"/>
        <pt x="219" y="637" on="0"/>
        <pt x="171" y="691" on="0"/>
        <pt x="132" y="691" on="1"/>
        <pt x="71" y="691" on="0"/>
        <pt x="46" y="640" on="1"/>
        <pt x="38" y="622" on="0"/>
        <pt x="38" y="597" on="0"/>
        <pt x="45" y="597" on="1"/>
        <pt x="42" y="583" on="0"/>
        <pt x="0" y="583" on="0"/>
        <pt x="0" y="610" on="1"/>
        <pt x="0" y="651" on="0"/>
        <pt x="83" y="715" on="0"/>
        <pt x="189" y="715" on="0"/>
        <pt x="252" y="662" on="0"/>
        <pt x="266" y="618" on="1"/>
        <pt x="289" y="545" on="0"/>
        <pt x="289" y="460" on="1"/>
        <pt x="289" y="428" on="0"/>
        <pt x="285" y="394" on="1"/>
        <pt x="295" y="394" on="1"/>
        <pt x="454" y="716" on="0"/>
        <pt x="562" y="716" on="1"/>
        <pt x="624" y="716" on="0"/>
        <pt x="624" y="610" on="1"/>
        <pt x="624" y="559" on="0"/>
        <pt x="601" y="431" on="1"/>
        <pt x="610" y="431" on="1"/>
        <pt x="793" y="776" on="0"/>
        <pt x="910" y="776" on="1"/>
        <pt x="955" y="776" on="0"/>
        <pt x="955" y="726" on="1"/>
        <pt x="924" y="649" on="0"/>
        <pt x="886" y="516" on="1"/>
        <pt x="790" y="187" on="0"/>
      </contour>
    </TTGlyph>
    <TTGlyph name="N" xMin="0" yMin="-146" xMax="693" yMax="776">
      <contour>
        <pt x="528" y="26" on="1"/>
        <pt x="528" y="-113" on="0"/>
        <pt x="590" y="-113" on="1"/>
        <pt x="628" y="-113" on="0"/>
        <pt x="658" y="-54" on="1"/>
        <pt x="663" y="-44" on="0"/>
        <pt x="675" y="-48" on="1"/>
        <pt x="681" y="-50" on="0"/>
        <pt x="675" y="-63" on="0"/>
        <pt x="665" y="-82" on="0"/>
        <pt x="640" y="-121" on="0"/>
        <pt x="603" y="-146" on="0"/>
        <pt x="583" y="-146" on="1"/>
        <pt x="462" y="-146" on="0"/>
        <pt x="462" y="45" on="1"/>
        <pt x="462" y="242" on="0"/>
        <pt x="591" y="658" on="1"/>
        <pt x="607" y="709" on="1"/>
        <pt x="609" y="717" on="0"/>
        <pt x="596" y="717" on="0"/>
        <pt x="590" y="712" on="1"/>
        <pt x="534" y="663" on="0"/>
        <pt x="407" y="472" on="0"/>
        <pt x="354" y="366" on="1"/>
        <pt x="256" y="172" on="0"/>
        <pt x="168" y="-45" on="0"/>
        <pt x="139" y="-45" on="1"/>
        <pt x="118" y="-45" on="0"/>
        <pt x="118" y="-23" on="1"/>
        <pt x="118" y="-21" on="1"/>
        <pt x="130" y="6" on="0"/>
        <pt x="164" y="128" on="1"/>
        <pt x="224" y="341" on="0"/>
        <pt x="232" y="508" on="1"/>
        <pt x="233" y="520" on="0"/>
        <pt x="233" y="530" on="1"/>
        <pt x="233" y="595" on="0"/>
        <pt x="187" y="691" on="0"/>
        <pt x="71" y="691" on="0"/>
        <pt x="46" y="638" on="1"/>
        <pt x="38" y="621" on="0"/>
        <pt x="38" y="597" on="0"/>
        <pt x="45" y="597" on="1"/>
        <pt x="43" y="583" on="0"/>
        <pt x="1" y="583" on="0"/>
        <pt x="1" y="610" on="1"/>
        <pt x="1" y="651" on="0"/>
        <pt x="84" y="715" on="0"/>
        <pt x="145" y="715" on="1"/>
        <pt x="290" y="715" on="0"/>
        <pt x="290" y="451" on="1"/>
        <pt x="290" y="394" on="0"/>
        <pt x="280" y="335" on="1"/>
        <pt x="289" y="335" on="1"/>
        <pt x="521" y="776" on="0"/>
        <pt x="648" y="776" on="1"/>
        <pt x="693" y="776" on="0"/>
        <pt x="693" y="726" on="1"/>
        <pt x="662" y="649" on="0"/>
        <pt x="624" y="516" on="1"/>
        <pt x="528" y="188" on="0"/>
      </contour>
    </TTGlyph>
    <TTGlyph name="Ntilde" xMin="0" yMin="-146" xMax="693" yMax="909">
      <contour>
        <pt x="398" y="871" on="1"/>
        <pt x="373" y="871" on="0"/>
        <pt x="350" y="830" on="1"/>
        <pt x="319" y="830" on="1"/>
        <pt x="327" y="855" on="0"/>
        <pt x="346" y="874" on="1"/>
        <pt x="381" y="909" on="0"/>
        <pt x="419" y="909" on="1"/>
        <pt x="437" y="909" on="0"/>
        <pt x="492" y="862" on="0"/>
        <pt x="524" y="862" on="0"/>
        <pt x="547" y="879" on="0"/>
        <pt x="557" y="897" on="1"/>
        <pt x="587" y="897" on="1"/>
        <pt x="574" y="868" on="0"/>
        <pt x="518" y="819" on="0"/>
        <pt x="471" y="819" on="0"/>
        <pt x="412" y="871" on="0"/>
      </contour>
      <contour>
        <pt x="528" y="26" on="1"/>
        <pt x="528" y="-113" on="0"/>
        <pt x="590" y="-113" on="1"/>
        <pt x="628" y="-113" on="0"/>
        <pt x="658" y="-54" on="1"/>
        <pt x="663" y="-44" on="0"/>
        <pt x="675" y="-48" on="1"/>
        <pt x="681" y="-50" on="0"/>
        <pt x="675" y="-63" on="0"/>
        <pt x="665" y="-82" on="0"/>
        <pt x="640" y="-121" on="0"/>
        <pt x="603" y="-146" on="0"/>
        <pt x="583" y="-146" on="1"/>
        <pt x="462" y="-146" on="0"/>
        <pt x="462" y="45" on="1"/>
        <pt x="462" y="242" on="0"/>
        <pt x="591" y="658" on="1"/>
        <pt x="607" y="709" on="1"/>
        <pt x="609" y="717" on="0"/>
        <pt x="596" y="717" on="0"/>
        <pt x="590" y="712" on="1"/>
        <pt x="534" y="663" on="0"/>
        <pt x="407" y="472" on="0"/>
        <pt x="354" y="366" on="1"/>
        <pt x="256" y="172" on="0"/>
        <pt x="168" y="-45" on="0"/>
        <pt x="139" y="-45" on="1"/>
        <pt x="118" y="-45" on="0"/>
        <pt x="118" y="-23" on="1"/>
        <pt x="118" y="-21" on="1"/>
        <pt x="130" y="6" on="0"/>
        <pt x="164" y="128" on="1"/>
        <pt x="224" y="341" on="0"/>
        <pt x="232" y="508" on="1"/>
        <pt x="233" y="520" on="0"/>
        <pt x="233" y="530" on="1"/>
        <pt x="233" y="595" on="0"/>
        <pt x="187" y="691" on="0"/>
        <pt x="71" y="691" on="0"/>
        <pt x="46" y="638" on="1"/>
        <pt x="38" y="621" on="0"/>
        <pt x="38" y="597" on="0"/>
        <pt x="45" y="597" on="1"/>
        <pt x="43" y="583" on="0"/>
        <pt x="1" y="583" on="0"/>
        <pt x="1" y="610" on="1"/>
        <pt x="1" y="651" on="0"/>
        <pt x="84" y="715" on="0"/>
        <pt x="145" y="715" on="1"/>
        <pt x="290" y="715" on="0"/>
        <pt x="290" y="451" on="1"/>
        <pt x="290" y="394" on="0"/>
        <pt x="280" y="335" on="1"/>
        <pt x="289" y="335" on="1"/>
        <pt x="521" y="776" on="0"/>
        <pt x="648" y="776" on="1"/>
        <pt x="693" y="776" on="0"/>
        <pt x="693" y="726" on="1"/>
        <pt x="662" y="649" on="0"/>
        <pt x="624" y="516" on="1"/>
        <pt x="528" y="188" on="0"/>
      </contour>
    </TTGlyph>
    <TTGlyph name="O" xMin="68" yMin="-58" xMax="617" yMax="774">
      <contour>
        <pt x="564" y="468" on="1"/>
        <pt x="564" y="651" on="0"/>
        <pt x="481" y="651" on="1"/>
        <pt x="481" y="658" on="0"/>
        <pt x="488" y="664" on="1"/>
        <pt x="501" y="675" on="0"/>
        <pt x="520" y="675" on="1"/>
        <pt x="587" y="675" on="0"/>
        <pt x="608" y="571" on="1"/>
        <pt x="617" y="529" on="0"/>
        <pt x="617" y="482" on="1"/>
        <pt x="617" y="393" on="0"/>
        <pt x="586" y="284" on="1"/>
        <pt x="534" y="97" on="0"/>
        <pt x="429" y="5" on="1"/>
        <pt x="357" y="-58" on="0"/>
        <pt x="274" y="-58" on="1"/>
        <pt x="139" y="-58" on="0"/>
        <pt x="91" y="79" on="1"/>
        <pt x="68" y="143" on="0"/>
        <pt x="68" y="299" on="0"/>
        <pt x="90" y="390" on="1"/>
        <pt x="135" y="571" on="0"/>
        <pt x="237" y="680" on="1"/>
        <pt x="325" y="774" on="0"/>
        <pt x="426" y="774" on="1"/>
        <pt x="454" y="774" on="0"/>
        <pt x="484" y="749" on="0"/>
        <pt x="484" y="736" on="1"/>
        <pt x="485" y="724" on="1"/>
        <pt x="475" y="728" on="0"/>
        <pt x="448" y="728" on="1"/>
        <pt x="340" y="728" on="0"/>
        <pt x="173" y="452" on="0"/>
        <pt x="154" y="279" on="1"/>
        <pt x="149" y="235" on="0"/>
        <pt x="149" y="198" on="1"/>
        <pt x="149" y="84" on="0"/>
        <pt x="194" y="23" on="1"/>
        <pt x="230" y="-24" on="0"/>
        <pt x="288" y="-24" on="1"/>
        <pt x="409" y="-24" on="0"/>
        <pt x="564" y="307" on="0"/>
      </contour>
    </TTGlyph>
    <TTGlyph name="OE" xMin="68" yMin="-152" xMax="1145" yMax="785">
      <contour>
        <pt x="564" y="468" on="1"/>
        <pt x="564" y="651" on="0"/>
        <pt x="481" y="651" on="1"/>
        <pt x="481" y="658" on="0"/>
        <pt x="488" y="664" on="1"/>
        <pt x="501" y="675" on="0"/>
        <pt x="520" y="675" on="1"/>
        <pt x="586" y="675" on="0"/>
        <pt x="608" y="572" on="1"/>
        <pt x="617" y="529" on="0"/>
        <pt x="617" y="415" on="0"/>
        <pt x="600" y="341" on="1"/>
        <pt x="695" y="446" on="0"/>
        <pt x="831" y="476" on="1"/>
        <pt x="751" y="505" on="0"/>
        <pt x="751" y="647" on="0"/>
        <pt x="893" y="774" on="0"/>
        <pt x="1001" y="774" on="1"/>
        <pt x="1020" y="774" on="0"/>
        <pt x="1038" y="746" on="0"/>
        <pt x="1038" y="732" on="1"/>
        <pt x="1037" y="719" on="1"/>
        <pt x="1029" y="723" on="0"/>
        <pt x="1002" y="723" on="1"/>
        <pt x="912" y="723" on="0"/>
        <pt x="849" y="659" on="1"/>
        <pt x="806" y="614" on="0"/>
        <pt x="806" y="571" on="1"/>
        <pt x="806" y="487" on="0"/>
        <pt x="931" y="487" on="1"/>
        <pt x="942" y="487" on="0"/>
        <pt x="957" y="474" on="0"/>
        <pt x="961" y="461" on="1"/>
        <pt x="788" y="461" on="0"/>
        <pt x="671" y="328" on="1"/>
        <pt x="562" y="204" on="0"/>
        <pt x="562" y="53" on="1"/>
        <pt x="562" y="-34" on="0"/>
        <pt x="612" y="-81" on="1"/>
        <pt x="651" y="-119" on="0"/>
        <pt x="714" y="-119" on="1"/>
        <pt x="856" y="-119" on="0"/>
        <pt x="932" y="1" on="1"/>
        <pt x="981" y="79" on="0"/>
        <pt x="981" y="166" on="1"/>
        <pt x="981" y="259" on="0"/>
        <pt x="934" y="276" on="1"/>
        <pt x="927" y="279" on="0"/>
        <pt x="918" y="279" on="1"/>
        <pt x="931" y="302" on="0"/>
        <pt x="966" y="302" on="1"/>
        <pt x="1015" y="302" on="0"/>
        <pt x="1030" y="237" on="1"/>
        <pt x="1035" y="213" on="0"/>
        <pt x="1035" y="187" on="1"/>
        <pt x="1035" y="126" on="0"/>
        <pt x="1005" y="53" on="1"/>
        <pt x="951" y="-73" on="0"/>
        <pt x="842" y="-124" on="1"/>
        <pt x="782" y="-152" on="0"/>
        <pt x="713" y="-152" on="1"/>
        <pt x="600" y="-152" on="0"/>
        <pt x="485" y="-28" on="0"/>
        <pt x="486" y="69" on="1"/>
        <pt x="393" y="-58" on="0"/>
        <pt x="274" y="-58" on="1"/>
        <pt x="139" y="-58" on="0"/>
        <pt x="91" y="79" on="1"/>
        <pt x="68" y="143" on="0"/>
        <pt x="68" y="299" on="0"/>
        <pt x="90" y="390" on="1"/>
        <pt x="135" y="571" on="0"/>
        <pt x="237" y="680" on="1"/>
        <pt x="325" y="774" on="0"/>
        <pt x="426" y="774" on="1"/>
        <pt x="454" y="774" on="0"/>
        <pt x="484" y="749" on="0"/>
        <pt x="484" y="736" on="1"/>
        <pt x="485" y="724" on="1"/>
        <pt x="475" y="728" on="0"/>
        <pt x="448" y="728" on="1"/>
        <pt x="340" y="728" on="0"/>
        <pt x="173" y="452" on="0"/>
        <pt x="154" y="279" on="1"/>
        <pt x="149" y="235" on="0"/>
        <pt x="149" y="198" on="1"/>
        <pt x="149" y="84" on="0"/>
        <pt x="194" y="23" on="1"/>
        <pt x="230" y="-24" on="0"/>
        <pt x="288" y="-24" on="1"/>
        <pt x="409" y="-24" on="0"/>
        <pt x="564" y="307" on="0"/>
      </contour>
      <contour>
        <pt x="1072" y="548" on="1"/>
        <pt x="1072" y="543" on="0"/>
        <pt x="1063" y="543" on="1"/>
        <pt x="1037" y="543" on="0"/>
        <pt x="1037" y="558" on="1"/>
        <pt x="1037" y="660" on="0"/>
        <pt x="1083" y="785" on="0"/>
        <pt x="1121" y="785" on="1"/>
        <pt x="1130" y="785" on="0"/>
        <pt x="1145" y="770" on="0"/>
        <pt x="1145" y="759" on="1"/>
        <pt x="1099" y="713" on="0"/>
        <pt x="1080" y="625" on="1"/>
        <pt x="1072" y="588" on="0"/>
      </contour>
    </TTGlyph>
    <TTGlyph name="Oacute" xMin="68" yMin="-58" xMax="617" yMax="969">
      <contour>
        <pt x="575" y="928" on="1"/>
        <pt x="545" y="892" on="0"/>
        <pt x="473" y="826" on="0"/>
        <pt x="453" y="826" on="0"/>
        <pt x="453" y="846" on="0"/>
        <pt x="499" y="919" on="0"/>
        <pt x="542" y="968" on="0"/>
        <pt x="563" y="968" on="0"/>
        <pt x="581" y="959" on="0"/>
        <pt x="581" y="940" on="0"/>
      </contour>
      <contour>
        <pt x="564" y="468" on="1"/>
        <pt x="564" y="651" on="0"/>
        <pt x="481" y="651" on="1"/>
        <pt x="481" y="658" on="0"/>
        <pt x="488" y="664" on="1"/>
        <pt x="501" y="675" on="0"/>
        <pt x="520" y="675" on="1"/>
        <pt x="587" y="675" on="0"/>
        <pt x="608" y="571" on="1"/>
        <pt x="617" y="529" on="0"/>
        <pt x="617" y="482" on="1"/>
        <pt x="617" y="393" on="0"/>
        <pt x="586" y="284" on="1"/>
        <pt x="534" y="97" on="0"/>
        <pt x="429" y="5" on="1"/>
        <pt x="357" y="-58" on="0"/>
        <pt x="274" y="-58" on="1"/>
        <pt x="139" y="-58" on="0"/>
        <pt x="91" y="79" on="1"/>
        <pt x="68" y="143" on="0"/>
        <pt x="68" y="299" on="0"/>
        <pt x="90" y="390" on="1"/>
        <pt x="135" y="571" on="0"/>
        <pt x="237" y="680" on="1"/>
        <pt x="325" y="774" on="0"/>
        <pt x="426" y="774" on="1"/>
        <pt x="454" y="774" on="0"/>
        <pt x="484" y="749" on="0"/>
        <pt x="484" y="736" on="1"/>
        <pt x="485" y="724" on="1"/>
        <pt x="475" y="728" on="0"/>
        <pt x="448" y="728" on="1"/>
        <pt x="340" y="728" on="0"/>
        <pt x="173" y="452" on="0"/>
        <pt x="154" y="279" on="1"/>
        <pt x="149" y="235" on="0"/>
        <pt x="149" y="198" on="1"/>
        <pt x="149" y="84" on="0"/>
        <pt x="194" y="23" on="1"/>
        <pt x="230" y="-24" on="0"/>
        <pt x="288" y="-24" on="1"/>
        <pt x="409" y="-24" on="0"/>
        <pt x="564" y="307" on="0"/>
      </contour>
    </TTGlyph>
    <TTGlyph name="Ocircumflex" xMin="68" yMin="-58" xMax="617" yMax="944">
      <contour>
        <pt x="511" y="944" on="0"/>
        <pt x="528" y="944" on="0"/>
        <pt x="531" y="937" on="1"/>
        <pt x="591" y="820" on="1"/>
        <pt x="562" y="820" on="1"/>
        <pt x="517" y="896" on="1"/>
        <pt x="387" y="820" on="1"/>
        <pt x="358" y="820" on="1"/>
        <pt x="454" y="900" on="0"/>
        <pt x="502" y="937" on="1"/>
      </contour>
      <contour>
        <pt x="564" y="468" on="1"/>
        <pt x="564" y="651" on="0"/>
        <pt x="481" y="651" on="1"/>
        <pt x="481" y="658" on="0"/>
        <pt x="488" y="664" on="1"/>
        <pt x="501" y="675" on="0"/>
        <pt x="520" y="675" on="1"/>
        <pt x="587" y="675" on="0"/>
        <pt x="608" y="571" on="1"/>
        <pt x="617" y="529" on="0"/>
        <pt x="617" y="482" on="1"/>
        <pt x="617" y="393" on="0"/>
        <pt x="586" y="284" on="1"/>
        <pt x="534" y="97" on="0"/>
        <pt x="429" y="5" on="1"/>
        <pt x="357" y="-58" on="0"/>
        <pt x="274" y="-58" on="1"/>
        <pt x="139" y="-58" on="0"/>
        <pt x="91" y="79" on="1"/>
        <pt x="68" y="143" on="0"/>
        <pt x="68" y="299" on="0"/>
        <pt x="90" y="390" on="1"/>
        <pt x="135" y="571" on="0"/>
        <pt x="237" y="680" on="1"/>
        <pt x="325" y="774" on="0"/>
        <pt x="426" y="774" on="1"/>
        <pt x="454" y="774" on="0"/>
        <pt x="484" y="749" on="0"/>
        <pt x="484" y="736" on="1"/>
        <pt x="485" y="724" on="1"/>
        <pt x="475" y="728" on="0"/>
        <pt x="448" y="728" on="1"/>
        <pt x="340" y="728" on="0"/>
        <pt x="173" y="452" on="0"/>
        <pt x="154" y="279" on="1"/>
        <pt x="149" y="235" on="0"/>
        <pt x="149" y="198" on="1"/>
        <pt x="149" y="84" on="0"/>
        <pt x="194" y="23" on="1"/>
        <pt x="230" y="-24" on="0"/>
        <pt x="288" y="-24" on="1"/>
        <pt x="409" y="-24" on="0"/>
        <pt x="564" y="307" on="0"/>
      </contour>
    </TTGlyph>
    <TTGlyph name="Odieresis" xMin="68" yMin="-58" xMax="617" yMax="934">
      <contour>
        <pt x="424" y="816" on="1"/>
        <pt x="403" y="816" on="0"/>
        <pt x="403" y="856" on="1"/>
        <pt x="403" y="880" on="0"/>
        <pt x="428" y="934" on="0"/>
        <pt x="452" y="934" on="1"/>
        <pt x="473" y="934" on="0"/>
        <pt x="473" y="910" on="1"/>
        <pt x="473" y="890" on="0"/>
        <pt x="436" y="834" on="1"/>
      </contour>
      <contour>
        <pt x="566" y="816" on="1"/>
        <pt x="545" y="816" on="0"/>
        <pt x="545" y="856" on="1"/>
        <pt x="545" y="880" on="0"/>
        <pt x="571" y="934" on="0"/>
        <pt x="595" y="934" on="1"/>
        <pt x="615" y="934" on="0"/>
        <pt x="615" y="910" on="1"/>
        <pt x="615" y="890" on="0"/>
        <pt x="578" y="834" on="1"/>
      </contour>
      <contour>
        <pt x="564" y="468" on="1"/>
        <pt x="564" y="651" on="0"/>
        <pt x="481" y="651" on="1"/>
        <pt x="481" y="658" on="0"/>
        <pt x="488" y="664" on="1"/>
        <pt x="501" y="675" on="0"/>
        <pt x="520" y="675" on="1"/>
        <pt x="587" y="675" on="0"/>
        <pt x="608" y="571" on="1"/>
        <pt x="617" y="529" on="0"/>
        <pt x="617" y="482" on="1"/>
        <pt x="617" y="393" on="0"/>
        <pt x="586" y="284" on="1"/>
        <pt x="534" y="97" on="0"/>
        <pt x="429" y="5" on="1"/>
        <pt x="357" y="-58" on="0"/>
        <pt x="274" y="-58" on="1"/>
        <pt x="139" y="-58" on="0"/>
        <pt x="91" y="79" on="1"/>
        <pt x="68" y="143" on="0"/>
        <pt x="68" y="299" on="0"/>
        <pt x="90" y="390" on="1"/>
        <pt x="135" y="571" on="0"/>
        <pt x="237" y="680" on="1"/>
        <pt x="325" y="774" on="0"/>
        <pt x="426" y="774" on="1"/>
        <pt x="454" y="774" on="0"/>
        <pt x="484" y="749" on="0"/>
        <pt x="484" y="736" on="1"/>
        <pt x="485" y="724" on="1"/>
        <pt x="475" y="728" on="0"/>
        <pt x="448" y="728" on="1"/>
        <pt x="340" y="728" on="0"/>
        <pt x="173" y="452" on="0"/>
        <pt x="154" y="279" on="1"/>
        <pt x="149" y="235" on="0"/>
        <pt x="149" y="198" on="1"/>
        <pt x="149" y="84" on="0"/>
        <pt x="194" y="23" on="1"/>
        <pt x="230" y="-24" on="0"/>
        <pt x="288" y="-24" on="1"/>
        <pt x="409" y="-24" on="0"/>
        <pt x="564" y="307" on="0"/>
      </contour>
    </TTGlyph>
    <TTGlyph name="Ograve" xMin="68" yMin="-58" xMax="617" yMax="972">
      <contour>
        <pt x="416" y="962" on="1"/>
        <pt x="453" y="926" on="0"/>
        <pt x="520" y="845" on="0"/>
        <pt x="520" y="827" on="0"/>
        <pt x="498" y="827" on="0"/>
        <pt x="427" y="878" on="0"/>
        <pt x="388" y="916" on="1"/>
        <pt x="373" y="930" on="0"/>
        <pt x="373" y="951" on="0"/>
        <pt x="385" y="971" on="0"/>
        <pt x="405" y="971" on="0"/>
      </contour>
      <contour>
        <pt x="564" y="468" on="1"/>
        <pt x="564" y="651" on="0"/>
        <pt x="481" y="651" on="1"/>
        <pt x="481" y="658" on="0"/>
        <pt x="488" y="664" on="1"/>
        <pt x="501" y="675" on="0"/>
        <pt x="520" y="675" on="1"/>
        <pt x="587" y="675" on="0"/>
        <pt x="608" y="571" on="1"/>
        <pt x="617" y="529" on="0"/>
        <pt x="617" y="482" on="1"/>
        <pt x="617" y="393" on="0"/>
        <pt x="586" y="284" on="1"/>
        <pt x="534" y="97" on="0"/>
        <pt x="429" y="5" on="1"/>
        <pt x="357" y="-58" on="0"/>
        <pt x="274" y="-58" on="1"/>
        <pt x="139" y="-58" on="0"/>
        <pt x="91" y="79" on="1"/>
        <pt x="68" y="143" on="0"/>
        <pt x="68" y="299" on="0"/>
        <pt x="90" y="390" on="1"/>
        <pt x="135" y="571" on="0"/>
        <pt x="237" y="680" on="1"/>
        <pt x="325" y="774" on="0"/>
        <pt x="426" y="774" on="1"/>
        <pt x="454" y="774" on="0"/>
        <pt x="484" y="749" on="0"/>
        <pt x="484" y="736" on="1"/>
        <pt x="485" y="724" on="1"/>
        <pt x="475" y="728" on="0"/>
        <pt x="448" y="728" on="1"/>
        <pt x="340" y="728" on="0"/>
        <pt x="173" y="452" on="0"/>
        <pt x="154" y="279" on="1"/>
        <pt x="149" y="235" on="0"/>
        <pt x="149" y="198" on="1"/>
        <pt x="149" y="84" on="0"/>
        <pt x="194" y="23" on="1"/>
        <pt x="230" y="-24" on="0"/>
        <pt x="288" y="-24" on="1"/>
        <pt x="409" y="-24" on="0"/>
        <pt x="564" y="307" on="0"/>
      </contour>
    </TTGlyph>
    <TTGlyph name="Oslash" xMin="68" yMin="-198" xMax="619" yMax="885">
      <contour>
        <pt x="525" y="674" on="1"/>
        <pt x="619" y="668" on="0"/>
        <pt x="619" y="481" on="1"/>
        <pt x="619" y="318" on="0"/>
        <pt x="447" y="-30" on="0"/>
        <pt x="311" y="-54" on="1"/>
        <pt x="300" y="-90" on="0"/>
        <pt x="272" y="-184" on="0"/>
        <pt x="267" y="-198" on="0"/>
        <pt x="262" y="-198" on="1"/>
        <pt x="259" y="-198" on="0"/>
        <pt x="245" y="-191" on="0"/>
        <pt x="245" y="-169" on="0"/>
        <pt x="248" y="-160" on="1"/>
        <pt x="269" y="-89" on="0"/>
        <pt x="278" y="-58" on="1"/>
        <pt x="274" y="-58" on="1"/>
        <pt x="139" y="-58" on="0"/>
        <pt x="91" y="79" on="1"/>
        <pt x="68" y="143" on="0"/>
        <pt x="68" y="299" on="0"/>
        <pt x="90" y="390" on="1"/>
        <pt x="135" y="571" on="0"/>
        <pt x="237" y="680" on="1"/>
        <pt x="325" y="774" on="0"/>
        <pt x="426" y="774" on="1"/>
        <pt x="454" y="774" on="0"/>
        <pt x="484" y="749" on="0"/>
        <pt x="484" y="736" on="1"/>
        <pt x="485" y="724" on="1"/>
        <pt x="475" y="728" on="0"/>
        <pt x="448" y="728" on="1"/>
        <pt x="340" y="728" on="0"/>
        <pt x="173" y="451" on="0"/>
        <pt x="153" y="278" on="1"/>
        <pt x="148" y="235" on="0"/>
        <pt x="148" y="198" on="1"/>
        <pt x="148" y="84" on="0"/>
        <pt x="194" y="23" on="1"/>
        <pt x="229" y="-23" on="0"/>
        <pt x="287" y="-24" on="1"/>
        <pt x="522" y="807" on="0"/>
        <pt x="539" y="875" on="1"/>
        <pt x="542" y="885" on="0"/>
        <pt x="550" y="885" on="1"/>
        <pt x="553" y="885" on="0"/>
        <pt x="557" y="883" on="1"/>
        <pt x="574" y="877" on="0"/>
        <pt x="574" y="856" on="1"/>
        <pt x="574" y="842" on="0"/>
        <pt x="534" y="706" on="0"/>
      </contour>
      <contour>
        <pt x="486" y="122" on="0"/>
        <pt x="542" y="294" on="0"/>
        <pt x="562" y="430" on="0"/>
        <pt x="562" y="470" on="1"/>
        <pt x="562" y="601" on="0"/>
        <pt x="514" y="639" on="1"/>
        <pt x="417" y="303" on="0"/>
        <pt x="320" y="-20" on="1"/>
        <pt x="382" y="-6" on="0"/>
      </contour>
    </TTGlyph>
    <TTGlyph name="Otilde" xMin="68" yMin="-58" xMax="619" yMax="919">
      <contour>
        <pt x="468" y="919" on="0"/>
        <pt x="524" y="872" on="0"/>
        <pt x="568" y="872" on="0"/>
        <pt x="588" y="908" on="1"/>
        <pt x="619" y="908" on="1"/>
        <pt x="617" y="905" on="0"/>
        <pt x="612" y="894" on="0"/>
        <pt x="592" y="867" on="0"/>
        <pt x="582" y="856" on="1"/>
        <pt x="554" y="829" on="0"/>
        <pt x="502" y="829" on="0"/>
        <pt x="443" y="882" on="0"/>
        <pt x="417" y="882" on="0"/>
        <pt x="393" y="862" on="0"/>
        <pt x="381" y="841" on="1"/>
        <pt x="350" y="841" on="1"/>
        <pt x="366" y="888" on="0"/>
        <pt x="412" y="910" on="1"/>
        <pt x="430" y="919" on="0"/>
      </contour>
      <contour>
        <pt x="564" y="468" on="1"/>
        <pt x="564" y="651" on="0"/>
        <pt x="481" y="651" on="1"/>
        <pt x="481" y="658" on="0"/>
        <pt x="488" y="664" on="1"/>
        <pt x="501" y="675" on="0"/>
        <pt x="520" y="675" on="1"/>
        <pt x="587" y="675" on="0"/>
        <pt x="608" y="571" on="1"/>
        <pt x="617" y="529" on="0"/>
        <pt x="617" y="482" on="1"/>
        <pt x="617" y="393" on="0"/>
        <pt x="586" y="284" on="1"/>
        <pt x="534" y="97" on="0"/>
        <pt x="429" y="5" on="1"/>
        <pt x="357" y="-58" on="0"/>
        <pt x="274" y="-58" on="1"/>
        <pt x="139" y="-58" on="0"/>
        <pt x="91" y="79" on="1"/>
        <pt x="68" y="143" on="0"/>
        <pt x="68" y="299" on="0"/>
        <pt x="90" y="390" on="1"/>
        <pt x="135" y="571" on="0"/>
        <pt x="237" y="680" on="1"/>
        <pt x="325" y="774" on="0"/>
        <pt x="426" y="774" on="1"/>
        <pt x="454" y="774" on="0"/>
        <pt x="484" y="749" on="0"/>
        <pt x="484" y="736" on="1"/>
        <pt x="485" y="724" on="1"/>
        <pt x="475" y="728" on="0"/>
        <pt x="448" y="728" on="1"/>
        <pt x="340" y="728" on="0"/>
        <pt x="173" y="452" on="0"/>
        <pt x="154" y="279" on="1"/>
        <pt x="149" y="235" on="0"/>
        <pt x="149" y="198" on="1"/>
        <pt x="149" y="84" on="0"/>
        <pt x="194" y="23" on="1"/>
        <pt x="230" y="-24" on="0"/>
        <pt x="288" y="-24" on="1"/>
        <pt x="409" y="-24" on="0"/>
        <pt x="564" y="307" on="0"/>
      </contour>
    </TTGlyph>
    <TTGlyph name="P" xMin="-2" yMin="19" xMax="714" yMax="773">
      <contour>
        <pt x="648" y="682" on="1"/>
        <pt x="648" y="743" on="0"/>
        <pt x="600" y="743" on="1"/>
        <pt x="536" y="743" on="0"/>
        <pt x="395" y="528" on="0"/>
        <pt x="297" y="259" on="0"/>
        <pt x="232" y="45" on="0"/>
        <pt x="232" y="19" on="0"/>
        <pt x="218" y="19" on="1"/>
        <pt x="188" y="19" on="0"/>
        <pt x="188" y="99" on="1"/>
        <pt x="188" y="292" on="0"/>
        <pt x="275" y="656" on="0"/>
        <pt x="328" y="717" on="1"/>
        <pt x="185" y="697" on="0"/>
        <pt x="96" y="616" on="1"/>
        <pt x="45" y="571" on="0"/>
        <pt x="45" y="518" on="1"/>
        <pt x="45" y="492" on="0"/>
        <pt x="65" y="492" on="1"/>
        <pt x="61" y="478" on="0"/>
        <pt x="25" y="478" on="0"/>
        <pt x="-2" y="506" on="0"/>
        <pt x="-2" y="531" on="1"/>
        <pt x="-2" y="590" on="0"/>
        <pt x="141" y="691" on="0"/>
        <pt x="307" y="740" on="0"/>
        <pt x="365" y="740" on="1"/>
        <pt x="381" y="740" on="0"/>
        <pt x="381" y="724" on="1"/>
        <pt x="318" y="578" on="0"/>
        <pt x="263" y="282" on="1"/>
        <pt x="271" y="282" on="1"/>
        <pt x="330" y="466" on="0"/>
        <pt x="408" y="607" on="1"/>
        <pt x="450" y="684" on="0"/>
        <pt x="552" y="773" on="0"/>
        <pt x="605" y="773" on="1"/>
        <pt x="713" y="773" on="0"/>
        <pt x="713" y="657" on="1"/>
        <pt x="713" y="587" on="0"/>
        <pt x="664" y="501" on="1"/>
        <pt x="602" y="391" on="0"/>
        <pt x="508" y="345" on="1"/>
        <pt x="458" y="320" on="0"/>
        <pt x="408" y="320" on="1"/>
        <pt x="396" y="320" on="0"/>
        <pt x="383" y="334" on="0"/>
        <pt x="381" y="347" on="1"/>
        <pt x="475" y="347" on="0"/>
        <pt x="559" y="459" on="1"/>
        <pt x="628" y="550" on="0"/>
        <pt x="644" y="645" on="1"/>
        <pt x="648" y="665" on="0"/>
      </contour>
    </TTGlyph>
    <TTGlyph name="Q" xMin="-16" yMin="-240" xMax="756" yMax="774">
      <contour>
        <pt x="643" y="-181" on="1"/>
        <pt x="716" y="-181" on="0"/>
        <pt x="741" y="-126" on="1"/>
        <pt x="756" y="-126" on="0"/>
        <pt x="756" y="-147" on="1"/>
        <pt x="756" y="-189" on="0"/>
        <pt x="711" y="-218" on="1"/>
        <pt x="677" y="-240" on="0"/>
        <pt x="593" y="-240" on="0"/>
        <pt x="523" y="-226" on="0"/>
        <pt x="423" y="-182" on="0"/>
        <pt x="384" y="-164" on="0"/>
        <pt x="252" y="-93" on="0"/>
        <pt x="247" y="-91" on="1"/>
        <pt x="177" y="-117" on="0"/>
        <pt x="12" y="-117" on="0"/>
        <pt x="-10" y="-73" on="1"/>
        <pt x="-16" y="-62" on="0"/>
        <pt x="-16" y="-33" on="0"/>
        <pt x="25" y="3" on="0"/>
        <pt x="64" y="3" on="1"/>
        <pt x="137" y="3" on="0"/>
        <pt x="271" y="-52" on="1"/>
        <pt x="417" y="18" on="0"/>
        <pt x="574" y="353" on="0"/>
        <pt x="574" y="487" on="1"/>
        <pt x="574" y="651" on="0"/>
        <pt x="495" y="651" on="1"/>
        <pt x="495" y="658" on="0"/>
        <pt x="502" y="664" on="1"/>
        <pt x="515" y="675" on="0"/>
        <pt x="534" y="675" on="1"/>
        <pt x="627" y="675" on="0"/>
        <pt x="627" y="505" on="1"/>
        <pt x="627" y="367" on="0"/>
        <pt x="458" y="15" on="0"/>
        <pt x="305" y="-66" on="1"/>
        <pt x="441" y="-124" on="0"/>
        <pt x="484" y="-140" on="1"/>
        <pt x="590" y="-181" on="0"/>
      </contour>
      <contour>
        <pt x="374" y="149" on="0"/>
        <pt x="412" y="239" on="0"/>
        <pt x="412" y="300" on="0"/>
        <pt x="456" y="319" on="0"/>
        <pt x="461" y="304" on="1"/>
        <pt x="462" y="297" on="1"/>
        <pt x="462" y="256" on="0"/>
        <pt x="407" y="138" on="0"/>
        <pt x="299" y="39" on="0"/>
        <pt x="240" y="39" on="1"/>
        <pt x="125" y="39" on="0"/>
        <pt x="92" y="159" on="1"/>
        <pt x="79" y="203" on="0"/>
        <pt x="79" y="338" on="0"/>
        <pt x="112" y="440" on="1"/>
        <pt x="167" y="607" on="0"/>
        <pt x="271" y="701" on="1"/>
        <pt x="354" y="774" on="0"/>
        <pt x="443" y="774" on="1"/>
        <pt x="471" y="774" on="0"/>
        <pt x="500" y="749" on="0"/>
        <pt x="500" y="736" on="1"/>
        <pt x="500" y="724" on="1"/>
        <pt x="491" y="728" on="0"/>
        <pt x="464" y="728" on="1"/>
        <pt x="355" y="728" on="0"/>
        <pt x="265" y="586" on="1"/>
        <pt x="185" y="460" on="0"/>
        <pt x="164" y="304" on="1"/>
        <pt x="159" y="263" on="0"/>
        <pt x="159" y="228" on="1"/>
        <pt x="159" y="138" on="0"/>
        <pt x="197" y="97" on="1"/>
        <pt x="220" y="73" on="0"/>
        <pt x="298" y="73" on="0"/>
      </contour>
      <contour>
        <pt x="53" y="-22" on="1"/>
        <pt x="22" y="-22" on="0"/>
        <pt x="14" y="-44" on="1"/>
        <pt x="12" y="-49" on="0"/>
        <pt x="12" y="-53" on="1"/>
        <pt x="12" y="-70" on="0"/>
        <pt x="61" y="-91" on="0"/>
        <pt x="157" y="-91" on="0"/>
        <pt x="213" y="-74" on="1"/>
        <pt x="107" y="-22" on="0"/>
      </contour>
    </TTGlyph>
    <TTGlyph name="R" xMin="-2" yMin="-142" xMax="768" yMax="773">
      <contour>
        <pt x="649" y="682" on="1"/>
        <pt x="649" y="743" on="0"/>
        <pt x="600" y="743" on="1"/>
        <pt x="548" y="743" on="0"/>
        <pt x="433" y="600" on="0"/>
        <pt x="345" y="397" on="0"/>
        <pt x="272" y="186" on="0"/>
        <pt x="232" y="41" on="0"/>
        <pt x="232" y="32" on="1"/>
        <pt x="232" y="19" on="0"/>
        <pt x="218" y="19" on="1"/>
        <pt x="188" y="19" on="0"/>
        <pt x="188" y="99" on="1"/>
        <pt x="188" y="292" on="0"/>
        <pt x="275" y="656" on="0"/>
        <pt x="328" y="717" on="1"/>
        <pt x="185" y="697" on="0"/>
        <pt x="96" y="616" on="1"/>
        <pt x="45" y="571" on="0"/>
        <pt x="45" y="518" on="1"/>
        <pt x="45" y="492" on="0"/>
        <pt x="65" y="492" on="1"/>
        <pt x="61" y="478" on="0"/>
        <pt x="25" y="478" on="0"/>
        <pt x="-2" y="506" on="0"/>
        <pt x="-2" y="531" on="1"/>
        <pt x="-2" y="590" on="0"/>
        <pt x="141" y="691" on="0"/>
        <pt x="307" y="740" on="0"/>
        <pt x="365" y="740" on="1"/>
        <pt x="381" y="740" on="0"/>
        <pt x="381" y="724" on="1"/>
        <pt x="311" y="562" on="0"/>
        <pt x="262" y="272" on="1"/>
        <pt x="269" y="272" on="1"/>
        <pt x="313" y="417" on="0"/>
        <pt x="407" y="610" on="0"/>
        <pt x="477" y="709" on="0"/>
        <pt x="562" y="773" on="0"/>
        <pt x="605" y="773" on="1"/>
        <pt x="693" y="773" on="0"/>
        <pt x="710" y="697" on="1"/>
        <pt x="714" y="680" on="0"/>
        <pt x="714" y="661" on="1"/>
        <pt x="714" y="600" on="0"/>
        <pt x="672" y="528" on="1"/>
        <pt x="612" y="425" on="0"/>
        <pt x="511" y="384" on="1"/>
        <pt x="473" y="372" on="1"/>
        <pt x="502" y="369" on="0"/>
        <pt x="567" y="218" on="0"/>
        <pt x="617" y="39" on="0"/>
        <pt x="687" y="-109" on="0"/>
        <pt x="721" y="-109" on="1"/>
        <pt x="748" y="-109" on="0"/>
        <pt x="761" y="-90" on="1"/>
        <pt x="768" y="-90" on="0"/>
        <pt x="768" y="-100" on="0"/>
        <pt x="762" y="-109" on="1"/>
        <pt x="740" y="-139" on="0"/>
        <pt x="708" y="-142" on="1"/>
        <pt x="656" y="-142" on="0"/>
        <pt x="559" y="0" on="0"/>
        <pt x="499" y="173" on="0"/>
        <pt x="432" y="345" on="0"/>
        <pt x="409" y="365" on="1"/>
        <pt x="398" y="365" on="0"/>
        <pt x="385" y="378" on="0"/>
        <pt x="384" y="392" on="1"/>
        <pt x="490" y="392" on="0"/>
        <pt x="574" y="498" on="1"/>
        <pt x="649" y="593" on="0"/>
      </contour>
    </TTGlyph>
    <TTGlyph name="S" xMin="4" yMin="-159" xMax="586" yMax="774">
      <contour>
        <pt x="49" y="-41" on="1"/>
        <pt x="49" y="-115" on="0"/>
        <pt x="127" y="-130" on="1"/>
        <pt x="142" y="-133" on="0"/>
        <pt x="161" y="-133" on="1"/>
        <pt x="286" y="-133" on="0"/>
        <pt x="432" y="28" on="0"/>
        <pt x="432" y="150" on="1"/>
        <pt x="432" y="198" on="0"/>
        <pt x="397" y="279" on="0"/>
        <pt x="345" y="332" on="0"/>
        <pt x="284" y="386" on="0"/>
        <pt x="232" y="430" on="0"/>
        <pt x="197" y="492" on="0"/>
        <pt x="197" y="527" on="1"/>
        <pt x="197" y="619" on="0"/>
        <pt x="362" y="774" on="0"/>
        <pt x="457" y="774" on="1"/>
        <pt x="476" y="774" on="0"/>
        <pt x="494" y="746" on="0"/>
        <pt x="494" y="732" on="1"/>
        <pt x="493" y="719" on="1"/>
        <pt x="486" y="723" on="0"/>
        <pt x="458" y="723" on="1"/>
        <pt x="394" y="723" on="0"/>
        <pt x="274" y="603" on="0"/>
        <pt x="274" y="524" on="1"/>
        <pt x="274" y="492" on="0"/>
        <pt x="309" y="431" on="0"/>
        <pt x="361" y="385" on="0"/>
        <pt x="421" y="328" on="0"/>
        <pt x="473" y="273" on="0"/>
        <pt x="508" y="194" on="0"/>
        <pt x="508" y="150" on="1"/>
        <pt x="508" y="29" on="0"/>
        <pt x="308" y="-159" on="0"/>
        <pt x="161" y="-159" on="1"/>
        <pt x="37" y="-159" on="0"/>
        <pt x="4" y="-79" on="1"/>
        <pt x="-22" y="-13" on="0"/>
        <pt x="70" y="147" on="0"/>
        <pt x="157" y="175" on="1"/>
        <pt x="189" y="185" on="0"/>
        <pt x="239" y="185" on="0"/>
        <pt x="258" y="168" on="0"/>
        <pt x="261" y="150" on="1"/>
        <pt x="167" y="150" on="0"/>
        <pt x="100" y="74" on="1"/>
        <pt x="49" y="17" on="0"/>
      </contour>
      <contour>
        <pt x="513" y="512" on="1"/>
        <pt x="513" y="507" on="0"/>
        <pt x="494" y="507" on="0"/>
        <pt x="478" y="515" on="0"/>
        <pt x="478" y="522" on="1"/>
        <pt x="478" y="624" on="0"/>
        <pt x="524" y="748" on="0"/>
        <pt x="562" y="748" on="1"/>
        <pt x="572" y="748" on="0"/>
        <pt x="586" y="734" on="0"/>
        <pt x="586" y="723" on="1"/>
        <pt x="541" y="678" on="0"/>
        <pt x="521" y="588" on="1"/>
        <pt x="513" y="552" on="0"/>
      </contour>
    </TTGlyph>
    <TTGlyph name="Scaron" xMin="4" yMin="-159" xMax="602" yMax="975">
      <contour>
        <pt x="367" y="975" on="1"/>
        <pt x="395" y="975" on="1"/>
        <pt x="460" y="899" on="1"/>
        <pt x="571" y="975" on="1"/>
        <pt x="602" y="975" on="1"/>
        <pt x="505" y="895" on="0"/>
        <pt x="457" y="857" on="1"/>
        <pt x="436" y="840" on="0"/>
        <pt x="426" y="857" on="1"/>
      </contour>
      <contour>
        <pt x="49" y="-41" on="1"/>
        <pt x="49" y="-115" on="0"/>
        <pt x="127" y="-130" on="1"/>
        <pt x="142" y="-133" on="0"/>
        <pt x="161" y="-133" on="1"/>
        <pt x="286" y="-133" on="0"/>
        <pt x="432" y="28" on="0"/>
        <pt x="432" y="150" on="1"/>
        <pt x="432" y="198" on="0"/>
        <pt x="397" y="279" on="0"/>
        <pt x="345" y="332" on="0"/>
        <pt x="284" y="386" on="0"/>
        <pt x="232" y="430" on="0"/>
        <pt x="197" y="492" on="0"/>
        <pt x="197" y="527" on="1"/>
        <pt x="197" y="619" on="0"/>
        <pt x="362" y="774" on="0"/>
        <pt x="457" y="774" on="1"/>
        <pt x="476" y="774" on="0"/>
        <pt x="494" y="746" on="0"/>
        <pt x="494" y="732" on="1"/>
        <pt x="493" y="719" on="1"/>
        <pt x="486" y="723" on="0"/>
        <pt x="458" y="723" on="1"/>
        <pt x="394" y="723" on="0"/>
        <pt x="274" y="603" on="0"/>
        <pt x="274" y="524" on="1"/>
        <pt x="274" y="492" on="0"/>
        <pt x="309" y="431" on="0"/>
        <pt x="361" y="385" on="0"/>
        <pt x="421" y="328" on="0"/>
        <pt x="473" y="273" on="0"/>
        <pt x="508" y="194" on="0"/>
        <pt x="508" y="150" on="1"/>
        <pt x="508" y="29" on="0"/>
        <pt x="308" y="-159" on="0"/>
        <pt x="161" y="-159" on="1"/>
        <pt x="37" y="-159" on="0"/>
        <pt x="4" y="-79" on="1"/>
        <pt x="-22" y="-13" on="0"/>
        <pt x="70" y="147" on="0"/>
        <pt x="157" y="175" on="1"/>
        <pt x="189" y="185" on="0"/>
        <pt x="239" y="185" on="0"/>
        <pt x="258" y="168" on="0"/>
        <pt x="261" y="150" on="1"/>
        <pt x="167" y="150" on="0"/>
        <pt x="100" y="74" on="1"/>
        <pt x="49" y="17" on="0"/>
      </contour>
      <contour>
        <pt x="513" y="512" on="1"/>
        <pt x="513" y="507" on="0"/>
        <pt x="494" y="507" on="0"/>
        <pt x="478" y="515" on="0"/>
        <pt x="478" y="522" on="1"/>
        <pt x="478" y="624" on="0"/>
        <pt x="524" y="748" on="0"/>
        <pt x="562" y="748" on="1"/>
        <pt x="572" y="748" on="0"/>
        <pt x="586" y="734" on="0"/>
        <pt x="586" y="723" on="1"/>
        <pt x="541" y="678" on="0"/>
        <pt x="521" y="588" on="1"/>
        <pt x="513" y="552" on="0"/>
      </contour>
    </TTGlyph>
    <TTGlyph name="T" xMin="1" yMin="-116" xMax="802" yMax="860">
      <contour>
        <pt x="167" y="511" on="1"/>
        <pt x="167" y="440" on="0"/>
        <pt x="209" y="433" on="1"/>
        <pt x="206" y="419" on="0"/>
        <pt x="186" y="419" on="1"/>
        <pt x="145" y="419" on="0"/>
        <pt x="128" y="468" on="1"/>
        <pt x="120" y="491" on="0"/>
        <pt x="120" y="557" on="0"/>
        <pt x="146" y="604" on="1"/>
        <pt x="206" y="713" on="0"/>
        <pt x="366" y="745" on="1"/>
        <pt x="423" y="756" on="0"/>
        <pt x="559" y="756" on="0"/>
        <pt x="670" y="788" on="0"/>
        <pt x="723" y="828" on="0"/>
        <pt x="770" y="860" on="0"/>
        <pt x="801" y="860" on="0"/>
        <pt x="801" y="846" on="1"/>
        <pt x="801" y="813" on="0"/>
        <pt x="671" y="745" on="0"/>
        <pt x="567" y="735" on="1"/>
        <pt x="524" y="712" on="0"/>
        <pt x="500" y="572" on="1"/>
        <pt x="473" y="411" on="0"/>
        <pt x="437" y="207" on="0"/>
        <pt x="388" y="62" on="0"/>
        <pt x="326" y="-49" on="0"/>
        <pt x="225" y="-116" on="0"/>
        <pt x="90" y="-116" on="0"/>
        <pt x="48" y="-72" on="1"/>
        <pt x="2" y="-24" on="0"/>
        <pt x="2" y="58" on="1"/>
        <pt x="2" y="195" on="0"/>
        <pt x="75" y="268" on="1"/>
        <pt x="119" y="312" on="0"/>
        <pt x="173" y="312" on="1"/>
        <pt x="186" y="312" on="0"/>
        <pt x="203" y="300" on="0"/>
        <pt x="206" y="288" on="1"/>
        <pt x="121" y="288" on="0"/>
        <pt x="68" y="200" on="1"/>
        <pt x="29" y="135" on="0"/>
        <pt x="29" y="65" on="1"/>
        <pt x="29" y="-50" on="0"/>
        <pt x="108" y="-75" on="1"/>
        <pt x="126" y="-81" on="0"/>
        <pt x="147" y="-81" on="1"/>
        <pt x="209" y="-81" on="0"/>
        <pt x="302" y="21" on="0"/>
        <pt x="351" y="177" on="0"/>
        <pt x="396" y="372" on="0"/>
        <pt x="426" y="548" on="0"/>
        <pt x="477" y="701" on="0"/>
        <pt x="510" y="732" on="1"/>
        <pt x="490" y="732" on="1"/>
        <pt x="285" y="732" on="0"/>
        <pt x="204" y="617" on="1"/>
        <pt x="167" y="565" on="0"/>
      </contour>
    </TTGlyph>
    <TTGlyph name="Thorn" xMin="-41" yMin="-17" xMax="565" yMax="773">
      <contour>
        <pt x="57" y="417" on="1"/>
        <pt x="21" y="402" on="0"/>
        <pt x="-6" y="363" on="0"/>
        <pt x="-6" y="352" on="1"/>
        <pt x="-6" y="312" on="0"/>
        <pt x="53" y="305" on="1"/>
        <pt x="86" y="489" on="0"/>
        <pt x="117" y="620" on="1"/>
        <pt x="125" y="657" on="0"/>
        <pt x="151" y="694" on="0"/>
        <pt x="164" y="694" on="1"/>
        <pt x="180" y="694" on="0"/>
        <pt x="179" y="676" on="1"/>
        <pt x="158" y="571" on="0"/>
        <pt x="102" y="305" on="1"/>
        <pt x="114" y="306" on="0"/>
        <pt x="138" y="310" on="1"/>
        <pt x="188" y="471" on="0"/>
        <pt x="235" y="567" on="1"/>
        <pt x="283" y="665" on="0"/>
        <pt x="331" y="712" on="1"/>
        <pt x="393" y="773" on="0"/>
        <pt x="458" y="773" on="1"/>
        <pt x="542" y="773" on="0"/>
        <pt x="560" y="700" on="1"/>
        <pt x="565" y="682" on="0"/>
        <pt x="565" y="662" on="1"/>
        <pt x="565" y="598" on="0"/>
        <pt x="518" y="520" on="1"/>
        <pt x="445" y="397" on="0"/>
        <pt x="309" y="331" on="1"/>
        <pt x="238" y="296" on="0"/>
        <pt x="159" y="284" on="1"/>
        <pt x="149" y="257" on="0"/>
        <pt x="122" y="178" on="0"/>
        <pt x="105" y="129" on="0"/>
        <pt x="83" y="69" on="0"/>
        <pt x="67" y="32" on="0"/>
        <pt x="58" y="15" on="1"/>
        <pt x="42" y="-17" on="0"/>
        <pt x="30" y="-17" on="1"/>
        <pt x="9" y="-17" on="0"/>
        <pt x="9" y="64" on="0"/>
        <pt x="48" y="279" on="1"/>
        <pt x="4" y="283" on="0"/>
        <pt x="-41" y="322" on="0"/>
        <pt x="-41" y="370" on="0"/>
        <pt x="5" y="424" on="0"/>
        <pt x="45" y="443" on="1"/>
      </contour>
      <contour>
        <pt x="493" y="685" on="1"/>
        <pt x="493" y="737" on="0"/>
        <pt x="453" y="740" on="1"/>
        <pt x="370" y="740" on="0"/>
        <pt x="294" y="602" on="1"/>
        <pt x="231" y="485" on="0"/>
        <pt x="170" y="316" on="1"/>
        <pt x="315" y="353" on="0"/>
        <pt x="414" y="489" on="1"/>
        <pt x="485" y="586" on="0"/>
        <pt x="493" y="671" on="1"/>
        <pt x="493" y="678" on="0"/>
      </contour>
      <contour>
        <pt x="85" y="175" on="1"/>
        <pt x="96" y="175" on="0"/>
        <pt x="128" y="280" on="1"/>
        <pt x="96" y="278" on="1"/>
        <pt x="78" y="188" on="0"/>
        <pt x="79" y="175" on="0"/>
      </contour>
    </TTGlyph>
    <TTGlyph name="U" xMin="35" yMin="-146" xMax="743" yMax="773">
      <contour>
        <pt x="611" y="36" on="1"/>
        <pt x="611" y="-113" on="0"/>
        <pt x="664" y="-113" on="1"/>
        <pt x="692" y="-113" on="0"/>
        <pt x="721" y="-54" on="1"/>
        <pt x="726" y="-44" on="0"/>
        <pt x="742" y="-49" on="0"/>
        <pt x="742" y="-56" on="0"/>
        <pt x="722" y="-100" on="0"/>
        <pt x="679" y="-146" on="0"/>
        <pt x="657" y="-146" on="1"/>
        <pt x="553" y="-146" on="0"/>
        <pt x="553" y="61" on="1"/>
        <pt x="553" y="169" on="0"/>
        <pt x="572" y="290" on="1"/>
        <pt x="562" y="290" on="1"/>
        <pt x="409" y="0" on="0"/>
        <pt x="326" y="0" on="1"/>
        <pt x="225" y="0" on="0"/>
        <pt x="225" y="120" on="1"/>
        <pt x="225" y="168" on="0"/>
        <pt x="284" y="363" on="0"/>
        <pt x="344" y="571" on="0"/>
        <pt x="344" y="628" on="1"/>
        <pt x="344" y="748" on="0"/>
        <pt x="246" y="748" on="1"/>
        <pt x="155" y="748" on="0"/>
        <pt x="110" y="644" on="1"/>
        <pt x="80" y="574" on="0"/>
        <pt x="80" y="504" on="1"/>
        <pt x="80" y="470" on="0"/>
        <pt x="87" y="436" on="1"/>
        <pt x="109" y="332" on="0"/>
        <pt x="180" y="332" on="1"/>
        <pt x="173" y="318" on="0"/>
        <pt x="161" y="318" on="1"/>
        <pt x="71" y="318" on="0"/>
        <pt x="44" y="432" on="1"/>
        <pt x="35" y="468" on="0"/>
        <pt x="35" y="504" on="1"/>
        <pt x="35" y="581" on="0"/>
        <pt x="74" y="659" on="1"/>
        <pt x="132" y="773" on="0"/>
        <pt x="245" y="773" on="1"/>
        <pt x="332" y="773" on="0"/>
        <pt x="411" y="676" on="0"/>
        <pt x="411" y="521" on="0"/>
        <pt x="299" y="150" on="0"/>
        <pt x="299" y="35" on="0"/>
        <pt x="338" y="35" on="1"/>
        <pt x="370" y="35" on="0"/>
        <pt x="434" y="133" on="1"/>
        <pt x="539" y="296" on="0"/>
        <pt x="618" y="486" on="1"/>
        <pt x="649" y="561" on="0"/>
        <pt x="683" y="561" on="1"/>
        <pt x="705" y="561" on="0"/>
        <pt x="705" y="538" on="1"/>
        <pt x="662" y="436" on="0"/>
        <pt x="611" y="147" on="0"/>
      </contour>
    </TTGlyph>
    <TTGlyph name="Uacute" xMin="35" yMin="-146" xMax="743" yMax="843">
      <contour>
        <pt x="681" y="803" on="1"/>
        <pt x="651" y="767" on="0"/>
        <pt x="577" y="700" on="0"/>
        <pt x="558" y="700" on="0"/>
        <pt x="558" y="719" on="0"/>
        <pt x="603" y="792" on="0"/>
        <pt x="635" y="828" on="1"/>
        <pt x="648" y="843" on="0"/>
        <pt x="669" y="843" on="0"/>
        <pt x="676" y="838" on="1"/>
        <pt x="688" y="832" on="0"/>
        <pt x="688" y="814" on="0"/>
      </contour>
      <contour>
        <pt x="611" y="147" on="0"/>
        <pt x="611" y="36" on="1"/>
        <pt x="611" y="-113" on="0"/>
        <pt x="664" y="-113" on="1"/>
        <pt x="692" y="-113" on="0"/>
        <pt x="721" y="-54" on="1"/>
        <pt x="726" y="-44" on="0"/>
        <pt x="742" y="-49" on="0"/>
        <pt x="742" y="-56" on="0"/>
        <pt x="722" y="-100" on="0"/>
        <pt x="679" y="-146" on="0"/>
        <pt x="657" y="-146" on="1"/>
        <pt x="553" y="-146" on="0"/>
        <pt x="553" y="61" on="1"/>
        <pt x="553" y="169" on="0"/>
        <pt x="572" y="290" on="1"/>
        <pt x="562" y="290" on="1"/>
        <pt x="409" y="0" on="0"/>
        <pt x="326" y="0" on="1"/>
        <pt x="225" y="0" on="0"/>
        <pt x="225" y="120" on="1"/>
        <pt x="225" y="168" on="0"/>
        <pt x="284" y="363" on="0"/>
        <pt x="344" y="571" on="0"/>
        <pt x="344" y="628" on="1"/>
        <pt x="344" y="748" on="0"/>
        <pt x="246" y="748" on="1"/>
        <pt x="155" y="748" on="0"/>
        <pt x="110" y="644" on="1"/>
        <pt x="80" y="574" on="0"/>
        <pt x="80" y="504" on="1"/>
        <pt x="80" y="470" on="0"/>
        <pt x="87" y="436" on="1"/>
        <pt x="109" y="332" on="0"/>
        <pt x="180" y="332" on="1"/>
        <pt x="173" y="318" on="0"/>
        <pt x="161" y="318" on="1"/>
        <pt x="71" y="318" on="0"/>
        <pt x="44" y="432" on="1"/>
        <pt x="35" y="468" on="0"/>
        <pt x="35" y="504" on="1"/>
        <pt x="35" y="581" on="0"/>
        <pt x="74" y="659" on="1"/>
        <pt x="132" y="773" on="0"/>
        <pt x="245" y="773" on="1"/>
        <pt x="332" y="773" on="0"/>
        <pt x="411" y="676" on="0"/>
        <pt x="411" y="521" on="0"/>
        <pt x="299" y="150" on="0"/>
        <pt x="299" y="35" on="0"/>
        <pt x="338" y="35" on="1"/>
        <pt x="370" y="35" on="0"/>
        <pt x="434" y="133" on="1"/>
        <pt x="539" y="296" on="0"/>
        <pt x="618" y="486" on="1"/>
        <pt x="649" y="561" on="0"/>
        <pt x="683" y="561" on="1"/>
        <pt x="705" y="561" on="0"/>
        <pt x="705" y="538" on="1"/>
        <pt x="662" y="436" on="0"/>
      </contour>
    </TTGlyph>
    <TTGlyph name="Ucircumflex" xMin="35" yMin="-146" xMax="743" yMax="866">
      <contour>
        <pt x="607" y="866" on="0"/>
        <pt x="624" y="866" on="0"/>
        <pt x="627" y="859" on="1"/>
        <pt x="687" y="741" on="1"/>
        <pt x="659" y="741" on="1"/>
        <pt x="613" y="818" on="1"/>
        <pt x="483" y="741" on="1"/>
        <pt x="454" y="741" on="1"/>
        <pt x="550" y="821" on="0"/>
        <pt x="598" y="859" on="1"/>
      </contour>
      <contour>
        <pt x="611" y="36" on="1"/>
        <pt x="611" y="-113" on="0"/>
        <pt x="664" y="-113" on="1"/>
        <pt x="692" y="-113" on="0"/>
        <pt x="721" y="-54" on="1"/>
        <pt x="726" y="-44" on="0"/>
        <pt x="742" y="-49" on="0"/>
        <pt x="742" y="-56" on="0"/>
        <pt x="722" y="-100" on="0"/>
        <pt x="679" y="-146" on="0"/>
        <pt x="657" y="-146" on="1"/>
        <pt x="553" y="-146" on="0"/>
        <pt x="553" y="61" on="1"/>
        <pt x="553" y="169" on="0"/>
        <pt x="572" y="290" on="1"/>
        <pt x="562" y="290" on="1"/>
        <pt x="409" y="0" on="0"/>
        <pt x="326" y="0" on="1"/>
        <pt x="225" y="0" on="0"/>
        <pt x="225" y="120" on="1"/>
        <pt x="225" y="168" on="0"/>
        <pt x="284" y="363" on="0"/>
        <pt x="344" y="571" on="0"/>
        <pt x="344" y="628" on="1"/>
        <pt x="344" y="748" on="0"/>
        <pt x="246" y="748" on="1"/>
        <pt x="155" y="748" on="0"/>
        <pt x="110" y="644" on="1"/>
        <pt x="80" y="574" on="0"/>
        <pt x="80" y="504" on="1"/>
        <pt x="80" y="470" on="0"/>
        <pt x="87" y="436" on="1"/>
        <pt x="109" y="332" on="0"/>
        <pt x="180" y="332" on="1"/>
        <pt x="173" y="318" on="0"/>
        <pt x="161" y="318" on="1"/>
        <pt x="71" y="318" on="0"/>
        <pt x="44" y="432" on="1"/>
        <pt x="35" y="468" on="0"/>
        <pt x="35" y="504" on="1"/>
        <pt x="35" y="581" on="0"/>
        <pt x="74" y="659" on="1"/>
        <pt x="132" y="773" on="0"/>
        <pt x="245" y="773" on="1"/>
        <pt x="332" y="773" on="0"/>
        <pt x="411" y="676" on="0"/>
        <pt x="411" y="521" on="0"/>
        <pt x="299" y="150" on="0"/>
        <pt x="299" y="35" on="0"/>
        <pt x="338" y="35" on="1"/>
        <pt x="370" y="35" on="0"/>
        <pt x="434" y="133" on="1"/>
        <pt x="539" y="296" on="0"/>
        <pt x="618" y="486" on="1"/>
        <pt x="649" y="561" on="0"/>
        <pt x="683" y="561" on="1"/>
        <pt x="705" y="561" on="0"/>
        <pt x="705" y="538" on="1"/>
        <pt x="662" y="436" on="0"/>
        <pt x="611" y="147" on="0"/>
      </contour>
    </TTGlyph>
    <TTGlyph name="Udieresis" xMin="35" yMin="-146" xMax="743" yMax="829">
      <contour>
        <pt x="488" y="712" on="1"/>
        <pt x="467" y="712" on="0"/>
        <pt x="467" y="752" on="1"/>
        <pt x="467" y="775" on="0"/>
        <pt x="492" y="829" on="0"/>
        <pt x="516" y="829" on="1"/>
        <pt x="537" y="829" on="0"/>
        <pt x="537" y="806" on="1"/>
        <pt x="537" y="786" on="0"/>
        <pt x="500" y="730" on="1"/>
      </contour>
      <contour>
        <pt x="630" y="712" on="1"/>
        <pt x="609" y="712" on="0"/>
        <pt x="609" y="751" on="1"/>
        <pt x="609" y="775" on="0"/>
        <pt x="635" y="829" on="0"/>
        <pt x="659" y="829" on="1"/>
        <pt x="679" y="829" on="0"/>
        <pt x="679" y="806" on="1"/>
        <pt x="679" y="786" on="0"/>
        <pt x="642" y="730" on="1"/>
      </contour>
      <contour>
        <pt x="611" y="36" on="1"/>
        <pt x="611" y="-113" on="0"/>
        <pt x="664" y="-113" on="1"/>
        <pt x="692" y="-113" on="0"/>
        <pt x="721" y="-54" on="1"/>
        <pt x="726" y="-44" on="0"/>
        <pt x="742" y="-49" on="0"/>
        <pt x="742" y="-56" on="0"/>
        <pt x="722" y="-100" on="0"/>
        <pt x="679" y="-146" on="0"/>
        <pt x="657" y="-146" on="1"/>
        <pt x="553" y="-146" on="0"/>
        <pt x="553" y="61" on="1"/>
        <pt x="553" y="169" on="0"/>
        <pt x="572" y="290" on="1"/>
        <pt x="562" y="290" on="1"/>
        <pt x="409" y="0" on="0"/>
        <pt x="326" y="0" on="1"/>
        <pt x="225" y="0" on="0"/>
        <pt x="225" y="120" on="1"/>
        <pt x="225" y="168" on="0"/>
        <pt x="284" y="363" on="0"/>
        <pt x="344" y="571" on="0"/>
        <pt x="344" y="628" on="1"/>
        <pt x="344" y="748" on="0"/>
        <pt x="246" y="748" on="1"/>
        <pt x="155" y="748" on="0"/>
        <pt x="110" y="644" on="1"/>
        <pt x="80" y="574" on="0"/>
        <pt x="80" y="504" on="1"/>
        <pt x="80" y="470" on="0"/>
        <pt x="87" y="436" on="1"/>
        <pt x="109" y="332" on="0"/>
        <pt x="180" y="332" on="1"/>
        <pt x="173" y="318" on="0"/>
        <pt x="161" y="318" on="1"/>
        <pt x="71" y="318" on="0"/>
        <pt x="44" y="432" on="1"/>
        <pt x="35" y="468" on="0"/>
        <pt x="35" y="504" on="1"/>
        <pt x="35" y="581" on="0"/>
        <pt x="74" y="659" on="1"/>
        <pt x="132" y="773" on="0"/>
        <pt x="245" y="773" on="1"/>
        <pt x="332" y="773" on="0"/>
        <pt x="411" y="676" on="0"/>
        <pt x="411" y="521" on="0"/>
        <pt x="299" y="150" on="0"/>
        <pt x="299" y="35" on="0"/>
        <pt x="338" y="35" on="1"/>
        <pt x="370" y="35" on="0"/>
        <pt x="434" y="133" on="1"/>
        <pt x="539" y="296" on="0"/>
        <pt x="618" y="486" on="1"/>
        <pt x="649" y="561" on="0"/>
        <pt x="683" y="561" on="1"/>
        <pt x="705" y="561" on="0"/>
        <pt x="705" y="538" on="1"/>
        <pt x="662" y="436" on="0"/>
        <pt x="611" y="147" on="0"/>
      </contour>
    </TTGlyph>
    <TTGlyph name="Ugrave" xMin="35" yMin="-146" xMax="743" yMax="845">
      <contour>
        <pt x="516" y="836" on="1"/>
        <pt x="552" y="802" on="0"/>
        <pt x="620" y="720" on="0"/>
        <pt x="620" y="700" on="0"/>
        <pt x="598" y="700" on="0"/>
        <pt x="528" y="751" on="0"/>
        <pt x="473" y="803" on="0"/>
        <pt x="473" y="824" on="0"/>
        <pt x="486" y="844" on="0"/>
        <pt x="506" y="844" on="0"/>
      </contour>
      <contour>
        <pt x="611" y="36" on="1"/>
        <pt x="611" y="-113" on="0"/>
        <pt x="664" y="-113" on="1"/>
        <pt x="692" y="-113" on="0"/>
        <pt x="721" y="-54" on="1"/>
        <pt x="726" y="-44" on="0"/>
        <pt x="742" y="-49" on="0"/>
        <pt x="742" y="-56" on="0"/>
        <pt x="722" y="-100" on="0"/>
        <pt x="679" y="-146" on="0"/>
        <pt x="657" y="-146" on="1"/>
        <pt x="553" y="-146" on="0"/>
        <pt x="553" y="61" on="1"/>
        <pt x="553" y="169" on="0"/>
        <pt x="572" y="290" on="1"/>
        <pt x="562" y="290" on="1"/>
        <pt x="409" y="0" on="0"/>
        <pt x="326" y="0" on="1"/>
        <pt x="225" y="0" on="0"/>
        <pt x="225" y="120" on="1"/>
        <pt x="225" y="168" on="0"/>
        <pt x="284" y="363" on="0"/>
        <pt x="344" y="571" on="0"/>
        <pt x="344" y="628" on="1"/>
        <pt x="344" y="748" on="0"/>
        <pt x="246" y="748" on="1"/>
        <pt x="155" y="748" on="0"/>
        <pt x="110" y="644" on="1"/>
        <pt x="80" y="574" on="0"/>
        <pt x="80" y="504" on="1"/>
        <pt x="80" y="470" on="0"/>
        <pt x="87" y="436" on="1"/>
        <pt x="109" y="332" on="0"/>
        <pt x="180" y="332" on="1"/>
        <pt x="173" y="318" on="0"/>
        <pt x="161" y="318" on="1"/>
        <pt x="71" y="318" on="0"/>
        <pt x="44" y="432" on="1"/>
        <pt x="35" y="468" on="0"/>
        <pt x="35" y="504" on="1"/>
        <pt x="35" y="581" on="0"/>
        <pt x="74" y="659" on="1"/>
        <pt x="132" y="773" on="0"/>
        <pt x="245" y="773" on="1"/>
        <pt x="332" y="773" on="0"/>
        <pt x="411" y="676" on="0"/>
        <pt x="411" y="521" on="0"/>
        <pt x="299" y="150" on="0"/>
        <pt x="299" y="35" on="0"/>
        <pt x="338" y="35" on="1"/>
        <pt x="370" y="35" on="0"/>
        <pt x="434" y="133" on="1"/>
        <pt x="539" y="296" on="0"/>
        <pt x="618" y="486" on="1"/>
        <pt x="649" y="561" on="0"/>
        <pt x="683" y="561" on="1"/>
        <pt x="705" y="561" on="0"/>
        <pt x="705" y="538" on="1"/>
        <pt x="662" y="436" on="0"/>
        <pt x="611" y="147" on="0"/>
      </contour>
    </TTGlyph>
    <TTGlyph name="V" xMin="-2" yMin="-73" xMax="630" yMax="773">
      <contour>
        <pt x="43" y="640" on="1"/>
        <pt x="36" y="623" on="0"/>
        <pt x="36" y="597" on="0"/>
        <pt x="44" y="597" on="1"/>
        <pt x="42" y="583" on="0"/>
        <pt x="22" y="583" on="1"/>
        <pt x="-2" y="583" on="0"/>
        <pt x="-2" y="653" on="0"/>
        <pt x="37" y="684" on="1"/>
        <pt x="77" y="715" on="0"/>
        <pt x="202" y="715" on="0"/>
        <pt x="285" y="622" on="0"/>
        <pt x="316" y="488" on="0"/>
        <pt x="316" y="401" on="1"/>
        <pt x="316" y="220" on="0"/>
        <pt x="251" y="-18" on="1"/>
        <pt x="247" y="-30" on="0"/>
        <pt x="259" y="-30" on="1"/>
        <pt x="268" y="-30" on="0"/>
        <pt x="277" y="-22" on="1"/>
        <pt x="382" y="74" on="0"/>
        <pt x="570" y="538" on="0"/>
        <pt x="570" y="678" on="1"/>
        <pt x="570" y="740" on="0"/>
        <pt x="543" y="740" on="1"/>
        <pt x="546" y="754" on="0"/>
        <pt x="570" y="773" on="0"/>
        <pt x="586" y="773" on="1"/>
        <pt x="630" y="773" on="0"/>
        <pt x="630" y="698" on="1"/>
        <pt x="630" y="590" on="0"/>
        <pt x="496" y="223" on="0"/>
        <pt x="298" y="-73" on="0"/>
        <pt x="222" y="-73" on="1"/>
        <pt x="170" y="-73" on="0"/>
        <pt x="170" y="-23" on="1"/>
        <pt x="198" y="60" on="0"/>
        <pt x="246" y="349" on="0"/>
        <pt x="246" y="451" on="1"/>
        <pt x="246" y="691" on="0"/>
        <pt x="126" y="691" on="1"/>
        <pt x="65" y="691" on="0"/>
      </contour>
    </TTGlyph>
    <TTGlyph name="W" xMin="16" yMin="-73" xMax="965" yMax="776">
      <contour>
        <pt x="556" y="169" on="1"/>
        <pt x="556" y="35" on="0"/>
        <pt x="616" y="35" on="1"/>
        <pt x="662" y="35" on="0"/>
        <pt x="757" y="197" on="0"/>
        <pt x="819" y="430" on="0"/>
        <pt x="821" y="534" on="1"/>
        <pt x="772" y="574" on="0"/>
        <pt x="692" y="702" on="0"/>
        <pt x="692" y="739" on="0"/>
        <pt x="726" y="776" on="0"/>
        <pt x="745" y="776" on="1"/>
        <pt x="787" y="776" on="0"/>
        <pt x="850" y="652" on="0"/>
        <pt x="853" y="564" on="1"/>
        <pt x="890" y="532" on="0"/>
        <pt x="944" y="532" on="0"/>
        <pt x="952" y="549" on="1"/>
        <pt x="964" y="549" on="0"/>
        <pt x="964" y="534" on="1"/>
        <pt x="964" y="506" on="0"/>
        <pt x="933" y="497" on="1"/>
        <pt x="915" y="495" on="1"/>
        <pt x="884" y="495" on="0"/>
        <pt x="853" y="513" on="1"/>
        <pt x="847" y="399" on="0"/>
        <pt x="781" y="163" on="0"/>
        <pt x="673" y="0" on="0"/>
        <pt x="616" y="0" on="1"/>
        <pt x="536" y="0" on="0"/>
        <pt x="505" y="78" on="1"/>
        <pt x="480" y="141" on="0"/>
        <pt x="480" y="229" on="1"/>
        <pt x="480" y="252" on="0"/>
        <pt x="482" y="276" on="1"/>
        <pt x="291" y="-73" on="0"/>
        <pt x="177" y="-73" on="1"/>
        <pt x="128" y="-73" on="0"/>
        <pt x="128" y="-28" on="1"/>
        <pt x="128" y="-26" on="0"/>
        <pt x="128" y="-23" on="1"/>
        <pt x="247" y="299" on="0"/>
        <pt x="247" y="520" on="1"/>
        <pt x="247" y="691" on="0"/>
        <pt x="149" y="691" on="1"/>
        <pt x="87" y="691" on="0"/>
        <pt x="62" y="638" on="1"/>
        <pt x="54" y="621" on="0"/>
        <pt x="54" y="597" on="0"/>
        <pt x="61" y="597" on="1"/>
        <pt x="59" y="583" on="0"/>
        <pt x="17" y="583" on="0"/>
        <pt x="17" y="610" on="1"/>
        <pt x="17" y="651" on="0"/>
        <pt x="100" y="715" on="0"/>
        <pt x="161" y="715" on="1"/>
        <pt x="312" y="715" on="0"/>
        <pt x="312" y="484" on="1"/>
        <pt x="312" y="398" on="0"/>
        <pt x="272" y="185" on="0"/>
        <pt x="245" y="94" on="0"/>
        <pt x="210" y="-18" on="1"/>
        <pt x="207" y="-29" on="0"/>
        <pt x="215" y="-29" on="1"/>
        <pt x="222" y="-28" on="0"/>
        <pt x="232" y="-20" on="1"/>
        <pt x="302" y="41" on="0"/>
        <pt x="370" y="150" on="1"/>
        <pt x="468" y="311" on="0"/>
        <pt x="514" y="445" on="1"/>
        <pt x="563" y="597" on="0"/>
        <pt x="608" y="597" on="1"/>
        <pt x="628" y="597" on="0"/>
        <pt x="628" y="576" on="1"/>
        <pt x="604" y="500" on="0"/>
        <pt x="568" y="298" on="1"/>
        <pt x="556" y="227" on="0"/>
      </contour>
      <contour>
        <pt x="752" y="745" on="1"/>
        <pt x="748" y="743" on="0"/>
        <pt x="748" y="729" on="0"/>
        <pt x="755" y="701" on="0"/>
        <pt x="795" y="629" on="0"/>
        <pt x="819" y="600" on="1"/>
        <pt x="812" y="662" on="0"/>
        <pt x="771" y="745" on="0"/>
      </contour>
    </TTGlyph>
    <TTGlyph name="X" xMin="-10" yMin="-142" xMax="766" yMax="775">
      <contour>
        <pt x="43" y="640" on="1"/>
        <pt x="36" y="623" on="0"/>
        <pt x="36" y="597" on="0"/>
        <pt x="44" y="597" on="1"/>
        <pt x="42" y="583" on="0"/>
        <pt x="22" y="583" on="1"/>
        <pt x="-2" y="583" on="0"/>
        <pt x="-2" y="651" on="0"/>
        <pt x="79" y="715" on="0"/>
        <pt x="146" y="715" on="1"/>
        <pt x="227" y="715" on="0"/>
        <pt x="344" y="562" on="0"/>
        <pt x="389" y="429" on="1"/>
        <pt x="534" y="626" on="0"/>
        <pt x="673" y="774" on="0"/>
        <pt x="723" y="775" on="1"/>
        <pt x="741" y="775" on="0"/>
        <pt x="763" y="751" on="0"/>
        <pt x="764" y="739" on="1"/>
        <pt x="766" y="727" on="1"/>
        <pt x="691" y="727" on="0"/>
        <pt x="591" y="622" on="1"/>
        <pt x="507" y="534" on="0"/>
        <pt x="401" y="393" on="1"/>
        <pt x="419" y="336" on="0"/>
        <pt x="464" y="171" on="0"/>
        <pt x="495" y="58" on="0"/>
        <pt x="514" y="3" on="1"/>
        <pt x="553" y="-109" on="0"/>
        <pt x="599" y="-109" on="1"/>
        <pt x="624" y="-109" on="0"/>
        <pt x="639" y="-90" on="1"/>
        <pt x="648" y="-90" on="0"/>
        <pt x="643" y="-107" on="1"/>
        <pt x="634" y="-139" on="0"/>
        <pt x="584" y="-142" on="1"/>
        <pt x="518" y="-142" on="0"/>
        <pt x="469" y="-56" on="1"/>
        <pt x="414" y="41" on="0"/>
        <pt x="354" y="272" on="1"/>
        <pt x="347" y="300" on="0"/>
        <pt x="343" y="314" on="1"/>
        <pt x="226" y="154" on="0"/>
        <pt x="150" y="70" on="0"/>
        <pt x="124" y="44" on="1"/>
        <pt x="75" y="-2" on="0"/>
        <pt x="38" y="-2" on="1"/>
        <pt x="17" y="-2" on="0"/>
        <pt x="-7" y="22" on="0"/>
        <pt x="-8" y="34" on="1"/>
        <pt x="-10" y="46" on="1"/>
        <pt x="58" y="46" on="0"/>
        <pt x="224" y="207" on="0"/>
        <pt x="332" y="352" on="1"/>
        <pt x="261" y="606" on="0"/>
        <pt x="192" y="665" on="1"/>
        <pt x="162" y="691" on="0"/>
        <pt x="126" y="691" on="1"/>
        <pt x="65" y="691" on="0"/>
      </contour>
    </TTGlyph>
    <TTGlyph name="Y" xMin="-23" yMin="-326" xMax="705" yMax="773">
      <contour>
        <pt x="221" y="-303" on="1"/>
        <pt x="290" y="-303" on="0"/>
        <pt x="399" y="-231" on="0"/>
        <pt x="463" y="-147" on="0"/>
        <pt x="521" y="29" on="0"/>
        <pt x="542" y="123" on="0"/>
        <pt x="563" y="233" on="0"/>
        <pt x="565" y="241" on="0"/>
        <pt x="567" y="252" on="0"/>
        <pt x="571" y="274" on="0"/>
        <pt x="577" y="304" on="1"/>
        <pt x="570" y="304" on="1"/>
        <pt x="430" y="32" on="0"/>
        <pt x="344" y="32" on="1"/>
        <pt x="244" y="32" on="0"/>
        <pt x="244" y="152" on="1"/>
        <pt x="244" y="206" on="0"/>
        <pt x="344" y="555" on="0"/>
        <pt x="344" y="634" on="1"/>
        <pt x="344" y="685" on="0"/>
        <pt x="297" y="748" on="0"/>
        <pt x="246" y="748" on="1"/>
        <pt x="155" y="748" on="0"/>
        <pt x="110" y="644" on="1"/>
        <pt x="80" y="574" on="0"/>
        <pt x="80" y="504" on="1"/>
        <pt x="80" y="470" on="0"/>
        <pt x="87" y="436" on="1"/>
        <pt x="109" y="332" on="0"/>
        <pt x="180" y="332" on="1"/>
        <pt x="173" y="318" on="0"/>
        <pt x="161" y="318" on="1"/>
        <pt x="71" y="318" on="0"/>
        <pt x="44" y="432" on="1"/>
        <pt x="35" y="468" on="0"/>
        <pt x="35" y="504" on="1"/>
        <pt x="35" y="581" on="0"/>
        <pt x="74" y="659" on="1"/>
        <pt x="132" y="773" on="0"/>
        <pt x="245" y="773" on="1"/>
        <pt x="332" y="773" on="0"/>
        <pt x="411" y="676" on="0"/>
        <pt x="411" y="521" on="0"/>
        <pt x="318" y="182" on="0"/>
        <pt x="318" y="67" on="0"/>
        <pt x="357" y="67" on="1"/>
        <pt x="390" y="67" on="0"/>
        <pt x="450" y="162" on="1"/>
        <pt x="548" y="313" on="0"/>
        <pt x="620" y="491" on="1"/>
        <pt x="648" y="561" on="0"/>
        <pt x="683" y="561" on="1"/>
        <pt x="705" y="561" on="0"/>
        <pt x="705" y="538" on="1"/>
        <pt x="670" y="453" on="0"/>
        <pt x="635" y="253" on="1"/>
        <pt x="594" y="19" on="0"/>
        <pt x="550" y="-82" on="1"/>
        <pt x="531" y="-126" on="0"/>
        <pt x="467" y="-227" on="0"/>
        <pt x="392" y="-286" on="0"/>
        <pt x="285" y="-326" on="0"/>
        <pt x="222" y="-326" on="1"/>
        <pt x="69" y="-326" on="0"/>
        <pt x="7" y="-222" on="1"/>
        <pt x="-22" y="-172" on="0"/>
        <pt x="-22" y="-115" on="1"/>
        <pt x="-22" y="-84" on="0"/>
        <pt x="-13" y="-51" on="1"/>
        <pt x="10" y="33" on="0"/>
        <pt x="74" y="64" on="1"/>
        <pt x="101" y="77" on="0"/>
        <pt x="122" y="77" on="1"/>
        <pt x="155" y="77" on="0"/>
        <pt x="161" y="58" on="1"/>
        <pt x="163" y="51" on="1"/>
        <pt x="94" y="51" on="0"/>
        <pt x="55" y="-21" on="1"/>
        <pt x="30" y="-68" on="0"/>
        <pt x="30" y="-107" on="1"/>
        <pt x="30" y="-256" on="0"/>
        <pt x="150" y="-293" on="1"/>
        <pt x="182" y="-303" on="0"/>
      </contour>
    </TTGlyph>
    <TTGlyph name="Yacute" xMin="-23" yMin="-326" xMax="705" yMax="841">
      <contour>
        <pt x="667" y="800" on="1"/>
        <pt x="638" y="765" on="0"/>
        <pt x="564" y="698" on="0"/>
        <pt x="544" y="698" on="0"/>
        <pt x="544" y="706" on="1"/>
        <pt x="544" y="717" on="0"/>
        <pt x="590" y="790" on="0"/>
        <pt x="621" y="825" on="1"/>
        <pt x="634" y="840" on="0"/>
        <pt x="655" y="840" on="0"/>
        <pt x="674" y="830" on="0"/>
        <pt x="674" y="811" on="0"/>
      </contour>
      <contour>
        <pt x="221" y="-303" on="1"/>
        <pt x="290" y="-303" on="0"/>
        <pt x="399" y="-231" on="0"/>
        <pt x="463" y="-147" on="0"/>
        <pt x="521" y="29" on="0"/>
        <pt x="542" y="123" on="0"/>
        <pt x="563" y="233" on="0"/>
        <pt x="565" y="241" on="0"/>
        <pt x="567" y="252" on="0"/>
        <pt x="571" y="274" on="0"/>
        <pt x="577" y="304" on="1"/>
        <pt x="570" y="304" on="1"/>
        <pt x="430" y="32" on="0"/>
        <pt x="344" y="32" on="1"/>
        <pt x="244" y="32" on="0"/>
        <pt x="244" y="152" on="1"/>
        <pt x="244" y="206" on="0"/>
        <pt x="344" y="555" on="0"/>
        <pt x="344" y="634" on="1"/>
        <pt x="344" y="685" on="0"/>
        <pt x="297" y="748" on="0"/>
        <pt x="246" y="748" on="1"/>
        <pt x="155" y="748" on="0"/>
        <pt x="110" y="644" on="1"/>
        <pt x="80" y="574" on="0"/>
        <pt x="80" y="504" on="1"/>
        <pt x="80" y="470" on="0"/>
        <pt x="87" y="436" on="1"/>
        <pt x="109" y="332" on="0"/>
        <pt x="180" y="332" on="1"/>
        <pt x="173" y="318" on="0"/>
        <pt x="161" y="318" on="1"/>
        <pt x="71" y="318" on="0"/>
        <pt x="44" y="432" on="1"/>
        <pt x="35" y="468" on="0"/>
        <pt x="35" y="504" on="1"/>
        <pt x="35" y="581" on="0"/>
        <pt x="74" y="659" on="1"/>
        <pt x="132" y="773" on="0"/>
        <pt x="245" y="773" on="1"/>
        <pt x="332" y="773" on="0"/>
        <pt x="411" y="676" on="0"/>
        <pt x="411" y="521" on="0"/>
        <pt x="318" y="182" on="0"/>
        <pt x="318" y="67" on="0"/>
        <pt x="357" y="67" on="1"/>
        <pt x="390" y="67" on="0"/>
        <pt x="450" y="162" on="1"/>
        <pt x="548" y="313" on="0"/>
        <pt x="620" y="491" on="1"/>
        <pt x="648" y="561" on="0"/>
        <pt x="683" y="561" on="1"/>
        <pt x="705" y="561" on="0"/>
        <pt x="705" y="538" on="1"/>
        <pt x="670" y="453" on="0"/>
        <pt x="635" y="253" on="1"/>
        <pt x="594" y="19" on="0"/>
        <pt x="550" y="-82" on="1"/>
        <pt x="531" y="-126" on="0"/>
        <pt x="467" y="-227" on="0"/>
        <pt x="392" y="-286" on="0"/>
        <pt x="285" y="-326" on="0"/>
        <pt x="222" y="-326" on="1"/>
        <pt x="69" y="-326" on="0"/>
        <pt x="7" y="-222" on="1"/>
        <pt x="-22" y="-172" on="0"/>
        <pt x="-22" y="-115" on="1"/>
        <pt x="-22" y="-84" on="0"/>
        <pt x="-13" y="-51" on="1"/>
        <pt x="10" y="33" on="0"/>
        <pt x="74" y="64" on="1"/>
        <pt x="101" y="77" on="0"/>
        <pt x="122" y="77" on="1"/>
        <pt x="155" y="77" on="0"/>
        <pt x="161" y="58" on="1"/>
        <pt x="163" y="51" on="1"/>
        <pt x="94" y="51" on="0"/>
        <pt x="55" y="-21" on="1"/>
        <pt x="30" y="-68" on="0"/>
        <pt x="30" y="-107" on="1"/>
        <pt x="30" y="-256" on="0"/>
        <pt x="150" y="-293" on="1"/>
        <pt x="182" y="-303" on="0"/>
      </contour>
    </TTGlyph>
    <TTGlyph name="Ydieresis" xMin="-23" yMin="-326" xMax="705" yMax="773">
      <contour>
        <pt x="481" y="643" on="1"/>
        <pt x="460" y="643" on="0"/>
        <pt x="460" y="683" on="1"/>
        <pt x="460" y="707" on="0"/>
        <pt x="486" y="760" on="0"/>
        <pt x="510" y="760" on="1"/>
        <pt x="530" y="760" on="0"/>
        <pt x="530" y="737" on="1"/>
        <pt x="530" y="725" on="0"/>
        <pt x="506" y="678" on="0"/>
        <pt x="494" y="660" on="1"/>
      </contour>
      <contour>
        <pt x="624" y="643" on="1"/>
        <pt x="603" y="643" on="0"/>
        <pt x="603" y="683" on="1"/>
        <pt x="603" y="707" on="0"/>
        <pt x="628" y="760" on="0"/>
        <pt x="652" y="760" on="1"/>
        <pt x="673" y="760" on="0"/>
        <pt x="673" y="737" on="1"/>
        <pt x="673" y="714" on="0"/>
        <pt x="636" y="660" on="1"/>
      </contour>
      <contour>
        <pt x="221" y="-303" on="1"/>
        <pt x="290" y="-303" on="0"/>
        <pt x="399" y="-231" on="0"/>
        <pt x="463" y="-147" on="0"/>
        <pt x="521" y="29" on="0"/>
        <pt x="542" y="123" on="0"/>
        <pt x="563" y="233" on="0"/>
        <pt x="565" y="241" on="0"/>
        <pt x="567" y="252" on="0"/>
        <pt x="571" y="274" on="0"/>
        <pt x="577" y="304" on="1"/>
        <pt x="570" y="304" on="1"/>
        <pt x="430" y="32" on="0"/>
        <pt x="344" y="32" on="1"/>
        <pt x="244" y="32" on="0"/>
        <pt x="244" y="152" on="1"/>
        <pt x="244" y="206" on="0"/>
        <pt x="344" y="555" on="0"/>
        <pt x="344" y="634" on="1"/>
        <pt x="344" y="685" on="0"/>
        <pt x="297" y="748" on="0"/>
        <pt x="246" y="748" on="1"/>
        <pt x="155" y="748" on="0"/>
        <pt x="110" y="644" on="1"/>
        <pt x="80" y="574" on="0"/>
        <pt x="80" y="504" on="1"/>
        <pt x="80" y="470" on="0"/>
        <pt x="87" y="436" on="1"/>
        <pt x="109" y="332" on="0"/>
        <pt x="180" y="332" on="1"/>
        <pt x="173" y="318" on="0"/>
        <pt x="161" y="318" on="1"/>
        <pt x="71" y="318" on="0"/>
        <pt x="44" y="432" on="1"/>
        <pt x="35" y="468" on="0"/>
        <pt x="35" y="504" on="1"/>
        <pt x="35" y="581" on="0"/>
        <pt x="74" y="659" on="1"/>
        <pt x="132" y="773" on="0"/>
        <pt x="245" y="773" on="1"/>
        <pt x="332" y="773" on="0"/>
        <pt x="411" y="676" on="0"/>
        <pt x="411" y="521" on="0"/>
        <pt x="318" y="182" on="0"/>
        <pt x="318" y="67" on="0"/>
        <pt x="357" y="67" on="1"/>
        <pt x="390" y="67" on="0"/>
        <pt x="450" y="162" on="1"/>
        <pt x="548" y="313" on="0"/>
        <pt x="620" y="491" on="1"/>
        <pt x="648" y="561" on="0"/>
        <pt x="683" y="561" on="1"/>
        <pt x="705" y="561" on="0"/>
        <pt x="705" y="538" on="1"/>
        <pt x="670" y="453" on="0"/>
        <pt x="635" y="253" on="1"/>
        <pt x="594" y="19" on="0"/>
        <pt x="550" y="-82" on="1"/>
        <pt x="531" y="-126" on="0"/>
        <pt x="467" y="-227" on="0"/>
        <pt x="392" y="-286" on="0"/>
        <pt x="285" y="-326" on="0"/>
        <pt x="222" y="-326" on="1"/>
        <pt x="69" y="-326" on="0"/>
        <pt x="7" y="-222" on="1"/>
        <pt x="-22" y="-172" on="0"/>
        <pt x="-22" y="-115" on="1"/>
        <pt x="-22" y="-84" on="0"/>
        <pt x="-13" y="-51" on="1"/>
        <pt x="10" y="33" on="0"/>
        <pt x="74" y="64" on="1"/>
        <pt x="101" y="77" on="0"/>
        <pt x="122" y="77" on="1"/>
        <pt x="155" y="77" on="0"/>
        <pt x="161" y="58" on="1"/>
        <pt x="163" y="51" on="1"/>
        <pt x="94" y="51" on="0"/>
        <pt x="55" y="-21" on="1"/>
        <pt x="30" y="-68" on="0"/>
        <pt x="30" y="-107" on="1"/>
        <pt x="30" y="-256" on="0"/>
        <pt x="150" y="-293" on="1"/>
        <pt x="182" y="-303" on="0"/>
      </contour>
    </TTGlyph>
    <TTGlyph name="Z" xMin="-21" yMin="-218" xMax="756" yMax="774">
      <contour>
        <pt x="406" y="773" on="0"/>
        <pt x="582" y="726" on="0"/>
        <pt x="635" y="726" on="0"/>
        <pt x="695" y="774" on="0"/>
        <pt x="718" y="774" on="1"/>
        <pt x="727" y="774" on="0"/>
        <pt x="738" y="754" on="0"/>
        <pt x="736" y="737" on="0"/>
        <pt x="736" y="736" on="1"/>
        <pt x="704" y="736" on="0"/>
        <pt x="661" y="659" on="1"/>
        <pt x="629" y="603" on="0"/>
        <pt x="538" y="410" on="0"/>
        <pt x="519" y="371" on="1"/>
        <pt x="571" y="373" on="0"/>
        <pt x="589" y="373" on="1"/>
        <pt x="599" y="373" on="0"/>
        <pt x="596" y="349" on="0"/>
        <pt x="569" y="349" on="0"/>
        <pt x="548" y="347" on="0"/>
        <pt x="515" y="345" on="0"/>
        <pt x="505" y="344" on="1"/>
        <pt x="378" y="93" on="0"/>
        <pt x="257" y="3" on="1"/>
        <pt x="288" y="-11" on="0"/>
        <pt x="491" y="-111" on="0"/>
        <pt x="605" y="-154" on="0"/>
        <pt x="667" y="-154" on="0"/>
        <pt x="703" y="-143" on="0"/>
        <pt x="713" y="-135" on="1"/>
        <pt x="733" y="-119" on="0"/>
        <pt x="740" y="-100" on="1"/>
        <pt x="756" y="-100" on="0"/>
        <pt x="756" y="-125" on="1"/>
        <pt x="756" y="-167" on="0"/>
        <pt x="682" y="-218" on="0"/>
        <pt x="586" y="-218" on="0"/>
        <pt x="466" y="-174" on="0"/>
        <pt x="389" y="-132" on="0"/>
        <pt x="236" y="-38" on="0"/>
        <pt x="214" y="-25" on="1"/>
        <pt x="153" y="-57" on="0"/>
        <pt x="95" y="-57" on="1"/>
        <pt x="11" y="-57" on="0"/>
        <pt x="-13" y="-13" on="1"/>
        <pt x="-20" y="-1" on="0"/>
        <pt x="-20" y="28" on="0"/>
        <pt x="18" y="63" on="0"/>
        <pt x="115" y="63" on="0"/>
        <pt x="214" y="21" on="1"/>
        <pt x="305" y="98" on="0"/>
        <pt x="425" y="334" on="1"/>
        <pt x="377" y="328" on="0"/>
        <pt x="304" y="328" on="0"/>
        <pt x="300" y="352" on="1"/>
        <pt x="301" y="367" on="0"/>
        <pt x="312" y="370" on="1"/>
        <pt x="317" y="364" on="0"/>
        <pt x="387" y="364" on="0"/>
        <pt x="442" y="367" on="1"/>
        <pt x="457" y="396" on="0"/>
        <pt x="517" y="517" on="0"/>
        <pt x="534" y="550" on="1"/>
        <pt x="578" y="639" on="0"/>
        <pt x="616" y="693" on="1"/>
        <pt x="594" y="688" on="0"/>
        <pt x="543" y="688" on="0"/>
        <pt x="365" y="736" on="0"/>
        <pt x="320" y="736" on="1"/>
        <pt x="206" y="736" on="0"/>
        <pt x="159" y="642" on="1"/>
        <pt x="135" y="595" on="0"/>
        <pt x="135" y="518" on="0"/>
        <pt x="142" y="490" on="1"/>
        <pt x="160" y="422" on="0"/>
        <pt x="207" y="411" on="1"/>
        <pt x="223" y="409" on="1"/>
        <pt x="218" y="386" on="0"/>
        <pt x="190" y="386" on="1"/>
        <pt x="131" y="386" on="0"/>
        <pt x="105" y="454" on="1"/>
        <pt x="93" y="488" on="0"/>
        <pt x="93" y="568" on="0"/>
        <pt x="111" y="616" on="1"/>
        <pt x="151" y="720" on="0"/>
        <pt x="254" y="756" on="1"/>
        <pt x="301" y="773" on="0"/>
      </contour>
      <contour>
        <pt x="8" y="9" on="1"/>
        <pt x="8" y="-9" on="0"/>
        <pt x="58" y="-30" on="0"/>
        <pt x="134" y="-30" on="0"/>
        <pt x="178" y="-4" on="1"/>
        <pt x="92" y="38" on="0"/>
        <pt x="17" y="38" on="0"/>
        <pt x="9" y="17" on="1"/>
        <pt x="8" y="13" on="0"/>
      </contour>
    </TTGlyph>
    <TTGlyph name="Zcaron" xMin="-21" yMin="-218" xMax="756" yMax="975">
      <contour>
        <pt x="549" y="850" on="0"/>
        <pt x="531" y="850" on="0"/>
        <pt x="527" y="857" on="1"/>
        <pt x="467" y="975" on="1"/>
        <pt x="496" y="975" on="1"/>
        <pt x="561" y="899" on="1"/>
        <pt x="672" y="975" on="1"/>
        <pt x="702" y="975" on="1"/>
        <pt x="605" y="895" on="0"/>
        <pt x="557" y="857" on="1"/>
      </contour>
      <contour>
        <pt x="406" y="773" on="0"/>
        <pt x="582" y="726" on="0"/>
        <pt x="635" y="726" on="0"/>
        <pt x="695" y="774" on="0"/>
        <pt x="718" y="774" on="1"/>
        <pt x="727" y="774" on="0"/>
        <pt x="738" y="754" on="0"/>
        <pt x="736" y="737" on="0"/>
        <pt x="736" y="736" on="1"/>
        <pt x="704" y="736" on="0"/>
        <pt x="661" y="659" on="1"/>
        <pt x="629" y="603" on="0"/>
        <pt x="538" y="410" on="0"/>
        <pt x="519" y="371" on="1"/>
        <pt x="571" y="373" on="0"/>
        <pt x="589" y="373" on="1"/>
        <pt x="599" y="373" on="0"/>
        <pt x="596" y="349" on="0"/>
        <pt x="569" y="349" on="0"/>
        <pt x="548" y="347" on="0"/>
        <pt x="515" y="345" on="0"/>
        <pt x="505" y="344" on="1"/>
        <pt x="378" y="93" on="0"/>
        <pt x="257" y="3" on="1"/>
        <pt x="288" y="-11" on="0"/>
        <pt x="491" y="-111" on="0"/>
        <pt x="605" y="-154" on="0"/>
        <pt x="667" y="-154" on="0"/>
        <pt x="703" y="-143" on="0"/>
        <pt x="713" y="-135" on="1"/>
        <pt x="733" y="-119" on="0"/>
        <pt x="740" y="-100" on="1"/>
        <pt x="756" y="-100" on="0"/>
        <pt x="756" y="-125" on="1"/>
        <pt x="756" y="-167" on="0"/>
        <pt x="682" y="-218" on="0"/>
        <pt x="586" y="-218" on="0"/>
        <pt x="466" y="-174" on="0"/>
        <pt x="389" y="-132" on="0"/>
        <pt x="236" y="-38" on="0"/>
        <pt x="214" y="-25" on="1"/>
        <pt x="153" y="-57" on="0"/>
        <pt x="95" y="-57" on="1"/>
        <pt x="11" y="-57" on="0"/>
        <pt x="-13" y="-13" on="1"/>
        <pt x="-20" y="-1" on="0"/>
        <pt x="-20" y="28" on="0"/>
        <pt x="18" y="63" on="0"/>
        <pt x="115" y="63" on="0"/>
        <pt x="214" y="21" on="1"/>
        <pt x="305" y="98" on="0"/>
        <pt x="425" y="334" on="1"/>
        <pt x="377" y="328" on="0"/>
        <pt x="304" y="328" on="0"/>
        <pt x="300" y="352" on="1"/>
        <pt x="301" y="367" on="0"/>
        <pt x="312" y="370" on="1"/>
        <pt x="317" y="364" on="0"/>
        <pt x="387" y="364" on="0"/>
        <pt x="442" y="367" on="1"/>
        <pt x="457" y="396" on="0"/>
        <pt x="517" y="517" on="0"/>
        <pt x="534" y="550" on="1"/>
        <pt x="578" y="639" on="0"/>
        <pt x="616" y="693" on="1"/>
        <pt x="594" y="688" on="0"/>
        <pt x="543" y="688" on="0"/>
        <pt x="365" y="736" on="0"/>
        <pt x="320" y="736" on="1"/>
        <pt x="206" y="736" on="0"/>
        <pt x="159" y="642" on="1"/>
        <pt x="135" y="595" on="0"/>
        <pt x="135" y="518" on="0"/>
        <pt x="142" y="490" on="1"/>
        <pt x="160" y="422" on="0"/>
        <pt x="207" y="411" on="1"/>
        <pt x="223" y="409" on="1"/>
        <pt x="218" y="386" on="0"/>
        <pt x="190" y="386" on="1"/>
        <pt x="131" y="386" on="0"/>
        <pt x="105" y="454" on="1"/>
        <pt x="93" y="488" on="0"/>
        <pt x="93" y="568" on="0"/>
        <pt x="111" y="616" on="1"/>
        <pt x="151" y="720" on="0"/>
        <pt x="254" y="756" on="1"/>
        <pt x="301" y="773" on="0"/>
      </contour>
      <contour>
        <pt x="8" y="9" on="1"/>
        <pt x="8" y="-9" on="0"/>
        <pt x="58" y="-30" on="0"/>
        <pt x="134" y="-30" on="0"/>
        <pt x="178" y="-4" on="1"/>
        <pt x="92" y="38" on="0"/>
        <pt x="17" y="38" on="0"/>
        <pt x="9" y="17" on="1"/>
        <pt x="8" y="13" on="0"/>
      </contour>
    </TTGlyph>
    <TTGlyph name="a" xMin="1" yMin="-112" xMax="424" yMax="494">
      <contour>
        <pt x="84" y="0" on="1"/>
        <pt x="2" y="0" on="0"/>
        <pt x="2" y="129" on="1"/>
        <pt x="2" y="206" on="0"/>
        <pt x="40" y="298" on="1"/>
        <pt x="93" y="427" on="0"/>
        <pt x="179" y="474" on="1"/>
        <pt x="216" y="494" on="0"/>
        <pt x="280" y="494" on="0"/>
        <pt x="317" y="466" on="0"/>
        <pt x="322" y="452" on="1"/>
        <pt x="328" y="439" on="1"/>
        <pt x="325" y="422" on="0"/>
        <pt x="311" y="422" on="1"/>
        <pt x="295" y="422" on="0"/>
        <pt x="290" y="437" on="0"/>
        <pt x="284" y="448" on="0"/>
        <pt x="262" y="467" on="0"/>
        <pt x="248" y="467" on="1"/>
        <pt x="183" y="467" on="0"/>
        <pt x="130" y="350" on="1"/>
        <pt x="70" y="215" on="0"/>
        <pt x="70" y="96" on="1"/>
        <pt x="70" y="36" on="0"/>
        <pt x="94" y="36" on="1"/>
        <pt x="113" y="36" on="0"/>
        <pt x="182" y="121" on="0"/>
        <pt x="220" y="185" on="1"/>
        <pt x="286" y="295" on="0"/>
        <pt x="327" y="376" on="1"/>
        <pt x="361" y="448" on="0"/>
        <pt x="397" y="448" on="1"/>
        <pt x="416" y="448" on="0"/>
        <pt x="416" y="425" on="1"/>
        <pt x="407" y="406" on="0"/>
        <pt x="379" y="336" on="0"/>
        <pt x="333" y="128" on="0"/>
        <pt x="333" y="-78" on="0"/>
        <pt x="364" y="-78" on="1"/>
        <pt x="376" y="-78" on="0"/>
        <pt x="396" y="-57" on="0"/>
        <pt x="404" y="-36" on="1"/>
        <pt x="407" y="-25" on="0"/>
        <pt x="418" y="-25" on="1"/>
        <pt x="422" y="-25" on="0"/>
        <pt x="426" y="-31" on="0"/>
        <pt x="422" y="-45" on="0"/>
        <pt x="412" y="-70" on="0"/>
        <pt x="379" y="-112" on="0"/>
        <pt x="361" y="-112" on="1"/>
        <pt x="319" y="-112" on="0"/>
        <pt x="274" y="-2" on="0"/>
        <pt x="274" y="148" on="0"/>
        <pt x="285" y="217" on="1"/>
        <pt x="275" y="217" on="1"/>
        <pt x="148" y="0" on="0"/>
      </contour>
    </TTGlyph>
    <TTGlyph name="aacute" xMin="1" yMin="-112" xMax="424" yMax="694">
      <contour>
        <pt x="372" y="653" on="1"/>
        <pt x="342" y="617" on="0"/>
        <pt x="270" y="551" on="0"/>
        <pt x="250" y="551" on="0"/>
        <pt x="250" y="571" on="0"/>
        <pt x="296" y="644" on="0"/>
        <pt x="339" y="693" on="0"/>
        <pt x="350" y="693" on="1"/>
        <pt x="379" y="693" on="0"/>
        <pt x="379" y="673" on="1"/>
        <pt x="379" y="664" on="0"/>
      </contour>
      <contour>
        <pt x="84" y="0" on="1"/>
        <pt x="2" y="0" on="0"/>
        <pt x="2" y="129" on="1"/>
        <pt x="2" y="206" on="0"/>
        <pt x="40" y="298" on="1"/>
        <pt x="93" y="427" on="0"/>
        <pt x="179" y="474" on="1"/>
        <pt x="216" y="494" on="0"/>
        <pt x="280" y="494" on="0"/>
        <pt x="317" y="466" on="0"/>
        <pt x="322" y="452" on="1"/>
        <pt x="328" y="439" on="1"/>
        <pt x="325" y="422" on="0"/>
        <pt x="311" y="422" on="1"/>
        <pt x="295" y="422" on="0"/>
        <pt x="290" y="437" on="0"/>
        <pt x="284" y="448" on="0"/>
        <pt x="262" y="467" on="0"/>
        <pt x="248" y="467" on="1"/>
        <pt x="183" y="467" on="0"/>
        <pt x="130" y="350" on="1"/>
        <pt x="70" y="215" on="0"/>
        <pt x="70" y="96" on="1"/>
        <pt x="70" y="36" on="0"/>
        <pt x="94" y="36" on="1"/>
        <pt x="113" y="36" on="0"/>
        <pt x="182" y="121" on="0"/>
        <pt x="220" y="185" on="1"/>
        <pt x="286" y="295" on="0"/>
        <pt x="327" y="376" on="1"/>
        <pt x="361" y="448" on="0"/>
        <pt x="397" y="448" on="1"/>
        <pt x="416" y="448" on="0"/>
        <pt x="416" y="425" on="1"/>
        <pt x="407" y="406" on="0"/>
        <pt x="379" y="336" on="0"/>
        <pt x="333" y="128" on="0"/>
        <pt x="333" y="-78" on="0"/>
        <pt x="364" y="-78" on="1"/>
        <pt x="376" y="-78" on="0"/>
        <pt x="396" y="-57" on="0"/>
        <pt x="404" y="-36" on="1"/>
        <pt x="407" y="-25" on="0"/>
        <pt x="418" y="-25" on="1"/>
        <pt x="422" y="-25" on="0"/>
        <pt x="426" y="-31" on="0"/>
        <pt x="422" y="-45" on="0"/>
        <pt x="412" y="-70" on="0"/>
        <pt x="379" y="-112" on="0"/>
        <pt x="361" y="-112" on="1"/>
        <pt x="319" y="-112" on="0"/>
        <pt x="274" y="-2" on="0"/>
        <pt x="274" y="148" on="0"/>
        <pt x="285" y="217" on="1"/>
        <pt x="275" y="217" on="1"/>
        <pt x="148" y="0" on="0"/>
      </contour>
    </TTGlyph>
    <TTGlyph name="acircumflex" xMin="1" yMin="-112" xMax="424" yMax="683">
      <contour>
        <pt x="322" y="683" on="0"/>
        <pt x="336" y="683" on="0"/>
        <pt x="341" y="675" on="1"/>
        <pt x="401" y="557" on="1"/>
        <pt x="372" y="557" on="1"/>
        <pt x="327" y="634" on="1"/>
        <pt x="197" y="557" on="1"/>
        <pt x="167" y="557" on="1"/>
        <pt x="263" y="637" on="0"/>
      </contour>
      <contour>
        <pt x="84" y="0" on="1"/>
        <pt x="2" y="0" on="0"/>
        <pt x="2" y="129" on="1"/>
        <pt x="2" y="206" on="0"/>
        <pt x="40" y="298" on="1"/>
        <pt x="93" y="427" on="0"/>
        <pt x="179" y="474" on="1"/>
        <pt x="216" y="494" on="0"/>
        <pt x="280" y="494" on="0"/>
        <pt x="317" y="466" on="0"/>
        <pt x="322" y="452" on="1"/>
        <pt x="328" y="439" on="1"/>
        <pt x="325" y="422" on="0"/>
        <pt x="311" y="422" on="1"/>
        <pt x="295" y="422" on="0"/>
        <pt x="290" y="437" on="0"/>
        <pt x="284" y="448" on="0"/>
        <pt x="262" y="467" on="0"/>
        <pt x="248" y="467" on="1"/>
        <pt x="183" y="467" on="0"/>
        <pt x="130" y="350" on="1"/>
        <pt x="70" y="215" on="0"/>
        <pt x="70" y="96" on="1"/>
        <pt x="70" y="36" on="0"/>
        <pt x="94" y="36" on="1"/>
        <pt x="113" y="36" on="0"/>
        <pt x="182" y="121" on="0"/>
        <pt x="220" y="185" on="1"/>
        <pt x="286" y="295" on="0"/>
        <pt x="327" y="376" on="1"/>
        <pt x="361" y="448" on="0"/>
        <pt x="397" y="448" on="1"/>
        <pt x="416" y="448" on="0"/>
        <pt x="416" y="425" on="1"/>
        <pt x="407" y="406" on="0"/>
        <pt x="379" y="336" on="0"/>
        <pt x="333" y="128" on="0"/>
        <pt x="333" y="-78" on="0"/>
        <pt x="364" y="-78" on="1"/>
        <pt x="376" y="-78" on="0"/>
        <pt x="396" y="-57" on="0"/>
        <pt x="404" y="-36" on="1"/>
        <pt x="407" y="-25" on="0"/>
        <pt x="418" y="-25" on="1"/>
        <pt x="422" y="-25" on="0"/>
        <pt x="426" y="-31" on="0"/>
        <pt x="422" y="-45" on="0"/>
        <pt x="412" y="-70" on="0"/>
        <pt x="379" y="-112" on="0"/>
        <pt x="361" y="-112" on="1"/>
        <pt x="319" y="-112" on="0"/>
        <pt x="274" y="-2" on="0"/>
        <pt x="274" y="148" on="0"/>
        <pt x="285" y="217" on="1"/>
        <pt x="275" y="217" on="1"/>
        <pt x="148" y="0" on="0"/>
      </contour>
    </TTGlyph>
    <TTGlyph name="acute" xMin="259" yMin="551" xMax="389" yMax="694">
      <contour>
        <pt x="382" y="653" on="1"/>
        <pt x="352" y="617" on="0"/>
        <pt x="278" y="551" on="0"/>
        <pt x="259" y="551" on="0"/>
        <pt x="259" y="570" on="0"/>
        <pt x="305" y="643" on="0"/>
        <pt x="336" y="678" on="1"/>
        <pt x="349" y="693" on="0"/>
        <pt x="370" y="693" on="0"/>
        <pt x="388" y="684" on="0"/>
        <pt x="388" y="665" on="0"/>
      </contour>
    </TTGlyph>
    <TTGlyph name="adieresis" xMin="1" yMin="-112" xMax="425" yMax="676">
      <contour>
        <pt x="233" y="559" on="1"/>
        <pt x="212" y="559" on="0"/>
        <pt x="212" y="599" on="1"/>
        <pt x="212" y="623" on="0"/>
        <pt x="238" y="676" on="0"/>
        <pt x="262" y="676" on="1"/>
        <pt x="282" y="676" on="0"/>
        <pt x="282" y="653" on="1"/>
        <pt x="282" y="641" on="0"/>
        <pt x="258" y="594" on="0"/>
        <pt x="246" y="576" on="1"/>
      </contour>
      <contour>
        <pt x="376" y="559" on="1"/>
        <pt x="355" y="559" on="0"/>
        <pt x="355" y="600" on="1"/>
        <pt x="355" y="624" on="0"/>
        <pt x="380" y="676" on="0"/>
        <pt x="404" y="676" on="1"/>
        <pt x="425" y="676" on="0"/>
        <pt x="425" y="653" on="1"/>
        <pt x="425" y="630" on="0"/>
        <pt x="388" y="576" on="1"/>
      </contour>
      <contour>
        <pt x="84" y="0" on="1"/>
        <pt x="2" y="0" on="0"/>
        <pt x="2" y="129" on="1"/>
        <pt x="2" y="206" on="0"/>
        <pt x="40" y="298" on="1"/>
        <pt x="93" y="427" on="0"/>
        <pt x="179" y="474" on="1"/>
        <pt x="216" y="494" on="0"/>
        <pt x="280" y="494" on="0"/>
        <pt x="317" y="466" on="0"/>
        <pt x="322" y="452" on="1"/>
        <pt x="328" y="439" on="1"/>
        <pt x="325" y="422" on="0"/>
        <pt x="311" y="422" on="1"/>
        <pt x="295" y="422" on="0"/>
        <pt x="290" y="437" on="0"/>
        <pt x="284" y="448" on="0"/>
        <pt x="262" y="467" on="0"/>
        <pt x="248" y="467" on="1"/>
        <pt x="183" y="467" on="0"/>
        <pt x="130" y="350" on="1"/>
        <pt x="70" y="215" on="0"/>
        <pt x="70" y="96" on="1"/>
        <pt x="70" y="36" on="0"/>
        <pt x="94" y="36" on="1"/>
        <pt x="113" y="36" on="0"/>
        <pt x="182" y="121" on="0"/>
        <pt x="220" y="185" on="1"/>
        <pt x="286" y="295" on="0"/>
        <pt x="327" y="376" on="1"/>
        <pt x="361" y="448" on="0"/>
        <pt x="397" y="448" on="1"/>
        <pt x="416" y="448" on="0"/>
        <pt x="416" y="425" on="1"/>
        <pt x="407" y="406" on="0"/>
        <pt x="379" y="336" on="0"/>
        <pt x="333" y="128" on="0"/>
        <pt x="333" y="-78" on="0"/>
        <pt x="364" y="-78" on="1"/>
        <pt x="376" y="-78" on="0"/>
        <pt x="396" y="-57" on="0"/>
        <pt x="404" y="-36" on="1"/>
        <pt x="407" y="-25" on="0"/>
        <pt x="418" y="-25" on="1"/>
        <pt x="422" y="-25" on="0"/>
        <pt x="426" y="-31" on="0"/>
        <pt x="422" y="-45" on="0"/>
        <pt x="412" y="-70" on="0"/>
        <pt x="379" y="-112" on="0"/>
        <pt x="361" y="-112" on="1"/>
        <pt x="319" y="-112" on="0"/>
        <pt x="274" y="-2" on="0"/>
        <pt x="274" y="148" on="0"/>
        <pt x="285" y="217" on="1"/>
        <pt x="275" y="217" on="1"/>
        <pt x="148" y="0" on="0"/>
      </contour>
    </TTGlyph>
    <TTGlyph name="ae" xMin="1" yMin="-32" xMax="597" yMax="494">
      <contour>
        <pt x="520" y="485" on="1"/>
        <pt x="596" y="485" on="0"/>
        <pt x="596" y="396" on="1"/>
        <pt x="596" y="345" on="0"/>
        <pt x="562" y="289" on="1"/>
        <pt x="510" y="206" on="0"/>
        <pt x="426" y="197" on="1"/>
        <pt x="408" y="196" on="1"/>
        <pt x="393" y="196" on="0"/>
        <pt x="373" y="206" on="0"/>
        <pt x="368" y="216" on="1"/>
        <pt x="439" y="216" on="0"/>
        <pt x="498" y="298" on="1"/>
        <pt x="546" y="364" on="0"/>
        <pt x="546" y="419" on="1"/>
        <pt x="546" y="460" on="0"/>
        <pt x="513" y="460" on="1"/>
        <pt x="447" y="460" on="0"/>
        <pt x="390" y="357" on="1"/>
        <pt x="329" y="245" on="0"/>
        <pt x="329" y="127" on="1"/>
        <pt x="329" y="27" on="0"/>
        <pt x="386" y="7" on="1"/>
        <pt x="397" y="3" on="0"/>
        <pt x="431" y="3" on="0"/>
        <pt x="469" y="20" on="0"/>
        <pt x="482" y="32" on="1"/>
        <pt x="508" y="56" on="0"/>
        <pt x="525" y="85" on="1"/>
        <pt x="529" y="93" on="0"/>
        <pt x="540" y="93" on="1"/>
        <pt x="558" y="93" on="0"/>
        <pt x="556" y="87" on="1"/>
        <pt x="554" y="76" on="0"/>
        <pt x="515" y="24" on="0"/>
        <pt x="482" y="-7" on="0"/>
        <pt x="429" y="-32" on="0"/>
        <pt x="402" y="-32" on="1"/>
        <pt x="316" y="-32" on="0"/>
        <pt x="282" y="32" on="1"/>
        <pt x="258" y="77" on="0"/>
        <pt x="258" y="137" on="1"/>
        <pt x="258" y="163" on="0"/>
        <pt x="263" y="192" on="1"/>
        <pt x="133" y="0" on="0"/>
        <pt x="84" y="0" on="1"/>
        <pt x="2" y="0" on="0"/>
        <pt x="2" y="129" on="1"/>
        <pt x="2" y="206" on="0"/>
        <pt x="40" y="298" on="1"/>
        <pt x="93" y="427" on="0"/>
        <pt x="179" y="474" on="1"/>
        <pt x="216" y="494" on="0"/>
        <pt x="280" y="494" on="0"/>
        <pt x="317" y="466" on="0"/>
        <pt x="322" y="452" on="1"/>
        <pt x="328" y="439" on="1"/>
        <pt x="325" y="422" on="0"/>
        <pt x="311" y="422" on="1"/>
        <pt x="295" y="422" on="0"/>
        <pt x="290" y="437" on="0"/>
        <pt x="284" y="448" on="0"/>
        <pt x="262" y="467" on="0"/>
        <pt x="248" y="467" on="1"/>
        <pt x="183" y="467" on="0"/>
        <pt x="130" y="350" on="1"/>
        <pt x="70" y="215" on="0"/>
        <pt x="70" y="96" on="1"/>
        <pt x="70" y="36" on="0"/>
        <pt x="117" y="36" on="0"/>
        <pt x="268" y="244" on="0"/>
        <pt x="353" y="406" on="0"/>
        <pt x="461" y="485" on="0"/>
      </contour>
    </TTGlyph>
</ttFont>
